<?xml version="1.0" encoding="utf-8"?>
<!-- Generator: Adobe Illustrator 24.3.0, SVG Export Plug-In . SVG Version: 6.00 Build 0)  -->
<svg version="1.1" id="Ebene_1" xmlns="http://www.w3.org/2000/svg" xmlns:xlink="http://www.w3.org/1999/xlink" x="0px" y="0px"
	 viewBox="0 0 516 525" style="enable-background:new 0 0 516 525;" xml:space="preserve">
<style type="text/css">
	.st0{fill:#FFFFFF;stroke:#0D4CB3;stroke-width:34.0157;stroke-miterlimit:10;}
	.st1{fill:#0D4CB3;}
	.st2{fill:#FFFFFF;stroke:#000000;stroke-width:34.0157;stroke-miterlimit:10;}
	.st3{fill:#FFFFFF;}
	.st4{fill:#FFA0FF;}
</style>
<path class="st0" d="M156.3,340.2c8.1,14.2,39.7,66,93.6,75.2c16.8,2.9,29.9,0.6,33.3,0c52.2-9.8,79.3-62.8,84.6-73.8
	c-29.7,4.9-64.7,8.5-103.9,8.4C223.2,349.8,186.9,345.6,156.3,340.2z"/>
<path class="st1" d="M258,3C118,3,4,119.7,4,263s114,260,254,260s254-116.7,254-260S398,3,258,3z M258,55
	c112.5,0,203.2,92.8,203.2,208S370.5,471,258,471S54.8,378.2,54.8,263S145.5,55,258,55z M199.6,209c0,17.8-14.3,32.2-31.9,32.2
	s-31.9-14.4-31.9-32.2s14.3-32.2,31.9-32.2S199.6,191.2,199.6,209z M381.1,209c0,17.8-14.3,32.2-31.9,32.2s-31.9-14.4-31.9-32.2
	s14.3-32.2,31.9-32.2C366.8,176.7,381.1,191.2,381.1,209z"/>
<path class="st2" d="M343.8,318.1"/>
<path class="st2" d="M242.7,410.5"/>
<path class="st0" d="M264.8,401.8c-7.5-2.1-7.7-4.9-24.7-13.5c-25.8-13-45.2-16.7-44.9-18c0.4-1.7,33.1,11.1,74.1,9
	c43.8-2.3,67.3-20.1,69.6-15.7C342.2,369.7,298.5,411.4,264.8,401.8z"/>
<path class="st3" d="M341.9,312.8c12.9,4.4,24,7.6,32.5,9.9c-2,5.7-3.9,10.3-5.3,13.4c0,0-7.8,17.5-23.6,38.4
	c-1.4,1.9-3.3,4.3-6,7.1c0,0-3.4,3.5-7.6,6.8c-19.5,15.5-43.2,22.9-43.2,22.9c-6.5,2-19.1,5.9-34,6c-45,0.5-77.4-33.2-83.8-39.8
	c-22.4-23.4-30.9-49.4-34.3-63.8c1.1,2.3,2.1,4.5,3.2,6.8c0,0,32.1,5.3,53.2,7.9c15.8,2,37.8,4,64.8,4.3c43.6,1,69-1.6,84.3-4.3
	c0,0,1.2-0.2,32.3-5.7c5.9,0.7,11.8,1.4,17.8,2.1c0.2-2.6,0.4-5.3,0.6-7.9C375.9,315.5,358.9,314.2,341.9,312.8
	c-45.1-95.5-67.9-108.1-68-108.1l0,0c-17.7-17.7-43.3-9.2-55.3-5.2c-4.8,1.6-11.6,4.4-19.1,9.5c0.1,3.3-0.3,9.8-4.2,16.5
	c-5.5,9.4-16.1,15.8-27.7,15.7c-14.9-0.2-23.7-11-25-12.6c-2.4-3.1-7-10.1-6.9-19.6c0.1-13.9,10-27.1,23.3-31
	c10.6-3.1,19.8,0.7,21.6,1.5c6.3,2.7,10,6.8,11.4,8.4c7.1,8.4,7.5,18,7.5,21.1c18.1-1.5,36.3-3,54.4-4.4
	c-0.3-52.7-0.5-105.4-0.8-158.1c-16.7-0.5-44.4,0.8-75.2,13.1c-56.7,22.7-85.1,67.3-96.7,86.2c-8.8,14.3-25.1,41.4-30.3,80.8
	c-5.3,41.1,4.4,72.7,10,90c7.4,22.9,33.3,91.5,102.7,130.5c29.8,16.7,56,21.5,62.9,22.6c50.8,8.4,90.8-7,103.9-12.2
	c82-32.8,113.1-109.4,117.3-120.4c4.1-10.7,25.3-68,6.1-136.3c-3.1-11.1-12.5-41-36.3-72.5c-9.5-12.5-29.9-39-66.6-58.7
	c-41.6-22.4-80.8-23.7-99.5-23.1c-35.7,54.2-32.9,119.9,2.5,158.1c29.4,31.9,71.5,34.1,82.7,34.3c-2.7-1.3-12.3-6.1-17-17.2
	c-2.9-6.8-2.6-12.8-2.4-15c0.7-8.5,4.7-14.4,6.5-16.8c1.3-2,3.6-4.8,7.2-7.4c5.1-3.7,10.2-5,12.8-5.4c8.9-1.5,15.8,1.5,18.2,2.6
	c5.5,2.4,9,5.8,10.5,7.4c5.4,5.7,7.2,11.7,7.6,13c0.4,1.3,2,7.4,0.4,15c-2.1,9.8-9.1,19.4-18.8,23.7c-8.1,3.5-16.2,2.5-25,0.1
	c-37.1-9.7-44.4-30.7-64.1-30.8c-20.1-0.2-43.8,21.3-43.1,39.2C230.6,275,291.3,295.6,341.9,312.8z"/>
<path class="st4" d="M268.8,301.6"/>
<path class="st3" d="M-356.4,20.5"/>
</svg>
