<?xml version="1.0" encoding="utf-8"?>
<!-- Generator: Adobe Illustrator 24.3.0, SVG Export Plug-In . SVG Version: 6.00 Build 0)  -->
<svg version="1.1" id="Ebene_1" xmlns="http://www.w3.org/2000/svg" xmlns:xlink="http://www.w3.org/1999/xlink" x="0px" y="0px"
	 viewBox="0 0 516 525" style="enable-background:new 0 0 516 525;" xml:space="preserve">
<style type="text/css">
	.st0{fill:#0D3471;}
	.st1{fill:#FFFFFF;stroke:#0D3471;stroke-width:34.0157;stroke-miterlimit:10;}
	.st2{fill:#FFFFFF;}
</style>
<path class="st0" d="M258,3C118,3,4,119.7,4,263s114,260,254,260s254-116.7,254-260S398,3,258,3z M258,55
	c112.5,0,203.2,92.8,203.2,208S370.5,471,258,471S54.8,378.2,54.8,263S145.5,55,258,55z M199.6,209c0,17.8-14.3,32.2-31.9,32.2
	s-31.9-14.4-31.9-32.2s14.3-32.2,31.9-32.2S199.6,191.2,199.6,209z M381.1,209c0,17.8-14.3,32.2-31.9,32.2s-31.9-14.4-31.9-32.2
	s14.3-32.2,31.9-32.2C366.8,176.7,381.1,191.2,381.1,209z"/>
<path class="st1" d="M362.7,363.9c-71.6-0.5-143.3-1-214.9-1.4"/>
<path class="st2" d="M340,312.5c12.9,4.4,24,7.6,32.5,9.9c-2,5.7-3.9,10.3-5.3,13.4c0,0,0,0,0,0c-0.3,0.5,5.7,2.9,7.1,6.2
	c1.6,3.8-2.7,8.9-3.6,10c-4.3,5.5-8,18.3-4.7,50.6c-73-7.5-145.9-14.9-218.9-22.4c0.2-11.6,0.5-23.1,0.7-34.7
	c71.6,0.4,143.3,0.7,214.9,1.1c0,11.3,0,22.6,0,33.9c-71.9-0.1-143.7-0.2-215.6-0.4c70.4,19.1,140.8,38.3,211.3,57.4
	c10.8-40.4,21.6-80.8,32.4-121.1C374,315.2,357,313.8,340,312.5c-45.1-95.5-67.9-108.1-68-108.1l0,0c-7.2-3.5-30-13.4-55.3-5.2
	c-7.2,2.3-13.1,5.7-17.6,8.9c-0.1,3.4-0.6,9.6-4.2,15.9c-0.7,1.3-9.8,17-27.3,17.2c-15,0.2-24-11-25.1-12.4
	c-1.5-1.9-6.8-9.2-6.8-19.8c0.1-11.9,7.1-24.1,18.9-29.4c12.7-5.7,24.6-0.6,27,0.5c2.1,0.9,6.8,3.2,10.9,8.2
	c6.5,7.9,6.6,17,6.5,19.8c17.7-1.3,35.3-2.6,53-3.9c-0.3-52.7-0.5-105.4-0.8-158.1c-16.7-0.5-44.4,0.8-75.2,13.1
	c-56.7,22.7-85.1,67.3-96.7,86.2c-8.8,14.3-25.1,41.4-30.3,80.8c-5.3,41.1,4.4,72.7,10,90c7.4,22.9,33.3,91.5,102.7,130.5
	c29.8,16.7,56,21.5,62.9,22.6c49.4,8.2,88.3-6.2,103.9-12.2c38.8-14.9,62.8-37.3,69.5-43.8c7-6.8,33.2-33.2,49.4-77.3
	c22.7-61.7,10.1-116.1,4.5-135.6c-3.8-13.3-13.5-42.2-36.3-72.5c-9.5-12.5-29.9-39-66.6-58.7c-41.6-22.4-80.8-23.7-99.5-23.1
	c-35.6,53.4-32.9,119.1,2.5,158.1c31.5,34.8,77.5,36,87.6,36c-3.3-1.4-8.7-4.2-13.8-9.6c-3.9-4.2-6.2-8.5-7.4-11.5
	c-0.9-2.8-2.3-8.2-1.2-14.9c0.3-1.6,1.5-8.6,7.1-15.4c0.7-0.8,2.9-3.5,6.6-6.1c2.3-1.7,6.8-4.8,13.1-5.8c8.4-1.4,15.1,1.5,18.3,2.9
	c2.4,1.1,6.6,3,10.7,7.3c1.3,1.4,5.3,5.9,7.3,13.1c0.5,1.8,2.4,9.3-0.5,18.3c-0.4,1.3-4.8,14.4-17.8,20.2
	c-8.4,3.7-16.5,2.7-22.4,1.5c-36.1-7.4-47.1-32.5-69-32.5c-20.3,0-43.8,21.5-43.1,39.2C228.6,274.6,289.4,295.3,340,312.5z"/>
</svg>
