<?xml version="1.0" encoding="utf-8"?>
<!-- Generator: Adobe Illustrator 24.3.0, SVG Export Plug-In . SVG Version: 6.00 Build 0)  -->
<svg version="1.1" id="Ebene_1" xmlns="http://www.w3.org/2000/svg" xmlns:xlink="http://www.w3.org/1999/xlink" x="0px" y="0px"
	 viewBox="0 0 516 525" style="enable-background:new 0 0 516 525;" xml:space="preserve">
<style type="text/css">
	.st0{fill:#FFFFFF;stroke:#0D4CB3;stroke-width:34.0157;stroke-miterlimit:10;}
	.st1{fill:#0D4CB3;}
	.st2{fill:#FFFFFF;}
</style>
<path class="st0" d="M156,318c12.9,52.5,53.8,89.4,100.5,91c46.4,1.5,88.8-32.2,104.5-83.2c-15.7,51-58,84.7-104.5,83.2
	C209.8,407.4,168.9,370.5,156,318z"/>
<path class="st1" d="M258,3C118,3,4,119.7,4,263s114,260,254,260s254-116.7,254-260S398,3,258,3z M258,55
	c112.5,0,203.2,92.8,203.2,208S370.5,471,258,471S54.8,378.2,54.8,263S145.5,55,258,55z M199.6,209c0,17.8-14.3,32.2-31.9,32.2
	s-31.9-14.4-31.9-32.2s14.3-32.2,31.9-32.2S199.6,191.2,199.6,209z M381.1,209c0,17.8-14.3,32.2-31.9,32.2s-31.9-14.4-31.9-32.2
	s14.3-32.2,31.9-32.2C366.8,176.7,381.1,191.2,381.1,209z"/>
<path class="st2" d="M344.9,321.3c12.9,4.4,24,7.6,32.5,9.9c-2,5.7-3.9,10.3-5.3,13.4c0,0-7.8,17.5-23.6,38.4
	c-1.4,1.9-3.3,4.3-6,7.1c0,0-3.4,3.5-7.6,6.8c-19.5,15.5-43.2,22.9-43.2,22.9c-6.5,2-19.1,5.9-34,6c-45,0.5-77.4-33.2-83.8-39.8
	c-22.4-23.4-30.9-49.4-34.3-63.8c11-2.6,21.9-5.1,32.9-7.7c7.9,23.3,9.6,26.9,9.6,26.9c6.2,12.5,14.3,20.3,19,24.9
	c4.2,4,12.5,11.9,25.9,18c13.5,6.2,25.9,7.9,34.1,8.3c18.2-0.7,30.7-6.6,37.1-10.2c9.2-5.3,15.3-11.4,21-17.1
	c6.9-6.9,12.4-12.4,17.1-21.5C336.3,343.8,337.8,340.9,344.9,321.3c-45.2-95.6-68-108.1-68-108.1c-13.4-7.3-37.1-14.9-77.3-4.2
	c0,2.1-0.3,5.1-1.2,8.5c-0.6,2.3-2.6,9-8.5,14.8c-9,8.8-20.4,8.9-22.1,8.9c-1.9,0-12.2-0.3-20.9-8.1c-8.9-8-12.1-20.4-9.8-31.1
	c0.8-3.8,3.5-13.2,12.7-19.6c10.6-7.4,21.9-5.3,24.1-4.8c10.7,2.2,16.8,9.3,19.2,12.4c5.9,7.8,6.5,16,6.6,19
	c19.1,1.3,38.3,2.7,57.4,4c-0.3-52.7-0.5-105.4-0.8-158.1c-16.7-0.5-44.4,0.8-75.2,13.1c-56.7,22.7-85.1,67.3-96.7,86.2
	C75.4,168.5,59.1,195.6,54,235c-5.5,42.6,5.1,75.4,10,90c6,17.9,29.1,86.5,102,124c75,38.6,146.8,15.4,159.5,11
	c10.6-3.6,88.6-31.8,122.5-114c25.5-61.8,11-117.6,6-137c-10.3-39.7-28.7-65.8-33.4-72.3c-26-35.8-56.8-53.4-66.6-58.7
	c-41.6-22.4-80.8-23.7-99.5-23.1c-39,59.5-33.3,127.2,2.5,158.1c24.2,20.9,56.5,20.3,69.9,19.2c-2.3-2.4-8.1-9.2-9.4-19.4
	c-0.8-7,0.8-12.5,1.5-14.4c0.8-2.4,3.7-9.7,11.2-15.2c1.2-0.9,13-9.3,27.6-5.2c8.2,2.3,13.3,7.4,15.7,10.2
	c7.3,8.6,7.6,18.3,7.6,20.9c0,3.1-0.4,11.5-6.5,19.5c-1.5,2-6.8,8.6-16.1,11.4c-16.5,4.9-30.5-6.7-31.6-7.7
	c-2.1-2-23-21.2-51.4-15.7c-21.6,4.2-43.8,22-43.1,39.2C233.5,283.4,294.3,304.1,344.9,321.3z"/>
</svg>
