<?xml version="1.0" encoding="utf-8"?>
<!-- Generator: Adobe Illustrator 24.3.0, SVG Export Plug-In . SVG Version: 6.00 Build 0)  -->
<svg version="1.1" id="Ebene_1" xmlns="http://www.w3.org/2000/svg" xmlns:xlink="http://www.w3.org/1999/xlink" x="0px" y="0px"
	 viewBox="0 0 516 525" style="enable-background:new 0 0 516 525;" xml:space="preserve">
<style type="text/css">
	.st0{fill:#FFFFFF;stroke:#000000;stroke-width:34.0157;stroke-miterlimit:10;}
	.st1{fill:#FFA0FF;}
	.st2{fill:#FFFFFF;}
</style>
<path class="st0" d="M156.3,340.2c8.1,14.2,39.7,66,93.6,75.2c16.8,2.9,29.9,0.6,33.3,0c52.2-9.8,79.3-62.8,84.6-73.8
	c-29.7,4.9-64.7,8.5-103.9,8.4C223.2,349.8,186.9,345.6,156.3,340.2z"/>
<path d="M258,3C118,3,4,119.7,4,263s114,260,254,260s254-116.7,254-260S398,3,258,3z M258,55c112.5,0,203.2,92.8,203.2,208
	S370.5,471,258,471S54.8,378.2,54.8,263S145.5,55,258,55z M199.6,209c0,17.8-14.3,32.2-31.9,32.2s-31.9-14.4-31.9-32.2
	s14.3-32.2,31.9-32.2S199.6,191.2,199.6,209z M381.1,209c0,17.8-14.3,32.2-31.9,32.2s-31.9-14.4-31.9-32.2s14.3-32.2,31.9-32.2
	C366.8,176.7,381.1,191.2,381.1,209z"/>
<path class="st0" d="M343.8,318.1"/>
<path class="st0" d="M242.7,410.5"/>
<path class="st0" d="M264.8,401.8c-7.5-2.1-7.7-4.9-24.7-13.5c-25.8-13-45.2-16.7-44.9-18c0.4-1.7,33.1,11.1,74.1,9
	c43.8-2.3,67.3-20.1,69.6-15.7C342.2,369.7,298.5,411.4,264.8,401.8z"/>
<path class="st1" d="M268.8,301.6"/>
<path class="st2" d="M-356.4,20.5"/>
</svg>
