<?xml version="1.0" encoding="utf-8"?>
<!-- Generator: Adobe Illustrator 24.3.0, SVG Export Plug-In . SVG Version: 6.00 Build 0)  -->
<svg version="1.1" id="Ebene_1" xmlns="http://www.w3.org/2000/svg" xmlns:xlink="http://www.w3.org/1999/xlink" x="0px" y="0px"
	 viewBox="0 0 516 525" style="enable-background:new 0 0 516 525;" xml:space="preserve">
<style type="text/css">
	.st0{fill:#FFFFFF;stroke:#0D4CB3;stroke-width:34.0157;stroke-miterlimit:10;}
	.st1{fill:#0D4CB3;}
	.st2{fill:#FFFFFF;stroke:#000000;stroke-miterlimit:10;}
	.st3{fill:#FFFFFF;}
</style>
<path class="st0" d="M361,409c-12.9-52.5-53.8-89.4-100.5-91c-46.4-1.5-88.8,32.2-104.5,83.2c15.7-51,58-84.7,104.5-83.2
	C307.2,319.6,348.1,356.5,361,409z"/>
<path class="st1" d="M258,3C118,3,4,119.7,4,263s114,260,254,260s254-116.7,254-260S398,3,258,3z M258,55
	c112.5,0,203.2,92.8,203.2,208S370.5,471,258,471S54.8,378.2,54.8,263S145.5,55,258,55z M199.6,209c0,17.8-14.3,32.2-31.9,32.2
	s-31.9-14.4-31.9-32.2s14.3-32.2,31.9-32.2S199.6,191.2,199.6,209z M381.1,209c0,17.8-14.3,32.2-31.9,32.2s-31.9-14.4-31.9-32.2
	s14.3-32.2,31.9-32.2C366.8,176.7,381.1,191.2,381.1,209z"/>
<path class="st2" d="M251,233"/>
<path class="st3" d="M344.2,319c13.3,5.3,24.7,9.6,33.3,12.7c-14.8-0.3-29.5-0.5-44.3-0.8c6.6,6.7,13.2,13.5,19.8,20.2
	c5,8.3,10,16.6,15.1,25c3.2,9.3,6.4,18.7,9.6,28c-11.2,2.9-22.3,5.7-33.5,8.6c-6.4-46-46.3-79.3-90-77.6
	c-39.2,1.5-73.7,30.9-82.1,71.5c-10.8-3.2-21.7-6.4-32.5-9.6c3.9-12.7,19.8-58.5,65.3-82.4c7.8-4.1,26.3-13.6,52-13.7
	c40.5-0.2,68.4,23.1,76.3,30.1c43.2,21.1,59.3,21.2,64.6,15.1c20.3-23.5-120.7-132.3-120.9-132.3h0c-13.4-7.3-37.1-14.9-77.3-4.2
	c0,2.1-0.3,5.1-1.2,8.5c-0.6,2.3-2.6,9-8.5,14.8c-9,8.8-20.4,8.9-22.1,8.9c-1.9,0-12.2-0.3-20.9-8.1c-13.1-11.8-10.1-29.8-9.8-31.1
	c0.5-2.7,2.8-15.1,14.2-21.8c9.7-5.7,19.7-3.3,22.6-2.7c3,0.7,12.4,3.3,19.2,12.4c5.9,7.8,6.5,16,6.6,19c19.1,1.3,38.3,2.7,57.4,4
	c-0.3-52.7-0.5-105.4-0.8-158.1c-16.7-0.5-44.4,0.8-75.2,13.1c-56.7,22.7-85.1,67.3-96.7,86.2c-8.8,14.3-25.1,41.4-30.3,80.8
	c-5.5,42.6,5.1,75.4,10,90c6,17.9,29.1,86.5,102,124c75,38.6,146.8,15.4,159.5,11c10.6-3.6,88.6-31.8,122.5-114
	c25.5-61.8,11-117.6,6-137c-10.3-39.7-28.7-65.8-33.4-72.3c-26-35.8-56.8-53.4-66.6-58.7c-41.6-22.4-80.8-23.7-99.5-23.1
	c-39,59.5-33.3,127.2,2.5,158.1c24.2,20.9,56.5,20.3,69.9,19.2c-2.3-2.4-8.1-9.2-9.4-19.4c-0.8-7,0.8-12.5,1.5-14.4
	c0.8-2.4,3.7-9.7,11.2-15.2c1.2-0.9,13-9.3,27.6-5.2c8.2,2.3,13.3,7.4,15.7,10.2c7.3,8.7,7.5,18.3,7.6,20.9c0,2.8,0,10.2-4.8,17.8
	c-0.5,0.8-6.7,10.2-17.8,13.1c-10.5,2.7-21.4,2-31.6-7.7c-2.1-2-23-21.2-51.4-15.7c-20.4,4-44.3,22-43.1,39.2
	C233.8,274.7,270.6,289.7,344.2,319z"/>
</svg>
