<?xml version="1.0" encoding="utf-8"?>
<!-- Generator: Adobe Illustrator 24.3.0, SVG Export Plug-In . SVG Version: 6.00 Build 0)  -->
<svg version="1.1" id="Ebene_1" xmlns="http://www.w3.org/2000/svg" xmlns:xlink="http://www.w3.org/1999/xlink" x="0px" y="0px"
	 viewBox="0 0 516 525" style="enable-background:new 0 0 516 525;" xml:space="preserve">
<style type="text/css">
	.st0{fill:#FFFFFF;stroke:#0D3471;stroke-width:34.0157;stroke-miterlimit:10;}
	.st1{fill:#0D3471;stroke:#0D3471;stroke-miterlimit:10;}
	.st2{fill:#FFFFFF;stroke:#000000;stroke-width:34.0157;stroke-miterlimit:10;}
	.st3{fill:#FFFFFF;}
	.st4{fill:#FF7DFF;}
</style>
<path class="st0" d="M352.7,386.2c-5.1-10-30.3-57.1-78.4-66.7c-5.9-1.2-18.3-3.5-33.3,0c-44.3,10.3-62.1,59.6-64.3,65.9
	c21.3-5.6,49.9-11,83.8-11.2C298.4,373.9,330,380,352.7,386.2z"/>
<path class="st1" d="M258,3C118,3,4,119.7,4,263s114,260,254,260s254-116.7,254-260S398,3,258,3z M258,55
	c112.5,0,203.2,92.8,203.2,208S370.5,471,258,471S54.8,378.2,54.8,263S145.5,55,258,55z M199.6,209c0,17.8-14.3,32.2-31.9,32.2
	s-31.9-14.4-31.9-32.2s14.3-32.2,31.9-32.2S199.6,191.2,199.6,209z M381.1,209c0,17.8-14.3,32.2-31.9,32.2s-31.9-14.4-31.9-32.2
	s14.3-32.2,31.9-32.2C366.8,176.7,381.1,191.2,381.1,209z"/>
<path class="st2" d="M180.4,416.8"/>
<path class="st2" d="M281.5,324.4"/>
<path class="st0" d="M259.5,333.2c7.5,2.1,7.7,4.9,24.7,13.5c25.8,13,45.2,16.7,44.9,18c-0.4,1.7-33.1-11.1-74.1-9
	c-43.8,2.3-67.3,20.1-69.6,15.7C182,365.2,225.8,323.6,259.5,333.2z"/>
<path class="st2" d="M663.4,588.6"/>
<path class="st3" d="M340.5,313.4c12.9,4.4,24,7.6,32.5,9.9c-2,5.7-3.9,10.3-5.3,13.4c0,0,0,0,0,0c-0.4,0.8,4.7,4,7.1,6.2
	c3.7,3.2,4.9,7.2,6.6,12.5c2.7,8.6,4.9,29.4,4.2,56.9c-24.5-8.9-55.3-17-91.2-19.9c-11.6-0.9-22.7-1.2-33.1-1
	c-11.1,0.2-23,0.8-35.6,2.2c-29.2,3.2-54.6,9.5-75.8,16.4c3.7-10.7,7.4-21.4,11-32.1c4.3-11.6,11-25.3,21.8-39c2.9-3.6,5.8-7,8.7-10
	c-18.8-4.9-37.5-9.8-56.3-14.7c1.1,2.3,2.1,4.5,3.2,6.8c0,0,0,0,0,0c32.4,4.6,43.2,13.7,53.2,7.9c2.4-1.4,1.4-1.7,8-7
	c0,0,6.8-5.4,13.2-9.3c20.1-12,45.4-12.3,45.4-12.3c19.4-0.2,33.6,5.9,41,9.1c18.4,8,30.2,19.3,38.5,27.5
	c4.2,4.1,10.9,10.7,17.9,20.8c8.5,12.3,10.8,20.1,25.3,45.9c2.1,3.7,3.8,6.7,4.9,8.6c3.1-3.5,15.8-18.8,15-41.2
	c-1.1-29.8-25.1-46.2-27.6-47.8c5.9,0.7,11.8,1.4,17.8,2.1c0.2-2.6,0.4-5.3,0.6-7.9C374.4,316.1,357.5,314.7,340.5,313.4
	c-45.1-95.5-67.9-108.1-68-108.1l0,0c-7.2-3.5-30-13.4-55.3-5.2c-7.2,2.3-13.1,5.7-17.6,8.9c0,3.4-0.5,9.6-4.2,15.9
	c-5.7,9.9-16.9,16.1-28.6,15.9c-1.8,0-15.8-0.5-24.7-12.1c-5.9-7.6-6.3-15.9-6.3-18.7c0-13.1,8.4-26.8,21.8-31.4
	c11.1-3.8,21,0.2,23.3,1.2c7.1,3.1,11.1,8,12.1,9.3c6.3,8.1,6.6,17,6.5,19.8c17.7-1.3,35.3-2.6,53-3.9
	c-0.3-52.7-0.5-105.4-0.8-158.1c-16.7-0.5-44.4,0.8-75.2,13.1c-56.7,22.7-85.1,67.3-96.7,86.2c-8.8,14.3-25.1,41.4-30.3,80.8
	c-5.3,41.1,4.4,72.7,10,90c7.4,22.9,33.3,91.5,102.7,130.5c29.8,16.7,56,21.5,62.9,22.6c49.4,8.2,88.3-6.2,103.9-12.2
	c38.8-14.9,62.8-37.3,69.5-43.8c7-6.8,33.2-33.2,49.4-77.3c22.7-61.7,10.1-116.1,4.5-135.6c-3.8-13.3-13.5-42.2-36.3-72.5
	c-9.5-12.5-29.9-39-66.6-58.7c-41.6-22.4-80.8-23.7-99.5-23.1c-36,54-33,119.9,2.5,158.1c30.2,32.5,73.5,33.9,84.2,34
	c-2.6-1.3-6.6-3.6-10.4-7.6c-4.1-4.3-6.3-8.7-7.4-11.5c-1-3.3-2-8.6-1.2-14.9c0.4-3,1.2-9.2,5.7-15.2c2.6-3.5,5.4-5.6,6.8-6.7
	c2.2-1.6,6.2-4.5,12-5.7c8.4-1.7,15.3,1.3,18.2,2.6c5.5,2.4,9,5.8,10.5,7.4c5.4,5.7,7.2,11.7,7.6,13c0.4,1.3,2,7.4,0.4,15
	c-2,9.6-8.8,19.5-18.8,23.7c-8.3,3.4-16.4,1.8-23.4-0.2c-37.8-10.5-46.2-30.5-65.7-30.5c-20.2,0-43.8,21.4-43.1,39.2
	C229.1,275.5,289.9,296.2,340.5,313.4z"/>
<path class="st4" d="M398.7,367.4"/>
</svg>
