<?xml version="1.0" encoding="utf-8"?>
<!-- Generator: Adobe Illustrator 24.3.0, SVG Export Plug-In . SVG Version: 6.00 Build 0)  -->
<svg version="1.1" id="Ebene_1" xmlns="http://www.w3.org/2000/svg" xmlns:xlink="http://www.w3.org/1999/xlink" x="0px" y="0px"
	 viewBox="0 0 1728 864" style="enable-background:new 0 0 1728 864;" xml:space="preserve">
<style type="text/css">
	.st0{fill:none;stroke:#000000;stroke-width:2.834646e-03;stroke-miterlimit:10;}
</style>
<path class="st0" d="M51,46.7c1-0.3,2.3,0.4,5,1.7c1,0.5,1.9,1,2.5,1.4c1-1,1.9-2.1,2.9-3.1c2.8-0.4,5.5-0.8,8.3-1.2
	c0.3,0.1,0.5,0.2,0.8,0.3c0.7,1,1.3,2,2,3c0.9,0.3,2.2,0.6,3,0c1.1-0.9,0.2-2.6,1-4c0.9-1.7,3.5-1.6,10.8-1.6
	c7.9,0,9.6-0.2,10.4,1.2c1.4,2.2-0.5,5.7,1,6.9c0.6,0.4,1.6,0.5,2.1,0c1.3-1.2-1.3-4.9,0-6.9c1.2-1.8,5.2-1.8,7.3,0
	c0.9,0.8,0.9,1.4,2.1,2.3c0.5,0.4,2.5,1.9,4.2,1.2c1.6-0.7,1.5-3.1,3.1-3.5c0.8-0.2,1,0.3,2.1,0c1.2-0.3,1.2-1.1,2.1-1.2
	c1.5-0.1,3.1,2.3,3.1,2.3c0.4,0,1.1,0,1.8,0.3c0.7,0.3,1.1,0.7,1.3,0.9c0.8,0.8,2.9,2.9,4.2,2.3c1.1-0.5,0.8-1.7,2.1-2.3
	c1.3-0.6,3.1,0,3.1,0c0,0,1.7,1,3.1,1.2c2,0.3,2.9-1.6,4.2-1.2c1.3,0.4,2.2,3,1.6,4.5c-0.3,0.8-0.8,0.9-3.1,2.3
	c-3.5,2.1-3.9,2.9-4.2,3.5c-0.7,1.7,0,3.4,0,3.5c0.7,1.8,2.3,2.3,2.6,2.4c1.5,0.5,2.8-0.2,4.7-1.2c1.2-0.6,2.2-1.2,3.1-2.3
	c1.1-1.3,0.9-2,2.1-3.5c1-1.3,2-1.9,2.6-2.2c1.5-0.9,2.6-1.6,3.7-1.2c1,0.4,1.5,1.4,2.6,3.5c0,0.1,0.4,0.8,1,2.3
	c0.6,1.4,0.9,2,1,2.3c0.1,0.2,1,2.1,2.1,3.5c2,2.6,3.2,1.7,4.2,3.5c1.3,2.4-0.5,4.4,1,6.9c0.9,1.5,1.7,1.1,2.1,2.3
	c0.7,2.3-2.4,3.8-2.1,6.9c0.2,2.2,2.1,4.6,2.1,4.6c0.1,0.5,0.3,1.5,0.1,2.5c-0.4,2.9-2.6,3.9-2.2,5.5c0.3,0.9,1,0.7,2.1,2.3
	c0.4,0.6,1.2,1.8,1.1,3.1c0,0.3-0.1,1.1-1.1,2.6c-2,3-3.5,2.8-4.2,4.6c-0.6,1.9,0.6,2.5,0,5.8c-0.1,0.7-0.4,1.6-1,3.5
	c-0.6,2-0.8,2.2-1,2.3c-0.9,0.5-1.8-0.8-4.2-1.2c-0.2,0-0.4-0.1-0.6-0.1c0,0-0.8,0-1.4,0.1c-0.7,0.1-3,0.8-3.4,2.4
	c-0.7,2.1,2.6,4.7,3,5c1.7,1.3,2.6,1.1,5,3c1.4,1.1,1.8,1.7,2,2c0.7,1.1,0.8,2.2,1,4c0.1,0.8,0.2,2.2,0,4c-0.1,0.8-0.3,2.3-1,4
	c-0.7,1.6-2,4.8-4,5c-2,0.2-2.7-2.7-5-3c-2.3-0.3-4.5,2-6,4c0.2,3.3,1.1,4.5,2,5c1.3,0.7,2.4,0,4,1c0.1,0.1,1.9,1.3,2,3
	c0.1,1.7-1.6,2.9-3,4c-1.3,1-2.4,1.8-4,2c-2.9,0.3-3.9-1.9-9-3c-1.3-0.3-2.1-0.3-3,0c-0.4,0.2-2.2,0.6-3,2c-1.1,2,0.9,3.9,0,5
	c-0.9,1-3.9,0.6-5-1c-1.1-1.6,1.9-3.5,1-6c-0.1-0.4-0.2-0.5-2-3c-0.2-0.1-3.8-1-4.8-3.6c-0.3-0.9-0.5-2.2-1.2-2.4
	c-0.3-0.1-0.6,0-0.8,0.1c-1.1,0.7-0.6,3.5,0,6.9c0.3,1.8,0.6,3,0,3.5c-0.5,0.3-1.1,0-2.2,0.5c-0.5,0.2-0.8,0.5-1,0.7
	c-1.4,1.3-0.9,2.9-2.1,3.5c-0.1,0-1.1,0.5-2.1,0c-1.4-0.7-0.8-2.9-2.1-3.5c-0.6-0.3-1.6-0.1-1.8,0.3c-0.4,0.7,1.2,1.8,0.8,3.1
	c-0.2,0.6-0.7,0.9-1,1.2c-1.2,0.9-3.2,1-4.2,0c-0.9-1-0.2-2.1-1-3.5c-1.1-1.6-3.7-2.2-5.2-1.2c-1.1,0.7-1,1.9-2.1,2.3
	c-0.8,0.3-1.6-0.3-3.1-1.2c-0.7-0.4-1.5-0.9-2.2-1.8c-0.3-0.3-0.5-0.8-0.9-1.6c-0.7-1.3-1-2-1-2.3c0-1.5,1.4-2.4,1-3
	c-0.2-0.3-0.6-0.4-1-0.4c-1.1-0.1-2.2,0.3-4,1.4c-2.2,1.4-2,1.6-3,2c-0.5,0.2-2.6,1-4,0c-1.6-1.1-2-4-2-4c0,0,0,0,0,0
	c-0.3,0-0.7,0-1,0c-0.4,0.5-1,1.2-1.9,1.9c-0.1,0,0,0-0.1,0.1c-1.6,1.4,0.5,4.3-1,6c-0.5,0.6-1.7,0.7-4,1c-2.1,0.3-3.2,0.4-4,0
	c-1.5-0.7-1.2-1.9-3-3c-1.2-0.7-2.4-0.9-3-1c-2.2-0.3-2.8,0.5-4,0c-1.1-0.5-2-1.8-2-3c0-1.9,2-3.9,5-4c1.2-2.3,1.2-3.9,1-5
	c-0.1-0.5-0.3-1.1-1-3c-0.5-2.2-0.6-2.6-1-3c-0.8-0.7-2.2-0.6-3,0c-0.7,0.6-0.4,1.2-1,2c-1.1,1.5-3.9,2-5,1c-1-0.8,0.1-2.4-1-4
	c-0.8-1.1-1.6-0.7-3-2c-1-0.9-2.4-2.7-2-4c0.4-1.1,1.9-1.2,4-2c4.5-1.7,8.7-5.6,8.7-8.6c0-0.7-0.3-2.7-0.9-4.2
	c-0.1-0.1-0.1-0.3-0.2-0.4c-0.4-0.9-0.8-1.1-2.1-2.3c-0.2-0.2-0.4-0.4-0.6-0.5c0,0-0.4-0.2-1,0c-0.8,0.2-1.4,1.3-1.5,2.8
	c0,0.2,0.7,2.7,0,3.5c-0.4,0.5-1.3,0.2-2.1,0c-0.6-0.2-4.2-1.3-5.2-4.6c0-0.1-0.5-1.9,0-2.3c0.7-0.5,2.5,1.7,3.1,1.2
	c0.5-0.4-0.7-2.4,0-3.5c0.5-0.8,1.5-0.3,2.1-1.2c0.5-0.7,0.5-1.9,0-2.3c-0.6-0.5-1.6,0.5-2.1,0c-0.4-0.4,0.3-1.3,0-2.3
	c-0.4-1.3-2.3-0.8-3.1-2.3c-0.1-0.1-0.6-1.1-0.3-1.9c0.4-0.9,1.7-0.5,3.4-1.5c1.6-0.9,2.4-2.3,2.4-2.4c0,0-1.7,1.6-0.9,0.9
	c1.3-1.3,1.7-1.6,1.6-2c-0.1-0.4-0.7-0.5-2.1-1.2c-1-0.5-1.5-0.7-2.1-1.2c-0.3-0.2-2.1-1.7-2.1-3.5c0-1,0.6-1.2,1-2.3
	c0.5-1.4,0.3-2.5,0-4.6C44.3,83,44,81,44.8,79c0.8-2.1,1.7-1.7,2.1-3.5c0.6-3-2-5.6-1-6.9c0.6-0.8,1.9-0.4,2.1-1.2
	c0.2-0.8-1.3-1.6-1-2.3c0.2-0.7,1.7-0.3,2.1-1.2c0.4-1-1.5-2.1-1-3.5c0.1-0.2,0.6-0.7,1.6-1.7c0.4-0.4,0.7-0.6,1-1
	c0.3-0.4,0.3-0.5,0.5-0.7c0.8-0.9,1.8-0.5,2.1-1.2c0.3-0.6-0.2-1.8-1-2.3c-1.2-0.7-2.4,0.5-3.1,0C47.7,52.8,48.4,47.6,51,46.7z"/>
<path class="st0" d="M120.1,118.3c-0.3,0-0.5,0.4-0.7,0.7c-0.3,0.6-0.3,1.1-0.3,1.4c-0.2,0.5-0.4,0.9-0.7,1.4
	c-0.3,0.4-0.7,0.7-1,1.1c-0.1,0-0.2,0-0.3,0c0.4-0.1-0.9,0.3-1.3,0.4c-1.1,0.2-1.5-0.5-3.2-1.1c-0.7-0.2-2.4-0.8-2.8-0.2
	c-0.4,0.6,0.5,1.6,0,2.4c-0.3,0.5-1.2,0.7-1.7,0.4c-0.3-0.3-0.2-0.7-0.7-1.8c-0.1-0.2-0.2-0.4-0.5-0.8c-0.2-0.3-0.3-0.4-0.4-0.4
	c-0.3-0.1-0.6,0-0.8,0.2c-0.2,0.2-0.2,0.3-0.3,0.7c-0.2,0.6-0.5,1.4-0.7,1.4c-0.1,0-0.1-0.3-0.3-0.4c-0.1-0.1-0.2,0-0.3,0
	c-0.3,0-0.4-0.6-0.8-1c-0.2-0.2-0.4-0.4-0.9-0.6c-0.1,0-0.3,0-0.5,0c-0.2-0.1-0.3-0.2-0.4-0.2c-0.2-0.2-0.8-0.7-1.2-0.6
	c-0.3,0.1-0.2,0.5-0.5,0.7c-0.3,0.2-0.8,0-0.8,0c-0.4-0.1-0.7-0.2-0.9-0.3c-0.7-0.2-1-0.1-1.3-0.4c-0.2-0.2-0.2-0.3-0.4-0.4
	c-0.2-0.1-0.5-0.1-0.6,0.1c0,0,0,0-0.2,0.4c0-0.1,0.1,0.3,0,0.4c0,0,0,0-0.3,0c-0.6,0.1-0.9,0.1-1,0c0,0,0-0.1,0-0.4
	c0.1-0.7,0.1-0.9,0-1c-0.2-0.1-0.6,0.5-1,0.4c-0.3-0.1-0.4-0.4-0.7-0.9c0,0-0.1-0.2-0.3-0.6c-0.3-0.6-0.3-0.6-0.3-0.6
	c-0.2-0.7,0.8-1.2,0.6-1.8c-0.1-0.5-1-0.7-1-0.7c-0.7-0.1-1.1,0.2-1.3,0c-0.1-0.1-0.1-0.2,0-0.7c0.2-1,0.3-1.6,0.7-1.8
	c0.4-0.2,0.8,0.2,1,0c0.2-0.2,0-0.4,0-1.1c0-0.7,0.2-0.9,0-1.1c-0.2-0.2-0.7,0.2-1,0c-0.3-0.2-0.3-0.6-0.3-1.1
	c0-0.6-0.2-0.9-0.3-1.1c-0.2-0.1-0.6-0.3-0.7-0.6c0,0,0-0.1,0-0.1c-0.1-0.1-0.3-0.1-0.5-0.5c-0.1-0.2-0.3-0.5-0.3-0.9
	c0-0.1,0-0.3,0.3-0.7c0.5-0.8,0.9-0.8,1.1-1.3c0.2-0.5-0.2-0.7-0.1-1.6c0.1-0.6,0.3-0.6,0.2-1c0-0.3-0.2-0.7-0.2-0.7
	c0,0-0.2,0-0.7,0c-0.6-0.3-0.6-0.3-0.7-0.3c-0.2-0.3-0.1-0.7,0-1.4c0.1-0.5,0.2-0.7,0.3-1.1c0.4-0.7,0.8-0.7,0.9-1.3
	c0-0.1,0.1-0.4-0.1-0.7c-0.1-0.2-0.3-0.4-0.5-0.5c-0.5-0.3-0.8-0.1-1-0.3c-0.1-0.2-0.1-0.4,0-0.7c0.1-0.5,0.3-0.7,0.7-1.4
	c0.1-0.3,0.3-0.5,0.3-0.7c0.1-0.2,0.2-0.6,0.3-1.1c0.2-0.6,0.2-0.8,0.3-1.1c0.2-0.5,0.4-0.9,0.7-1.1c0.6-0.4,1,0.2,1.9-0.1
	c0.7-0.2,0.5-0.5,1.1-0.6c0.8-0.1,1.1,0.5,2.5,0.7c0.3,0.1,0.6,0.1,0.8,0c0.1,0,0.6-0.2,0.8-0.6c0.3-0.6-0.3-1.1-0.1-1.4
	c0.2-0.3,1.1-0.2,1.4,0.2c0.3,0.4-0.5,1-0.2,1.7c0,0.1,0.1,0.1,0.6,0.8c0.1,0,1.1,0.2,1.3,0.9c0.1,0.3,0.1,0.6,0.4,0.7
	c0.1,0,0.2,0,0.2,0c0.3-0.2,0.1-1-0.1-1.9c-0.1-0.5-0.2-0.8,0-1c0.1-0.1,0.3,0,0.6-0.2c0.2-0.1,0.1-0.1,0.3-0.2c0.4-0.2,1,0,1,0
	c0,0,0.6,1.1,1,1.1c0.2,0,0.3-0.4,0.3-0.4c-0.1-0.9,0-1.1,0-1.1c0.1-0.4,0.6-0.6,0.7-0.7c0.4-0.2,0.9-0.3,1.3,0
	c0.5,0.3,0.5,0.9,0.8,0.8c0.2,0,0.2-0.5,0.5-0.7c0.2-0.1,0.4,0,0.9,0.3c0.2,0.1,0.4,0.2,0.6,0.5c0.1,0.1,0.1,0.2,0.3,0.4
	c0.2,0.4,0.3,0.5,0.3,0.6c0,0.4-0.3,0.7-0.2,0.9c0.1,0.1,0.2,0.1,0.3,0.1c0.3,0,0.6-0.1,1.1-0.4c0.6-0.4,0.5-0.5,0.8-0.6
	c0.1-0.1,0.7-0.3,1.1-0.1c0.5,0.3,0.6,1.1,0.6,1.1c0,0,0,0,0,0c-0.1-0.1,0-0.2,0-0.3c0.6-0.2,0.7-0.3,0.8-0.3c0,0,0,0,0,0
	c0.2-0.1,0.5,0,0.7,0.2c0.2,0.2,0.2,0.6-0.1,1c-0.1,0.8-0.1,1,0,1.1c0.1,0.2,0.4,0,1,0c0.3,0,0.6,0,1,0c0.4-0.1,0.8-0.2,1.1-0.3
	c0,0,0.4,0,0.7,0.3c0.3,0.4,0.2,0.8,0.1,0.8c0.2,0.6,0.2,0.7,0.3,0.8c0.2,0.2,0.6,0.1,0.8,0c0.2-0.2,0.1-0.3,0.2-0.6
	c0.3-0.4,1-0.6,1.4-0.3c0.3,0.2,0,0.7,0.3,1.1c0.2,0.3,0.4,0.2,0.8,0.5c0.3,0.2,0.7,0.7,0.6,1.1c-0.1,0.4-0.7,0.6-1.1,0.6
	c0,0-0.2-0.1-0.6-0.2c0,0-0.5,0.1-0.7,0.4c0,0,0,0.1,0,0.7c0.2,1.4,0.4,1.8,0.7,1.8c0.4,0.1,0.6-0.7,1.3-0.8c0.3,0,0.3,0.1,1,0.3
	c0.7,0.2,0.9,0.2,1,0.3c0.3,0.4,0.1,1.3-0.3,1.8c-0.1,0.1-0.3,0.2-0.7,0.4c-0.3,0.1-0.6,0.2-1.1,0.4c-0.4,0.1-0.5,0.2-0.6,0.3
	c-0.1,0.2-0.1,0.5,0,0.6c0.2,0.1,0.4-0.2,0.6,0c0.1,0.1-0.1,0.4,0,0.6c0.1,0.3,0.6,0.2,0.9,0.6c0,0,0.2,0.3,0.1,0.5
	c-0.1,0.3-0.8,0.2-0.9,0.5c0,0.1-0.1,0.3-0.1,0.3c0,0,0,0.4,0,0.4c-0.2,0.6-0.2,0.6-0.2,0.7c0.1,0.1,0.2,0,0.6,0.3
	c0.1,0.1,0.6,0.4,0.6,0.9c0,0.1-0.1,0.3-0.3,0.6c-0.1,0.1-0.2,0.4-0.4,0.6c-0.1,0.2-0.4,0.5-0.7,0.7c-0.8,0.5-2-0.8-2.4-0.3
	c-0.3,0.3,0,1,0,1.1c0.2,0.6,0.6,0.6,0.7,1.1c0.1,0.4-0.2,0.4-0.3,1.1c-0.1,0.6,0,1.2,0,1.4c0.1,0.3,0.1,0.3,0.3,1.1
	c0.3,1,0.2,1,0.3,1.1c0.2,0.2,1.5,0.1,2.4,0.3c0.6,0.1,0.7,0.3,0.7,0.4c0.2,0.3,0,0.9-0.3,1.1c-0.4,0.2-1.3-0.1-1.4,0
	c0,0.1-0.1,0.1-0.1,0.1c0,0,0,0.1-0.1,0.1c-0.2,0.3-0.5,0.2-0.6,0.3c-0.1,0.2,0.3,0.3,0.3,0.6c0,0.3-0.3,0.6-0.6,0.6
	C120.9,119.4,120.7,118.3,120.1,118.3z"/>
<path class="st0" d="M297.7,146.4c-0.9,0.1-1.5,1.1-2,2c-0.9,1.6-1,3.2-1,4c-0.7,1.3-1.3,2.7-2,4c-1,1-2,2-3,3c-0.3,0-0.7,0-1,0
	c1.3-0.3-2.7,0.8-4,1c-3.2,0.5-4.5-1.5-9.6-3.2c-2.2-0.7-7.1-2.3-8.5-0.5c-1.3,1.6,1.5,4.6,0,6.7c-1,1.5-3.7,1.9-5,1
	c-1-0.7-0.5-1.9-2-5c-0.3-0.7-0.7-1.2-1.5-2.3c-0.6-0.9-0.8-1.1-1.2-1.3c-0.8-0.3-1.8,0-2.4,0.6c-0.5,0.4-0.6,0.9-1,2
	c-0.6,1.8-1.4,4.1-2,4c-0.3,0-0.3-0.7-1-1c-0.4-0.2-0.6,0-1,0c-1-0.1-1.3-1.7-2.4-2.9c-0.5-0.5-1.2-1.2-2.6-1.7
	c-0.4,0-0.9,0.1-1.5-0.1c-0.6-0.2-0.9-0.5-1.1-0.7c-0.7-0.6-2.5-2.1-3.5-1.7c-0.9,0.4-0.6,1.4-1.6,1.9c-1,0.5-2.5,0.1-2.5,0.1
	c-1.1-0.4-2-0.6-2.6-0.8c-2.1-0.5-3-0.4-3.7-1.2c-0.5-0.6-0.5-1-1.1-1.3c-0.6-0.3-1.5-0.2-1.9,0.3c0,0-0.1,0.1-0.6,1
	c0-0.3,0.2,0.8,0,1c0,0-0.1,0.1-1,0c-1.8,0.2-2.8,0.4-3,0c0-0.1,0-0.4,0-1c0.3-2.1,0.4-2.7,0.1-2.8c-0.6-0.4-1.7,1.5-2.9,1.1
	c-0.8-0.2-1.3-1.1-2.2-2.7c0-0.1-0.3-0.6-0.9-1.8c-0.9-1.8-0.9-1.7-0.9-1.8c-0.5-2,2.3-3.3,1.9-5.1c-0.4-1.5-2.9-2-3-2
	c-2-0.4-3.4,0.7-4,0c-0.2-0.2-0.3-0.5,0-2c0.6-3,0.9-4.5,2-5c1.2-0.5,2.4,0.6,3,0c0.5-0.4,0-1.1,0-3c0-1.9,0.5-2.6,0-3
	c-0.7-0.6-2,0.6-3,0c-0.9-0.5-1-1.8-1-3c0-1.8-0.5-2.6-1-3c-0.5-0.4-1.8-1-2.1-1.7c0,0-0.1-0.2-0.1-0.3c-0.3-0.4-0.8-0.4-1.6-1.5
	c-0.4-0.5-1-1.3-1-2.4c0-0.2,0-0.9,0.8-2.1c1.5-2.4,2.8-2.4,3.2-3.8c0.5-1.5-0.6-1.9-0.2-4.5c0.2-1.6,0.8-1.7,0.7-2.8
	c-0.1-0.9-0.7-2-0.7-2c0,0-0.7,0-2,0c-1.7-0.8-1.8-0.8-2-1c-0.7-0.8-0.4-2.1,0-4c0.3-1.3,0.5-2.1,1-3c1.2-2,2.5-2,2.8-3.7
	c0.1-0.3,0.2-1.2-0.2-2c-0.4-0.7-1-1-1.6-1.3c-1.6-0.8-2.5-0.3-3-1c-0.4-0.5-0.2-1.1,0-2c0.3-1.4,1-2.1,2-4c0.4-0.8,0.8-1.5,1-2
	c0.2-0.7,0.6-1.7,1-3c0.5-1.7,0.6-2.2,1-3c0.7-1.5,1.1-2.4,2-3c1.7-1.1,3.1,0.5,5.8-0.3c2-0.6,1.6-1.5,3.2-1.7
	c2.4-0.4,3.3,1.4,7.5,2c1,0.2,1.7,0.2,2.5-0.1c0.4-0.1,1.8-0.6,2.4-1.7c0.8-1.6-0.9-3.1-0.2-3.9c0.7-0.8,3.2-0.6,4.1,0.6
	c0.9,1.2-1.4,2.8-0.6,4.7c0.1,0.3,0.2,0.3,1.7,2.3c0.2,0.1,3.2,0.7,4,2.6c0.3,0.7,0.4,1.7,1.1,1.9c0.2,0.1,0.5,0,0.7-0.1
	c0.8-0.6,0.4-2.8-0.3-5.4c-0.3-1.4-0.6-2.3-0.1-2.7c0.4-0.3,0.9,0,1.7-0.5c0.5-0.2,0.4-0.3,0.8-0.6c1.2-0.7,2.9-0.1,2.9-0.1
	c0,0,1.9,3.3,3,3c0.5-0.1,1-1,1-1c-0.2-2.5,0-3,0-3c0.4-1.2,1.7-1.8,2-2c1.1-0.6,2.8-0.7,4,0c1.4,0.9,1.6,2.5,2.3,2.4
	c0.7-0.1,0.6-1.5,1.6-1.9c0.6-0.3,1.3,0.1,2.6,0.8c0.6,0.3,1.2,0.7,1.8,1.3c0.2,0.3,0.4,0.6,0.8,1.3c0.6,1,0.9,1.5,0.9,1.8
	c0,1.2-1,1.9-0.7,2.4c0.2,0.2,0.5,0.3,0.8,0.3c0.9,0.1,1.8-0.3,3.2-1.3c1.3-0.9,1.5-1.2,1.9-1.5c0.2-0.1,0.4-0.2,0.4-0.2
	c0,0,0.7-0.3,3.5-2.2c0.1-0.3,0.6-1.4,2-2c1.5-0.6,2.8-0.1,3,0l0,0c0,0,2.7,1.9,3,4c0.1,0.6,0,1.6-1,3c0.7,1.3,1,2,1,2s0.7,0.7,2,2
	c0.7,0,1.3,0,2,0c1,0,2,0,3,0c0.1,0,1.3,0,2,1c0.8,1,0.5,2.2,0.4,2.3c0.5,1.7,0.6,2,0.9,2.3c0.7,0.5,1.8,0.4,2.5-0.1
	c0.6-0.5,0.3-1,0.7-1.6c0.8-1.2,3.1-1.7,4.1-1c0.8,0.6,0,1.9,1,3.1c0.7,0.8,1.3,0.5,2.5,1.5c0.8,0.7,2.1,2,1.8,3.1
	c-0.3,1.2-2,1.8-3.2,1.7c-0.1,0-0.7-0.2-1.8-0.4c0,0-1.5,0.2-2,1c0,0-0.1,0.2,0,2c0.5,4,1.3,5.1,2.1,5.2c1.2,0.2,1.9-2.1,4-2.2
	c0.8,0,0.8,0.3,3,1c2.2,0.7,2.6,0.5,3,1c1,1.2,0.4,3.8-1,5c-0.3,0.3-0.9,0.5-2,1c-0.9,0.4-1.7,0.6-3.3,1.2c-1.1,0.4-1.4,0.6-1.7,1
	c-0.4,0.6-0.3,1.5,0.1,1.8c0.5,0.4,1.3-0.4,1.7-0.1c0.4,0.3-0.2,1.1,0.1,1.8c0.4,1,1.9,0.6,2.6,1.7c0.1,0.1,0.6,0.9,0.3,1.5
	c-0.4,0.9-2.4,0.5-2.7,1.3c-0.1,0.2-0.2,0.7-0.2,0.7c0,0,0,1,0,1c-0.6,1.7-0.6,1.8-0.5,1.9c0.2,0.3,0.7,0.1,1.7,0.8
	c0.2,0.2,1.8,1.2,1.8,2.6c0,0.4-0.2,0.9-0.8,1.9c-0.2,0.4-0.6,1.1-1.2,1.9c-0.4,0.5-1.2,1.5-2.1,1.9c-2.5,1.3-5.9-2.2-7-1
	c-0.8,0.8-0.1,2.9,0,3c0.6,1.6,1.8,1.7,2,3c0.2,1-0.6,1.2-1,3c-0.4,1.8-0.1,3.3,0,4c0.2,0.8,0.2,0.7,1,3c0.9,2.8,0.8,2.7,1,3
	c0.5,0.5,4.5,0.4,7,1c1.7,0.4,2,0.9,2,1c0.5,0.9,0,2.5-1,3c-1.3,0.7-4-0.3-4.2,0c-0.1,0.2-0.2,0.2-0.2,0.2c-0.1,0.1-0.1,0.2-0.2,0.3
	c-0.6,0.7-1.4,0.5-1.7,1c-0.2,0.5,0.9,1,0.9,1.8c0,0.7-0.9,1.6-1.8,1.6C300,149.5,299.3,146.3,297.7,146.4z"/>
<path class="st0" d="M232.9,94.9c0.4,0,0.7-0.6,1-1c0.4-0.8,0.5-1.6,0.4-2c0.3-0.7,0.6-1.3,0.9-2c0.5-0.5,1-1,1.5-1.5
	c0.2,0,0.3,0,0.5,0c-0.7,0.2,1.3-0.4,2-0.6c1.6-0.3,2.2,0.7,4.8,1.4c1.1,0.3,3.5,1,4.2,0.1c0.6-0.8-0.8-2.2-0.1-3.3
	c0.5-0.7,1.8-1,2.5-0.6c0.5,0.3,0.3,0.9,1.1,2.4c0.2,0.3,0.4,0.6,0.7,1.1c0.3,0.4,0.4,0.5,0.6,0.6c0.4,0.1,0.9,0,1.2-0.3
	c0.2-0.2,0.3-0.5,0.5-1c0.3-0.9,0.6-2,0.9-2c0.2,0,0.2,0.4,0.5,0.5c0.2,0.1,0.3,0,0.5,0c0.5,0,0.7,0.8,1.2,1.4
	c0.2,0.3,0.6,0.6,1.3,0.8c0.2,0,0.4,0,0.7,0c0.3,0.1,0.5,0.2,0.6,0.3c0.4,0.3,1.3,1,1.7,0.7c0.4-0.2,0.3-0.7,0.8-0.9
	c0.5-0.3,1.3-0.1,1.3-0.1c0.5,0.2,1,0.3,1.3,0.3c1.1,0.2,1.5,0.1,1.9,0.5c0.3,0.3,0.2,0.5,0.5,0.6c0.3,0.1,0.7,0.1,1-0.2
	c0,0,0,0,0.3-0.5c0,0.2-0.1-0.4,0-0.5c0,0,0,0,0.5,0c0.9-0.1,1.4-0.3,1.5-0.1c0,0,0,0.2,0,0.5c-0.1,1-0.2,1.3,0,1.4
	c0.3,0.2,0.8-0.7,1.4-0.6c0.4,0.1,0.6,0.5,1.1,1.3c0,0,0.2,0.3,0.5,0.8c0.5,0.8,0.5,0.8,0.5,0.8c0.3,0.9-1.1,1.7-0.9,2.5
	c0.2,0.7,1.5,0.9,1.5,0.9c1,0.2,1.7-0.4,2-0.1c0.1,0.1,0.1,0.2,0,1c-0.2,1.4-0.4,2.2-0.9,2.5c-0.6,0.3-1.2-0.3-1.5,0.1
	c-0.2,0.2,0,0.5,0,1.5c0,0.9-0.2,1.3,0,1.5c0.3,0.3,1-0.3,1.5-0.1c0.4,0.2,0.5,0.9,0.5,1.4c0,0.9,0.3,1.3,0.5,1.4
	c0.2,0.2,0.9,0.4,1,0.8c0,0,0,0.1,0.1,0.1c0.2,0.2,0.4,0.2,0.8,0.7c0.2,0.2,0.5,0.6,0.5,1.2c0,0.1,0,0.4-0.4,1
	c-0.7,1.2-1.3,1.2-1.5,1.9c-0.2,0.7,0.3,0.9,0.2,2.2c-0.1,0.8-0.4,0.9-0.3,1.4c0.1,0.5,0.4,1,0.4,1c0,0,0.3,0,1,0
	c0.9,0.3,0.9,0.4,1,0.5c0.4,0.4,0.2,1,0.1,1.9c-0.1,0.6-0.2,1-0.5,1.5c-0.5,1-1.2,1-1.4,1.9c0,0.1-0.1,0.6,0.1,1
	c0.2,0.3,0.5,0.5,0.8,0.6c0.8,0.3,1.2,0.1,1.5,0.4c0.2,0.2,0.1,0.5,0,1c-0.1,0.7-0.5,1-0.9,2c-0.2,0.4-0.4,0.7-0.5,1
	c-0.1,0.3-0.3,0.8-0.5,1.5c-0.2,0.9-0.3,1.1-0.5,1.5c-0.3,0.7-0.5,1.2-1,1.5c-0.8,0.5-1.5-0.2-2.9,0.2c-1,0.3-0.8,0.7-1.6,0.9
	c-1.2,0.2-1.6-0.6-3.7-0.8c-0.5-0.1-0.9,0-1.2,0.1c-0.2,0.1-0.9,0.3-1.2,0.9c-0.4,0.8,0.5,1.5,0.1,1.9c-0.3,0.4-1.6,0.4-2-0.2
	c-0.5-0.6,0.7-1.4,0.2-2.3c-0.1-0.1-0.1-0.2-0.9-1.1c-0.1-0.1-0.4-0.2-0.7-0.3c-0.2-0.1-0.6-0.1-1,0c-0.6,0.2-0.9,1.1-1,1
	c0,0,0-0.1,0-0.1c0,0,0.4,1,0.1,1.3c-0.2,0.1-0.4,0-0.9,0.3c-0.2,0.1-0.2,0.2-0.4,0.3c-0.6,0.3-1.4,0.1-1.4,0.1c0,0-1-1.6-1.5-1.4
	c-0.2,0.1-0.5,0.5-0.5,0.5c0.1,1.2,0,1.5,0,1.5c-0.2,0.6-0.8,0.9-1,1c-0.6,0.3-1.4,0.4-2,0.1c-0.7-0.4-0.8-1.2-1.2-1.1
	c-0.3,0-0.3,0.7-0.8,0.9c-0.3,0.1-0.7,0-1.3-0.3c-0.3-0.1-0.6-0.3-0.9-0.6c-0.1-0.1-0.2-0.3-0.4-0.6c-0.3-0.5-0.5-0.7-0.5-0.8
	c0-0.6,0.5-0.9,0.3-1.2c-0.1-0.1-0.2-0.1-0.4-0.1c-0.5,0-0.9,0.2-1.6,0.7c-0.8,0.6-0.7,0.7-1.2,0.9c-0.2,0.1-1,0.4-1.6,0.1
	c-0.7-0.4-0.9-1.5-0.9-1.5c0,0,0,0,0,0c0.1,0.1,0,0.3,0,0.4c-0.9,0.3-1.1,0.4-1.2,0.5c0,0,0,0,0,0c-0.2,0.2-0.8,0-1-0.2
	c-0.3-0.3-0.3-0.9,0.1-1.4c0.1-1.2,0.1-1.3,0-1.5c-0.2-0.2-0.5,0-1.5,0.1c-0.4,0-0.9,0-1.5,0.1c-0.6,0.1-1.2,0.3-1.5,0.4
	c-0.1,0-0.6,0-1-0.5c-0.4-0.5-0.3-1-0.2-1.1c-0.3-0.8-0.3-1-0.5-1.1c-0.3-0.2-0.9-0.2-1.2,0.1c-0.3,0.2-0.1,0.5-0.3,0.8
	c-0.4,0.6-1.5,0.9-2,0.5c-0.4-0.3,0-0.9-0.5-1.5c-0.3-0.4-0.7-0.2-1.3-0.7c-0.4-0.3-1-0.9-0.9-1.5c0.1-0.6,1-0.9,1.6-0.9
	c0.1,0,0.3,0.1,0.9,0.2c0,0,0.8-0.1,1-0.5c0,0,0.1-0.1,0-1c-0.3-1.9-0.7-2.4-1.1-2.5c-0.6-0.1-0.9,1-1.9,1.1c-0.4,0-0.4-0.1-1.5-0.4
	c-1.1-0.3-1.3-0.2-1.5-0.4c-0.5-0.5-0.3-1.8,0.4-2.4c0.2-0.2,0.4-0.3,1-0.5c0.4-0.2,0.8-0.3,1.6-0.7c0.5-0.2,0.7-0.3,0.8-0.5
	c0.2-0.3,0.1-0.7-0.1-0.9c-0.2-0.2-0.6,0.2-0.8,0.1c-0.2-0.1,0.1-0.5-0.1-0.9c-0.2-0.5-0.9-0.2-1.3-0.8c0,0-0.3-0.4-0.2-0.7
	c0.2-0.4,1.2-0.3,1.3-0.7c0-0.1,0.1-0.4,0.1-0.4c0,0,0-0.5,0-0.5c0.3-0.8,0.3-0.9,0.2-1c-0.1-0.2-0.4-0.1-0.9-0.4
	c-0.1-0.1-0.9-0.6-0.9-1.2c0-0.2,0.1-0.4,0.4-0.9c0.1-0.2,0.3-0.5,0.6-0.9c0.2-0.2,0.6-0.7,1-1c1.2-0.7,2.9,0.9,3.5,0.4
	c0.4-0.4,0-1.4,0-1.5c-0.3-0.8-0.9-0.8-1-1.4c-0.1-0.5,0.3-0.6,0.5-1.5c0.2-0.9,0-1.6-0.1-1.9c-0.1-0.4-0.1-0.4-0.5-1.4
	c-0.5-1.3-0.4-1.3-0.5-1.4c-0.2-0.2-2.2-0.1-3.5-0.4c-0.8-0.2-1-0.4-1-0.5c-0.2-0.4,0-1.2,0.5-1.5c0.6-0.3,2,0.1,2.1-0.1
	c0.1-0.1,0.1-0.1,0.1-0.1c0-0.1,0.1-0.1,0.1-0.2c0.3-0.4,0.7-0.3,0.8-0.5c0.1-0.2-0.5-0.4-0.5-0.8c0-0.3,0.4-0.8,0.8-0.8
	C231.8,93.4,232.1,94.9,232.9,94.9z"/>
<path class="st0" d="M361.7,78.1c0.5-0.8,1-1.5,2-2c1.2-0.6,2.8-0.6,4,0c1,0.5,1.2,1,2,1c0.7,0,1.3-0.4,2-1c1.3-1,1.2-1.6,2-2
	c1.1-0.6,2.4-0.2,3,0c1.5,0.4,2.5,1.4,3,2c1.1,1.1,1.3,1.9,2,2c0,0,0.3,0,2-1c0,0,2,1,2,1c0,0,1.4-0.4,2-1c1.2-1.2-0.1-3.2,1-4
	c0.5-0.4,1.5-0.4,2,0c0.7,0.5,0.3,1.3,1,2c0.7,0.7,1.4,0.3,2,1c0.8,0.8,0.7,2.5,0,3c-0.5,0.4-1-0.2-2,0c-1.1,0.3-2.1,1.2-2,2
	c0.1,0.6,0.9,0.9,1,1c1.2,0.5,2.1-0.4,3,0c0.9,0.4,1.5,2.1,1,3c-1,1.8-6,1.2-8,1c-3-0.3-5-1.1-6,0c-0.6,0.7-0.3,1.8-1,2
	c-0.9,0.3-1.9-1.3-3-1c-0.5,0.1-0.8,0.6-1,1c-0.3,0.1-1.1,0.3-1.6,1c-0.3,0.4-0.4,0.8-0.4,1c0,0.1-0.1,0.5,0,1c0.2,1.2,1.1,1.4,1,2
	c-0.1,0.6-1.1,1.1-2,1c-0.8-0.1-1-0.6-2-1c-0.8-0.3-2.3-0.6-3,0c-0.7,0.6,0.1,1.8,0,4c-0.1,2.9-1.7,3.9-1,5c0.8,1.3,3.3,0.5,4,2
	c0.3,0.6-0.2,0.6,0,2c0.1,1.1,0.5,1.9,0.1,2.8c0,0.1-0.1,0.1-0.1,0.2c-0.6,0.8-2,1-2,1c-0.3,0.3-0.8,1-1,2c-0.1,0.3-0.2,1.1,0,1.9
	c0,0,0,0.1,0,0.1c0.3,0.8,2.7,0.2,3,1c0.3,0.6-1,2-1,2c0,0-1.5,1.4-2,3c-0.2,0.8,0,0.8,0,4c0,1.8-0.1,1.7,0,2c0.4,1.8,1.7,1.7,3,4
	c0.4,0.8,1,1.7,1,3c0,1.1-0.3,1.6,0,2c0.3,0.3,0.8,0.4,4,0c2-0.3,2.5-0.4,3,0c0.7,0.6,1,2,1,2c2.7,0.9,3,1,3,1c0.2,0,0.6,0,1,0
	c1.7,0,1.8-0.1,2,0c1.1,0.6,0.1,3.7,1,4c0.5,0.2,0.8-0.5,2-1c1.4-0.6,3.5-1,5,0c1.2,0.8,1,1.8,2,2c0.8,0.2,1.7-0.3,3-1
	c1.3-0.7,1.4-1,2-1c1.1,0,2.2,1.2,2,2c-0.1,0.3-0.3,0.3-0.4,0.6c-0.2,0.5,0.1,1.1,0.4,1.4c1,1,2.7-0.5,5,0c1.5,0.3,2.4,1.4,3,2
	c2.1,2.3,1.6,4.5,3,5c1.3,0.4,2.1-1.3,4-1c1.4,0.2,3,1.5,3,3c0,1.2-1,2-1,2c-1.4,1.1-3.7,0.4-5,0c-2.9-0.9-3.5-2.3-5-2
	c-1.5,0.3-1.4,1.8-3,2c-1.2,0.2-1.6-0.7-4-1c-0.9-0.1-1.4-0.2-2,0c-1.6,0.4-1.5,1.6-3,2c-1.3,0.4-3,0-3,0c-2.5,1.1-3,1-3,1
	c-0.7-0.1-1.1-0.8-2-2c-1.2-1.6-1.2-2.3-1.7-2.7c-0.1-0.1-0.2-0.2-0.3-0.3c-0.8-0.4-1.5,0.7-3,1c-1.4,0.3-2.1-0.6-3,0
	c-0.5,0.3-0.4,0.7-1,1c-0.5,0.3-1.4,0.4-2,0c-1.1-0.9,0-3.4-1-4c-0.3-0.2-0.7-0.1-1,0c-1.1,0.3-1.2,1.3-2,2c-1.6,1.3-4.5,0.2-5,0
	c-1.1-0.4-1.8-1-3-2c-1.5-1.3-3-3-3-3l0,0c-2.8-1.5-2.9-1.7-3-2c-0.4-0.9,0-1.9,0-2c0.3-0.8,0.8-1.1,1-2c0.1-0.4,0.1-0.7,0-1
	c-0.5-1.3-3.2-0.6-4-2c-0.4-0.6-0.3-1.4,0-2c0.9-1.6,3.7-1,4-2c0.2-0.8-1.4-1.2-2-3c-0.4-1.1,0.1-1.6,0-3c-0.1-2.5-1.6-4.4-2-5
	c-1.3-1.6-2.3-1.8-4-4c-0.2-0.2-0.7-0.9-1-2c-0.2-0.7-0.4-1.5,0-2c0.5-0.7,1.6-0.3,2-1c0.4-0.6-0.3-1.1,0-2c0.3-1,1.3-0.9,2-2
	c0.6-1.1,0.6-2.6,0-3c-0.6-0.4-1.2,0.4-2,0c-0.9-0.4-1.2-2-1-3c0-0.3,0.2-1.3,1-2c0.9-0.7,1.7-0.4,2-1c0.2-0.6-0.3-1.5-1-2
	c-1-0.7-1.8-0.2-3-1c-0.4-0.3-0.8-0.5-1-1c-0.5-1.1,0.6-1.9,1-4c0.3-1.6-0.3-1.6,0-3c0.5-2.2,2.1-2.5,2-4c0-0.3-0.1-0.6-2-3
	c-1.6-2-1.9-2.3-2-3c-0.1-1.4,1-3,2-3c0.7,0,1.1,0.7,2,2c1.3,1.8,1.2,2.7,2,3c1,0.4,2.3-0.3,3-1C360.8,81,360.3,80.1,361.7,78.1z"/>
<path class="st0" d="M458.8,75.3c0.9-0.3,2.4-0.7,3,0c0.4,0.5,0.4,1.4,0,2c-0.8,1-2.4,0.1-3,1c-0.6,0.8,0.5,1.7,0,3
	c-0.4,1.1-1.8,1.9-3,2c-1,0.1-1.4-0.3-2,0c-0.7,0.4-0.3,1.1-1,2c-1,1.3-2.8,1-3,2c0,0,0,0,0,1c0,0.3,0,0.7,0,1c0,1,0,2,0,3s0,2,0,3
	c-0.1,3.3-0.7,4.3,0,5c0.7,0.7,1.8,0.3,2,1c0.2,0.5-0.4,1.2-1,2c-1.1,1.4-1.7,1.3-2,2c-0.5,1.3,1.2,2.1,1,4c-0.2,1.5-1.2,1.8-1,3
	c0.2,0.9,1,1.1,1,2c0.1,1-0.7,1.7-1,2c-0.8,0.7-2.2,1.5-3,1c-0.9-0.6-0.1-2.3-1-3c-0.9-0.6-2.2,0.6-3,0c-0.9-0.6-0.6-2.7,0-4
	c0.7-1.7,1.6-1.6,2-3c0.5-1.6-0.7-2.2-1-5c-0.3-2.9,0.8-3.6,0-5c-1.1-1.9-3.7-1.5-4-3c-0.2-1,1-1.4,1-3c0-1.4-0.8-1.6-1-3
	c-0.2-1.9,1.2-4.1,3-5c1.8-0.9,3,0,4-1c1-1.1,0-2.4,1-4c0.9-1.4,2.7-2,4-2c2,0,2.3,1.2,4,1C456.4,77.1,456.4,76.1,458.8,75.3z"/>
<path class="st0" d="M449.8,123.3c0.4,0.2,0.6,0.4,1,1c1.3,1.8,1.9,2.7,2,3c0.3,1.2-0.3,1.4,0,3c0.1,0.7,0.3,1.6,1,2
	c0.6,0.3,0.9-0.2,2,0c0.9,0.2,1.6,0.7,2,1c0.5,0.4,0.7,0.7,1,1c1.3,1.4,3.4,2.1,5,2c0.8-0.1,1.3-0.3,2,0c0.9,0.4,1,1.2,2,2
	c0.8,0.6,1.5,0.9,2,1c1.9,0.6,2.4-0.3,5,0c0,0,1.5,0.1,3,1c0.4,0.2,0.8,0.5,1,1c0,0.1,0.2,0.6,0,1c-0.2,0.5-0.7,0.5-1,1
	c-0.1,0.3-0.2,0.7,0,1c0.4,0.5,1.4,0.4,2,0c0.3-0.2,0.5-0.4,1-1c0.5-0.6,0.6-0.9,1-1c0.4-0.1,0.7-0.1,1,0c2.1,0.5,3,1,3,1
	c2.6,1.4,3.9,2.1,4,3c0.1,0.8-0.4,1.7-1,2c-0.7,0.4-2,0-2,0l0,0c0.7-0.3-1.4,0.6-2,1c-1.3,0.7-1.6,1.1-2,1c-0.6-0.2-0.5-0.9-1-1
	c-0.8-0.1-2,2-2,2l0,0c0,0-2.4,0.7-3,0c-0.4-0.5,0.4-1.1,0-2c-0.3-0.7-1.4-1.2-2-1c-0.6,0.2-0.5,0.8-1,1c-0.5,0.2-0.9-0.4-2-1
	c-1-0.6-2-1.2-3-1c-1,0.2-2,1-2,1l0,0c0,0-1.2,1.2-2,1c-1.5-0.4-1.1-3.2-3-4c-0.1,0-1.1-0.4-2,0c-1,0.5-0.9,1.5-2,2
	c-0.7,0.3-1.5,0.1-2,0c-0.8-0.2-0.8-0.4-2-1c-1.4-0.6-1.9-0.6-2-1c-0.2-0.7,1.1-1.2,1-2c-0.1-0.6-0.8-0.9-1-1c-1.3-0.6-2.3,0.5-3,0
	c-0.8-0.6-0.7-2.7,0-3c0.4-0.2,0.7,0.2,1,0c0.4-0.3,0.4-1.3,0-2c-0.1-0.2-0.4-0.8-1-1c-0.9-0.4-1.6,0.4-2,0c-0.5-0.4-0.1-1.7,0-2
	c0.3-1,0.7-1.1,1-2c0.2-0.6,0-0.7,0-2c-0.1-2.2,0.3-2.3,0-3c-0.4-0.9-0.9-0.7-2-2c-0.6-0.7-1-1.3-1-2c0.1-1.2,1.4-2.2,2-2
	c0.6,0.2,0.2,1.6,1,2C448.4,123.7,449,123,449.8,123.3z"/>
<path class="st0" d="M517.8,84.9c0,0.2,0,0.6,0,1c0,0.6-0.2,0.9,0,1c0.2,0.2,0.7-0.2,1,0c0.2,0.2,0.2,0.7,0,1c-0.3,0.5-0.7,0.5-1,1
	c-0.2,0.3-0.2,0.8,0,1c0.2,0.1,0.4,0.1,1,0l0,0l0,0c0.9-0.1,1,0,1,0c0.1,0.1,0.2,0.3,0,1l0,0c0,0.9,0,1,0,1c0.2,0.6,0.7,0.5,1,1
	c0.4,0.7-0.4,1.2,0,2c0.3,0.6,0.8,0.5,1,1c0.2,0.6-0.6,1-1,2c-0.6,1.5,0,3.6,1,4c0.1,0,0.6,0.2,1,0c0.7-0.4,0.3-1.7,1-2
	c0.3-0.2,0.5,0.1,1,0c0.5-0.1,1-0.6,1-1c0-0.9-2.1-1.3-2-2c0-0.4,0.7-0.4,1-1c0.3-0.8-0.4-1.3,0-2c0.3-0.5,0.8-0.4,1-1
	c0.1-0.2,0-0.3,0-1c0,0,0-0.3,0-1c0-2,0-1.9,0-2c-0.2-1.2-1-1.2-1-2c0-0.9,0.9-1,1-2c0-0.6-0.3-1.1-1-2c-0.9-1.2-1.3-1.8-2-2
	c-0.9-0.2-1.6,0.2-3,1c-0.6,0.4-0.9,0.6-1,1c-0.1,0.4,0.1,0.6,0,1C518.7,84.3,518.4,84.6,517.8,84.9z"/>
<path class="st0" d="M531.8,131.9L531.8,131.9c0,0,1.5,0.7,2,1c1.4,0.9,2.2,0.5,4,1c2.5,0.7,2.2,1.9,5,3c1.3,0.5,2.5,0.7,4,1
	c1.8,0.3,2.7,0.3,4,1c0.6,0.3,2,1.1,2,2c0,1-1.9,1.8-3,2c-2.4,0.6-4.7-0.4-6-1c-1.1-0.5-0.9-0.6-2-1c-1.3-0.5-3-1.2-5-1
	c-2.1,0.2-2.7,1.5-4,1c-0.5-0.2-1-0.8-2-2c-0.9-1.1-1.5-2.1-2-3c-0.5-0.9-0.8-1.4-1-2c-0.2-0.7-0.6-1.9,0-3c0.2-0.3,0.5-0.9,1-1
	C528.8,129.9,529.4,129.7,531.8,131.9z"/>
<path class="st0" d="M543.6,75c-0.2-0.9,1.2-2.2,2-2c0.3,0.1,0.3,0.2,1,1c0.8,0.8,0.8,0.7,1,1c0.5,0.8-0.1,1.3,0,3
	c0.1,1.1,0.3,1.7,0,2c-0.2,0.2-0.7,0.1-1,0c-1.2-0.6-0.5-2.5-2-4C544,75.4,543.6,75.4,543.6,75z"/>
<path class="st0" d="M554.6,124c-0.1-0.7,0.3-1.6,1-2c0.8-0.5,1.9,0,4,1c2,0.9,3,1.4,3,2c0,1-2.2,2.3-4,2c-0.6-0.1-1.1-0.4-2-1
	C555.4,125.2,554.7,124.7,554.6,124z"/>
<path class="st0" d="M607.1,71.6c-1-1-0.1-2.4-1-3c-0.7-0.5-2,0-2.7,0.5c-0.9,0.7-0.7,1.3-1.5,1.6c-0.7,0.3-1.4,0.1-2.2-0.2
	c-1.6-0.5-1.6-1-2.6-1.2c-1.2-0.1-2.3,0.7-2.8,1.1c-1.2,0.9-1.8,2.3-2.1,2.9c0,0.1-0.1,0.1-0.1,0.2l0,0c-0.3,0-0.7,0-1,0l0,0
	c-0.1,0-0.8-0.3-1-1c-0.2-0.5,0-0.9,0-1c-0.2-0.3-0.5-0.6-1-1c-0.5-0.4-1.7-1.3-3-1c-0.9,0.2-1.4,1.1-2,2c-0.6,1-0.8,1.8-1,3
	c-0.3,1.5-0.5,2.3,0,3c0,0,0,0,1,1c1,1,1,1,1,1c0.7,0.7,1,0.8,1,1c0,0.4-1,0.5-1,1c0,0.4,0.5,0.8,1,1c0.2,0.1,0.7,0.2,3,0
	c0.7-0.1,0.8-0.1,1,0c0.8,0.4,0.4,1.7,1,2c0.9,0.5,3-0.2,3.7-1.5c0.2-0.3,0.1-0.4,0.3-0.5c0.9-1,3.3-0.2,3.8,0
	c0.6,0.2,1,0.4,1.3,0.6c0.3,0,1.1-0.1,1.9,0.4c0.4,0.3,0.7,0.6,0.7,0.7c0.1,0.1,0.3,0.4,0.4,0.9c0.2,1.2-0.5,1.7-0.2,2.2
	c0.3,0.5,1.4,0.6,2.2,0.2c1-0.5,0.9-1.6,1.5-1.6c0.6-0.1,1.2,0.8,1.4,1.5c0.5,1.5-0.4,2.5,0,3c0.7,0.7,3.3-1.8,5-1
	c1.4,0.7,1.9,3.5,1,5c-0.6,0.9-2,2-2,2l0,0c0,0-1.9,0.1-3,1c-0.7,0.6-1.3,1.9-1,3c0.5,1.7,2.8,2,3,2c2,0.2,3.3-1.2,3.5-1.4
	c0.3,0,0.9,0,1.5,0.4c0.6,0.4,1.2,1.3,1,2c-0.1,0.3-0.3,0.6-1,1c-2.3,1.2-4.5,0.1-5,1c-0.2,0.4,0.2,0.7,0,2c-0.1,0.5-0.2,0.8,0,1
	c0.2,0.2,0.6-0.1,1,0c0.5,0.1,0.8,0.6,1,1c1.3-0.2,2.5,0.2,3,1c0.5,0.8,0.1,1.8,0,2c-0.5,1.3-1.6,1.3-3,3c-0.7,0.9-1.2,1.4-1,2
	c0.4,1.5,4.9,1,5,2c0.1,0.4-0.6,0.8-1,1c-1.2,0.5-2.1-0.4-3,0c-0.9,0.4-1.5,2-1,3c0.7,1.5,3.6,0.8,4,2c0.3,0.9-1.3,2.6-3,3
	c-0.8,0.2-1.6,0.1-2,0c1,1.4,1.4,2.7,0.9,3.5c-0.1,0.1-0.2,0.2-0.4,0.3c-0.2,0.1-0.5,0.2-0.9,0.4c-0.4,0.2-0.8,0.3-1,0.4
	c-0.6,0.2-0.6,0.3-0.8,0.3c-0.4-0.1-0.3-0.6-0.7-0.8c-0.3-0.2-0.7-0.1-1,0c-0.7,0.3-0.3,1.2-1,2c-0.7,0.8-2,1-2,1l0,0
	c-1.7-0.9-2-1-2-1c-0.9-0.2-2.4,0-3,1c-0.8,1.2-0.2,3.2,1,4c0.8,0.5,1.6,0.4,5,0l0,0l0,0l0,0l0,0l0,0c1.1,0.5,1.7,0.7,2,1
	c0.5,0.5,1.3,1.4,1,2c-0.2,0.5-0.8,0.4-1,1c-0.1,0.3-0.1,0.6,0,1c0.1,0.6,0.3,1.6,1,2c0.7,0.4,1.2-0.3,2,0c0.7,0.3,1.2,1.3,1,2
	c-0.2,1-1.4,0.9-2,2c-0.6,1.2-0.1,3,1,4c0.7,0.7,1.6,0.9,2,1c1.3,0.4,1.8,0.3,2,0c0.4-0.5-0.4-1.6,0-2c0.2-0.2,0.5-0.1,1,0
	c2,0.5,2.5,1.2,3,1c0.6-0.2,0.2-1.2,1-3c0.6-1.3,1-1.3,1-2c-0.1-1.4-2.2-1.9-2-3c0.1-0.5,0.5-0.9,1-1c1.5-0.4,3,2.4,4,2
	c0.7-0.3,1-2,1-2l0,0c0,0-2.4-2.3-2-3c0.1-0.2,0.5-0.3,3,0c2.7,0.3,3.3,0.4,4,0c0.6-0.4,1.1-1.3,1-2c-0.2-0.9-1.2-1-2-2
	c-0.5-0.6-0.9-1.5-1-3c-0.1-0.6-0.3-1.4-1-2c-0.8-0.7-1.8-0.4-2-1c0-0.1-0.1-0.3,1-2c0.6-0.9,0.9-1.3,1-2c0.1-0.4,0-0.6,0-1
	c0-1.5,0.8-2,1-3c0.2-1.5-1.3-1.8-2-4c-0.6-2.1-0.1-4.6,1-5c0.8-0.3,1.3,0.8,3,1c1.4,0.1,2.9-0.4,3-1c0.1-0.8-2-2-2-2l0,0
	c0,0-0.2-1.8-0.2-3.2c0-1.5-0.1-2.5,0.2-3.8c0.4-2.1,1.2-2.5,1-4c-0.1-1-0.5-2-1-2c-0.3,0-0.4,0.3-0.6,0.3c-0.4-0.1-0.2-1.1-0.7-1.9
	c-0.7-0.8-1.6-0.3-2.6-1.2c-0.9-0.8-1.5-2.2-1.1-2.8c0.4-0.6,1.3-0.1,1.9-0.7c0.7-0.7,0.4-2.3-0.1-3.2c-0.1-0.3-0.7-1.2-1.6-1.5
	c-1.1-0.4-1.8,0.2-2.2-0.2c-0.4-0.4-0.2-1.5,0.2-2.2c0.7-1,1.6-0.8,2.4-2c0.3-0.4,0.6-0.8,0.6-1.3c0.1-1.2-1.3-1.6-2.4-3.4
	c-0.9-1.4-0.3-2.1-1.1-2.8c-1-0.9-2.3-0.4-2.7-1.2c-0.3-0.6,0.3-1.1,0-2c0-0.1-0.4-0.9-1-1c-0.8-0.1-1,0.9-2,1c-0.9,0.1-1.7-0.7-2-1
	c-0.6-0.6-0.6-0.9-1-1c-0.7-0.1-1,0.9-2,1c-0.7,0.1-0.8-0.4-2-1C608.4,71.7,607.8,72.3,607.1,71.6z"/>
<path class="st0" d="M654.8,68.1c1.2,0.1,1.4-0.8,3-1c1.6-0.2,3,0.5,4,1c1.5,0.8,1.4,1.2,3,2c1.4,0.7,1.6,0.4,3,1c2,0.9,3.3,2.2,4,3
	c1.2,1.4,1.9,2,2,3c0.3,2.3-2.1,4.3-3,5c-0.8,0.6-1.3,1-2,1c-1.1,0-1.3-1.1-3-2c-1.3-0.7-1.5-0.2-3-1c-1.2-0.6-1.4-1.1-3-2
	c-0.6-0.3-1.1-0.6-2-1c-4.1-1.8-6.1-2.8-8-3c-2.8-0.4-2.8,0.6-5,0c-2.9-0.7-5.3-3-5-4c0.2-0.5,1-0.3,3-1c1.9-0.7,1.9-1.1,4-2
	c2.2-0.9,3.6-1.5,5-1C653.4,66.7,653.4,68,654.8,68.1z"/>
<path class="st0" d="M671.8,90.1c1.1-0.1,2,0.9,3,2c1,1.1,0.8,1.4,2,3c1.4,1.9,2.2,2.3,2,3c-0.2,0.9-1.5,0.8-2,2
	c-0.3,0.6-0.3,1.4,0,2c0.5,1.2,1.8,1.1,2,2c0.1,0.6-0.6,1.4-2,3c-0.6,0.7-1.3,1.4-2,2c-1.5,1.4-2.3,2.1-3,2c-1-0.1-2-1.1-2-2
	c0-1.2,1.5-1.3,2-3c0.2-0.8-0.1-0.7,0-3c0.1-1.4,0.2-1.5,0-2c-0.5-1.2-1.8-1.2-2-2c-0.2-1.1,1.8-1.5,2-3c0.2-1.6-2.2-2.3-2-4
	C669.9,91.1,670.9,90.2,671.8,90.1z"/>
<path class="st0" d="M674.8,124.1c-0.9,2.6-1.4,3.4-1,4c0.4,0.7,1.3,0.3,2,1c0.9,1,0.9,3.1,0,4c-0.8,0.8-1.6,0.2-3,1
	c-1.1,0.6-1.6,1.4-2,2c-1.8,2.7-0.6,5-2,6c-0.9,0.6-2.3,0.2-3,0c-2.8-0.9-3.9-3.8-4-4c-0.9-2.4,0.2-3.5-1-5c-0.8-1-1.9-1.1-2-2
	c-0.2-1,0.9-1.9,1-2c1.2-1,2.2-0.2,4-1c1.5-0.7,2.4-2.1,3-3c0.4-0.6,0.6-1.1,1-2c1.4-3.2,1-4.1,2-5c0.1-0.1,2-1.8,4-1
	c1.7,0.7,2,2.8,2,3C675.9,120.5,675.9,121.2,674.8,124.1z"/>
<path class="st0" d="M703.9,133.1c0.4-1.6,1.6-5.7,5-7c0.1,0,2.3-0.8,3,0c0.4,0.4,0,0.9,0,3c0,1.4,0.1,1.4,0,2c-0.2,0.9-0.6,1.4-2,3
	c-2.2,2.6-2.4,2.9-3,3c-1,0.2-2.4-0.1-3-1C703.7,135.7,703.4,135,703.9,133.1z"/>
<path class="st0" d="M694.9,71.1c0.8-1.7,3.4-2,4-2c4.1-0.3,7.1,3,8,4c1.1,1.3,2.4,2.7,2,4c-0.4,1.3-2.4,2.1-4,2
	c-2.5-0.2-2.4-2.5-6-4c-1.9-0.8-3.4-0.7-4-2C694.5,72.2,694.9,71.2,694.9,71.1z"/>
<path class="st0" d="M698.9,90.1c0.1-0.6,1.4-0.9,2-1c1.3-0.1,2.3,0.5,3,1c1.8,1.2,3.5,3.4,3,4C706.1,95.2,698.6,91.7,698.9,90.1z"
	/>
</svg>
