<?xml version="1.0" encoding="utf-8"?>
<!-- Generator: Adobe Illustrator 24.3.0, SVG Export Plug-In . SVG Version: 6.00 Build 0)  -->
<svg version="1.1" id="Ebene_1" xmlns="http://www.w3.org/2000/svg" xmlns:xlink="http://www.w3.org/1999/xlink" x="0px" y="0px"
	 viewBox="0 0 36 31" style="enable-background:new 0 0 36 31;" xml:space="preserve">
<g>
	<g>
		<path d="M188.9,179.4c13.5,5.1,24.8,15.2,31.5,27.8c0.6,1.1,2,0.9,2.6,0c13.5-18.5,31.9-33.2,52.8-42.4c5.9-2.6,12-4.7,18.3-6.4
			c1.9-0.5,1.1-3.4-0.8-2.9c-22.7,6.1-43.6,18.4-60.2,35.1c-4.6,4.7-8.9,9.7-12.8,15.1c0.9,0,1.7,0,2.6,0
			c-7.2-13.4-19.2-23.8-33.3-29.2C187.9,175.8,187.1,178.7,188.9,179.4L188.9,179.4z"/>
	</g>
</g>
<g>
	<g>
		<path d="M-0.6,12.2c3.5,5.8,7,11.6,10.4,17.3c0.9,1.5,3.4,2.2,4.7,0.6c6.7-8.5,13.5-16.8,20.6-25c1-1.2,1.2-3,0-4.2
			c-1.1-1.1-3.2-1.2-4.2,0c-7,8.2-13.9,16.5-20.6,25c1.6,0.2,3.1,0.4,4.7,0.6c-3.5-5.8-7-11.6-10.4-17.3C2.6,5.9-2.6,8.9-0.6,12.2
			L-0.6,12.2z"/>
	</g>
</g>
</svg>
