<?xml version="1.0" encoding="utf-8"?>
<!-- Generator: Adobe Illustrator 24.3.0, SVG Export Plug-In . SVG Version: 6.00 Build 0)  -->
<svg version="1.1" id="Ebene_1" xmlns="http://www.w3.org/2000/svg" xmlns:xlink="http://www.w3.org/1999/xlink" x="0px" y="0px"
	 viewBox="0 0 461 263" style="enable-background:new 0 0 461 263;" xml:space="preserve">
<style type="text/css">
	.st0{display:none;}
	.st1{display:inline;}
	.st2{fill:#3FA9F5;}
	.st3{opacity:0.1091;fill:#FFFFFF;enable-background:new    ;}
	.st4{fill:#666666;}
	.st5{opacity:0.1091;fill:#3FA9F5;enable-background:new    ;}
</style>
<g id="Ebene_3" class="st0">
	<g class="st1">
		<g>
			<path class="st2" d="M44.5,239.6c94.2,0,188.5,0,282.7,0c26.5,0,53.1,0,79.6,0c9.6-1.3,19.1-2.6,28.7-3.9
				c8.6-3.6,17.2-7.3,25.8-10.9c7.3-5.6,14.6-11.3,21.9-16.9c10.5-9.8,18-21.4,22.3-34.8c4.9-8.4,7.3-17.5,7.4-27.2
				c2.6-9.6,2.6-19.1,0-28.7c0-9.8-2.5-18.8-7.4-27.2c-4.4-13.4-11.8-25-22.3-34.8c-10.9-8.7-22-18.9-35-25
				c-13.2-6.2-26.7-11.7-40.4-16.8C396.1,9,384.1,4.9,372.1,0.9c-24.3-8-49-15-73.9-21.1c-57.8-14.3-116.8-24-176-31
				c-42.5-5-86.8,1.8-124.1,23.5c-7.3,5.6-14.6,11.3-21.9,16.9C-34.2-1-41.6,10.6-46,24c-4.9,8.4-7.3,17.5-7.4,27.3
				c-3.2,14.4-2.6,28.7,1.9,43.1c3.6,8.6,7.3,17.2,10.9,25.8c5.6,7.3,11.3,14.6,16.9,21.9c9.8,10.5,21.4,18,34.8,22.3
				c12.9,6.8,26.7,9.9,41.6,9.3c96.3-10.9,193.2-14.8,290-17.6c13.6-0.4,27.1-0.8,40.7-1.1c12-0.3,24.2-1.1,36.2,0.4
				c-9.6-1.3-19.1-2.6-28.7-3.9c5.3,0.7,10.3,1.9,15.3,3.9c-8.6-3.6-17.2-7.3-25.8-10.9c3.4,1.5,6.5,3.3,9.5,5.6
				c-7.3-5.6-14.6-11.3-21.9-16.9c2,1.7,3.8,3.5,5.5,5.6c-5.6-7.3-11.3-14.6-16.9-21.9c1.2,1.7,2.2,3.5,3.1,5.4
				c-3.6-8.6-7.3-17.2-10.9-25.8c0.6,1.6,1,3.1,1.4,4.8c-1.3-9.6-2.6-19.1-3.9-28.7c0.3,2.4,0.3,4.8,0.1,7.2
				c1.3-9.6,2.6-19.1,3.9-28.7c-1.2,8.9-4.8,17.4-7.9,25.8c-3.2,8.6-6.6,17-10.1,25.5c3.6-8.6,7.3-17.2,10.9-25.8
				c-3.7,8.7-7.5,17.3-11.6,25.9c-3.8,8-7.3,16.6-12.3,23.9c5.6-7.3,11.3-14.6,16.9-21.9c-1,1.3-2,2.2-3.2,3.3
				c7.3-5.6,14.6-11.3,21.9-16.9c-1.4,0.9-2.7,1.6-4.2,2.3c8.6-3.6,17.2-7.3,25.8-10.9c-14.2,5.3-29.7,8-44.6,10.1
				c9.6-1.3,19.1-2.6,28.7-3.9c-45.2,6-90.7,2.2-135.8-2.4c-47.1-4.9-94.1-9.9-141.4-6.6c-35.9,2.6-71.7,8.1-107.3,13
				c-14,3.3-26.3,9.8-36.7,19.3c-11.8,7.6-21,17.7-27.8,30.3c-7.9,12.4-12.2,25.8-12.8,40.1c-3.2,14.4-2.6,28.7,1.9,43.1
				c3.6,8.6,7.3,17.2,10.9,25.8c9.6,16.2,22.5,29.1,38.8,38.8c8.6,3.6,17.2,7.3,25.8,10.9c19.1,5.1,38.3,5.1,57.4,0
				c6.5-0.9,13.1-1.8,19.6-2.7c-9.6,1.3-19.1,2.6-28.7,3.9c32-4.3,64.2-7.9,96.5-7.7c31.5,0.2,62.9,3.5,94.2,6.8
				c31.1,3.2,62.2,6.5,93.5,6.6c14.9,0.1,29.9-0.6,44.7-2.2c23.6-2.7,47.7-5.5,70.7-11.8c23.2-6.3,46.1-16.5,63.1-34.1
				c11.4-11.8,19.2-23.7,26.2-37.8c10.9-21.9,20.3-44.5,29.6-67.1c5.6-13.6,12.3-27.9,15.3-42.4c2.5-12.4,5.1-25.1,4.5-37.8
				c-1.1-25.4-5.3-38.7-16.3-61.1c-10.8-21.9-29-37.2-48.6-50.7c-25-17.3-58.1-23-87.7-24.1C394.5-62,379-61,363.6-60.6
				c-31.7,0.9-63.5,1.8-95.2,3c-72,2.8-144,7-215.7,15.1c18.2,67.1,36.3,134.2,54.5,201.2c2.9-1.7,5.8-3.1,8.8-4.4
				c-8.6,3.6-17.2,7.3-25.8,10.9c6.1-2.4,12.4-4,18.9-5c-9.6,1.3-19.1,2.6-28.7,3.9c16.7-2.2,33.5-0.5,50.2,1.7
				c-9.6-1.3-19.1-2.6-28.7-3.9c69,9.4,137.4,23.2,203.8,44.3c18.4,5.8,36.8,11.9,54.7,19.2c-8.6-3.6-17.2-7.3-25.8-10.9
				c5.8,2.5,11.4,5.3,16.5,9.1c-7.3-5.6-14.6-11.3-21.9-16.9c0.5,0.4,0.9,0.7,1.3,1.1c25.5-61.5,50.9-122.9,76.4-184.4
				c-94.2,0-188.5,0-282.7,0c-26.6,0-53.1,0-79.7,0c-14.9-0.6-28.7,2.5-41.6,9.3c-13.4,4.4-25,11.8-34.8,22.3
				c-10.5,9.8-18,21.4-22.3,34.8c-6.8,12.9-9.9,26.7-9.3,41.6c1.3,9.6,2.6,19.1,3.9,28.7c5.1,18.3,14.4,34.2,27.8,47.7
				c7.3,5.6,14.6,11.3,21.9,16.9C6.8,234.7,25,239.6,44.5,239.6L44.5,239.6z"/>
		</g>
	</g>
	<g class="st1">
		<g>
			<path class="st2" d="M509.1,521c14.9,0.6,28.7-2.5,41.6-9.3c13.4-4.4,25-11.8,34.8-22.3c10.5-9.8,18-21.4,22.3-34.8
				c6.8-12.9,9.9-26.7,9.3-41.6c-1.3-9.6-2.6-19.1-3.9-28.7c-5.1-18.3-14.4-34.2-27.8-47.7c-7.3-5.6-14.6-11.3-21.9-16.9
				c-16.8-9.8-35-14.7-54.5-14.8c-14.9-0.6-28.7,2.5-41.6,9.3c-13.4,4.4-25,11.8-34.8,22.3c-10.5,9.8-18,21.4-22.3,34.8
				c-6.8,12.9-9.9,26.7-9.3,41.6c1.3,9.6,2.6,19.1,3.9,28.7c5.1,18.3,14.4,34.2,27.8,47.7c7.3,5.6,14.6,11.3,21.9,16.9
				C471.4,516,489.6,520.9,509.1,521L509.1,521z"/>
		</g>
	</g>
</g>
<g id="Ebene_2_1_">
	<g>
		<g>
			<g>
				<path class="st3" d="M111.8,157.6c2.1-0.6,4.2-1.2,6.4-1.8c3.4-2.3,7.1-4.2,10.9-5.7c6-2.6,11.9-5.2,17.9-7.9
					c8.3-4,17-6.9,26.1-8.8c7.1-2.3,14.1-4.7,21.2-7c17.1-5.6,34.2-11.2,51.5-16.4c28.2-8.4,56.8-15.3,85.8-20.8
					c30.2-5.7,60.6-10.1,91-14.7c-2.8-4.7-7-7.9-12.5-9.7c-17.2-8.8-34.7-17.3-52.3-25.3C340,31.3,322.3,23.5,304.4,16
					c-4.9-3.1-10.1-4.1-15.5-3.2c-24.9,4.5-49.7,9.1-74.4,14.4c-18.7,4-37.3,8.3-55.9,12.7c-19,4.5-37.9,9.1-57,13.3
					c-12.5,2.8-25.1,5.4-37.8,7.7c-12.1,2.3-24.3,3.8-36.5,4.5c1.5,0.1,2.9,0.1,4.3,0.2c-2.2-0.6-4.2-1.5-6.2-2.5
					c-1.5-0.8-3-1.5-4.5-2.2c-3.2-1-6.3-0.9-9.7-0.7c0.9,5.2,3.6,9.4,8,12.8C32,86.3,45,99.4,58.4,112.2
					C71.5,125.1,85,137.7,98.7,150C102.2,154.3,106.6,156.9,111.8,157.6z"/>
				<path class="st3" d="M123.8,181c2.7-0.1,5.3-0.2,8-0.4c3.8-2.1,7.7-4.1,11.7-5.9c6.1-2.9,12.2-5.7,18.2-8.7
					c8.3-4.3,17-7.4,26.2-9.4c7.1-2.4,14.2-4.9,21.2-7.3c17.1-5.9,34.3-11.6,51.6-16.9c28.2-8.6,56.8-15.6,85.8-21
					c30.2-5.6,60.6-10,91-14.4c-2.7-5.1-6.8-8.8-12.4-11.2c-17.5-10.8-35.1-21.1-53-31.1c-17.8-10.2-35.8-20-54-29.5
					c-4.9-3.6-10.2-5.2-16-4.9c-24.8,4.4-49.7,8.9-74.4,14.1c-18.8,4-37.5,8.3-56.1,12.8c-19.1,4.7-38.2,9.5-57.4,14
					c-12.7,3.1-25.4,6-38.2,8.6c-12.2,2.7-24.6,4.6-37.1,5.7c1.5,0.2,3,0.4,4.5,0.6c-2.2-0.5-4.4-1.2-6.5-2.1
					c-1.7-0.7-3.3-1.4-5-2.1c-3.9-1.3-8-2.2-12-3c0.9,5.6,3.7,10.3,8.2,14.2c13.1,15.2,26.5,30.2,40.2,44.8
					c13.6,14.8,27.4,29.3,41.6,43.6C113.8,176.5,118.3,179.6,123.8,181z"/>
				<path class="st3" d="M108.3,148.1c9.5,6.1,19.2,11.8,29,17.3c6.6,4,13.2,5.3,19.9,3.8c3.5-1.6,7-3.2,10.4-4.9
					c5.3-5.6,10.8-10.9,16.5-16.1c10.8-5.4,22-9.9,33.5-13.6c10.9-3.7,21.7-7.5,32.5-11.4c13.7-5,27.4-9.7,41.3-14
					c12.8-4,25.8-7.5,38.9-10.5c-0.8,0.2-1.6,0.4-2.4,0.6c12.2-2.8,24.5-5.3,36.8-7.5c9-1.6,18.1-3.1,27.2-4.5
					c21.1-3.3,42.2-6.2,63.3-9.1c1.8,0.1,3-0.6,3.9-2.2c0.6-1.6,0.3-3.1-0.9-4.3c-2.6-2-5.5-3.7-8.6-4.9c-3-1.5-6.1-2.6-9.4-3.2
					c-27.3,3.9-54.7,7.6-81.9,12.3c-22.5,3.8-45,8.3-67,14.3c-13.4,3.7-26.7,7.8-39.9,12.2c-13.7,4.7-27.4,9.7-41.1,14.2
					c-7.2,2.3-14.5,4.6-21.7,7c-9.2,1.3-16.8,4.9-22.7,11c-1.6,1.5-2.9,3.2-4,5.1c-3.3,4.2-6.3,8.7-8.8,13.4c0.5-0.5,1-1,1.5-1.6
					c-3.2,1.3-6.5,2.6-9.7,3.8c0.7-0.1,1.4-0.2,2.1-0.4c-6.8-2.6-13.7-5.2-20.5-7.8c1.2,0.7,2.4,1.4,3.6,2
					c-10.1-6.2-20.2-12.5-30.2-18.7c-1.3-0.8-2.7-1.6-4-2.4c-0.9-0.1-1.8-0.2-2.7-0.3c-0.6,0.4-1.3,0.8-1.9,1.1
					c-0.9,1.1-1,2.2-0.4,3.4c0.2,1.3,0.8,2.3,1.9,3c1.2,1.5,2.5,2.8,4,4C100.3,142.7,104,145.6,108.3,148.1z"/>
				<path class="st3" d="M113.4,212.7c6.8,7.7,14.4,14.3,22.9,19.9c4.1,3.1,8.9,4.2,14.6,3.1c0.8-0.2,1.5-0.3,2.3-0.5
					c2.7-1.8,5.4-3.5,8.1-5.3c4.7-3.6,9.6-6.7,14.8-9.5c9.3-5.8,19.4-10.1,30.2-12.9c17.1-6.4,34.2-12.5,51.5-18.4
					c16.9-5.8,34-11.5,51.3-16c15.4-4,30.8-7.4,46.4-10.4c32.9-6.2,66.1-10.7,99.3-15.3c2-0.1,2.9-1.1,2.9-3.1
					c-0.9-3.2-2.7-5.9-5.5-8c-4.2-4.3-8.7-8.4-13.3-12.3c-2.3-2.6-5.1-4.2-8.4-4.8c-52.2,7.7-104.5,15.2-155.4,29.2
					c-13.9,3.8-27.6,8.1-41.3,12.5c-14.5,4.6-29,9.1-43.5,13.8c-8.6,2.5-17.1,5.5-25.4,9c-7,2.1-13.6,4.9-19.8,8.6
					c-3.6,1.6-6.9,3.6-9.9,6c-2.3,2-4.9,3.6-7.8,4.7c1.8,0.4,3.7,0.8,5.5,1.1c-6.2-3.8-12.4-7.6-18.6-11.4c1.2,0.8,2.3,1.6,3.5,2.3
					c-7.9-7.9-15.9-15.8-23.8-23.7c-1.6-2.4-3.7-3.4-6.3-2.9c-1.4,2.3-1.2,4.6,0.4,7c3.6,6.6,7.6,13,12,19.1
					C104,200.9,108.5,206.9,113.4,212.7z"/>
				<path class="st3" d="M117.8,189.8c1.9-1.1,3.8-2.1,5.7-3.2c3.6-2.6,7.4-4.7,11.5-6.4c6.1-2.8,12.1-5.8,18.1-8.9
					c8.1-4.4,16.6-7.6,25.8-9.5c7-2.4,14-4.9,21-7.3c17-5.8,34-11.5,51.2-16.8c28.1-8.6,56.7-15.4,85.6-20.8
					c30.2-5.6,60.7-9.9,91.1-14.3c-3-5.7-7.4-9.9-13.4-12.9c-18.9-13.1-38-25.8-57.3-38.1c-19.2-12.5-38.6-24.7-58.3-36.5
					c-5.1-4.2-10.9-6.5-17.3-6.9c-24.9,4.5-49.8,9.1-74.6,14.4c-18.7,4-37.4,8.2-56.1,12.5c-18.9,4.4-37.7,8.8-56.7,12.8
					c-12.3,2.7-24.7,5-37.1,7.1c-11.7,2.1-23.4,3.4-35.2,4c1.6,0.4,3.2,0.8,4.9,1.2c-1.9-0.7-3.8-1.5-5.5-2.6
					c-1.4-0.8-2.7-1.6-4.1-2.3c-1.6-0.7-3.1-1.3-4.6-2c-1.8-0.2-3.6-0.1-5.3,0.4c1.1,6.3,4,11.8,8.8,16.5c14,18.4,28.3,36.5,43,54.3
					c14.5,18,29.3,35.7,44.5,53.1C107.1,183.5,111.8,187.5,117.8,189.8z"/>
				<path class="st3" d="M116.5,167.6c1.9-0.9,3.7-1.9,5.6-2.8c3.4-2.5,7.1-4.5,11.1-6c6.1-2.6,12.1-5.3,18.1-8.1
					c8.2-4.1,16.9-7.1,26-8.9c7-2.4,14.1-4.7,21.1-7.1c17.1-5.7,34.2-11.2,51.4-16.4c28.2-8.4,56.8-15.3,85.7-20.7
					c30.2-5.7,60.6-10.1,91-14.6c-3.1-5.1-7.6-8.7-13.5-10.9c-18.6-10.4-37.5-20.3-56.6-29.9c-19-9.8-38.1-19.2-57.4-28.2
					c-5.2-3.5-10.8-5-16.7-4.5c-24.9,4.5-49.7,9.2-74.4,14.4c-18.7,4-37.3,8.3-55.9,12.6c-18.9,4.4-37.8,8.9-56.8,12.9
					c-12.4,2.7-24.9,5.1-37.4,7.2c-11.9,2.1-23.8,3.5-35.9,4c1.5,0.2,3.1,0.4,4.7,0.5c-2.1-0.7-4-1.6-5.9-2.7
					c-1.4-0.8-2.9-1.6-4.3-2.3c-1.5-0.4-3-0.8-4.5-1.2c-1.7-0.2-3.3,0-4.9,0.6c1.2,5.7,4.2,10.4,8.9,14.2C29.7,85,44,100,58.5,114.7
					c14.3,14.9,29,29.4,44,43.7C106.2,163.1,110.9,166.2,116.5,167.6z"/>
				<path class="st3" d="M111.7,198.7c4.7,5.1,10.3,8.4,16.6,9.7c1.9,0.9,3.7,0.4,5.3-1.5c4-2,7.9-4.4,11.4-7.1
					c3.1-1.5,6.2-2.9,9.4-4.4c3.1-1.5,6.2-3,9.3-4.5c11.1-3.7,22.1-7.6,33-11.7c17.5-6.4,35-12.8,52.8-18.6
					c13.4-4.4,26.9-8.5,40.4-12.3c15.4-4.3,31.1-7.7,46.8-10.8c33.2-6.6,66.7-11.3,100.2-16.1c-0.4-3.7-2.4-6.6-5.9-8.6
					c-9.6-7.7-19.4-15-29.5-22c-10-7.2-20.1-14-30.6-20.4c-3.1-2.7-6.4-3.6-10-2.7c-24.6,4.1-49.1,8.1-73.5,13.1
					c-18.9,3.9-37.7,8.1-56.4,12.9c-19.9,5.1-39.8,10.8-59.5,16.6c-13.8,4.1-27.5,8.1-41.3,12.1c-14,4.4-28.1,8.1-42.5,11
					c1.1-0.1,2.2-0.1,3.3-0.2c-2.9,0.1-5.8-0.1-8.7-0.5c-3.2-0.4-6.4-0.8-9.6-1.3c1.1,0.2,2.2,0.4,3.3,0.5
					c-6.9-3-12.7-7.4-17.6-13.4c-3.2-2-4.4-1.2-3.4,2.5c3.2,7.6,7.5,14.6,12.7,21c9,12.9,18.3,25.5,27.9,38
					C100.1,187.2,105.5,193.4,111.7,198.7z"/>
				<path class="st3" d="M118.3,163c7.7,6.8,16.2,11.7,25.7,14.6c4.8,1.6,9.8,2.7,14.9,3.1c1,0.2,2.1,0.4,3.1,0.6
					c4.6-0.1,8.6-1.3,12.1-3.8c2.3-1.5,4.5-3.2,6.6-5c3-2,6-4,9-6.1c11.2-5.2,22.6-10,34.2-14.4c10.5-4.3,21.1-8.2,31.8-12
					c16.9-6,33.8-11.8,51-16.8c15.6-4.6,31.3-8.5,47.2-11.9c18-3.9,36.4-6.9,54.6-9.6c18.1-2.7,36.2-5.2,54.3-7.8
					c1.9-0.7,2.5-1.9,1.7-3.8c-2.1-2.9-4.9-5-8.4-6.2c-5.8-3-11.7-5.7-17.8-8.1c-3.2-1.8-6.6-2.6-10.1-2.2
					c-49.3,7.2-98.8,14.2-146.8,27.8c-13.2,3.8-26.3,7.8-39.3,12.2c-13.3,4.5-26.6,9.1-39.8,13.8c-15.3,5.6-30.1,12.2-44.5,19.9
					c-4.4,3.2-8.6,6.8-12.4,10.6c0.6-0.4,1.3-0.9,1.9-1.3c-3,0.1-5.9,0.3-8.9,0.4c1,0.2,2.1,0.4,3.1,0.6
					c-16.8-6.1-32.2-14.6-46.2-25.6c-2-1.7-4-1.9-6.1-0.8c-1,2.2-0.5,4.2,1.3,6c4.2,4.8,8.6,9.3,13.4,13.5
					C108.3,155.3,113.2,159.3,118.3,163z"/>
				<path class="st3" d="M122.8,206.7c3.3,0.7,6.6,1.5,9.9,2.2c4-2,7.9-4.1,11.8-6.2c6-3.2,12-6.3,18-9.4c8.2-4.6,16.9-7.9,26.2-9.9
					c7.1-2.5,14.1-5.1,21.2-7.6c17.1-6.1,34.2-12,51.6-17.4c13.1-4.1,26.2-7.9,39.5-11.2c15.4-3.9,30.9-7.2,46.4-10.1
					c30.2-5.6,60.7-9.9,91.1-14.2c-1.8-5-5.2-8.9-10.2-11.6c-15-11.5-30.2-22.7-45.7-33.6c-15.3-11-30.9-21.7-46.8-32
					c-4.2-3.8-9-5.7-14.3-5.8c-24.8,4.3-49.6,8.7-74.2,14c-18.9,4-37.7,8.4-56.5,13.1c-19.5,4.9-38.8,10-58.3,14.9
					c-13,3.3-26,6.5-39.1,9.5c-12.6,3.1-25.4,5.3-38.2,6.9c1.4,0.3,2.8,0.5,4.3,0.8c-3-0.7-6-1.4-8.9-2.2c1.4,0.3,2.8,0.7,4.2,1
					c-4.8-1.8-9.5-3.8-14.2-5.8c1.4,0.6,2.7,1.2,4.1,1.8c-2.2-1.1-4.3-2.2-6.5-3.2c-1.3-0.6-2.7-1.2-4-1.8c0.2,1.4,0.4,2.9,0.6,4.4
					c1.9,3.4,3.9,6.8,5.8,10.2c7.8,11.3,15.8,22.5,24.1,33.4c12.6,17,25.3,33.9,38.5,50.4c3.4,4.9,7.3,9.4,11.6,13.6
					C116.7,203.7,119.4,205.7,122.8,206.7z"/>
				<path class="st3" d="M115.1,177.9c1.8-1,3.7-2.1,5.6-3.1c3.5-2.6,7.2-4.6,11.2-6.2c6-2.7,12-5.5,18-8.4
					c8.1-4.2,16.7-7.3,25.8-9.1c7-2.4,14-4.8,21-7.1c17-5.7,34.1-11.3,51.2-16.5c28.2-8.5,56.7-15.3,85.7-20.7
					c30.2-5.6,60.7-10,91.1-14.5c-3-5.3-7.4-9.3-13.2-11.9c-18.5-11.7-37.3-23-56.2-33.9c-18.9-11.2-37.9-21.9-57.2-32.3
					c-5.1-3.9-10.7-5.8-16.9-5.7c-24.9,4.5-49.8,9.1-74.5,14.4c-18.7,4-37.4,8.2-56,12.6c-18.9,4.4-37.7,8.8-56.7,12.8
					c-12.3,2.7-24.8,5-37.2,7.1c-11.7,2.1-23.5,3.4-35.5,3.9c1.6,0.3,3.2,0.6,4.7,0.9c-2-0.7-3.9-1.6-5.6-2.7
					c-1.4-0.8-2.7-1.6-4.1-2.3c-1.5-0.5-3-1.1-4.5-1.6c-1.7-0.2-3.4,0.1-5,0.7c1.1,6,3.9,11.1,8.7,15.3
					c13.7,16.8,27.7,33.3,42.1,49.5c14.2,16.4,28.7,32.5,43.5,48.3C104.6,172.5,109.3,176.1,115.1,177.9z"/>
				<path class="st3" d="M127.5,196.5c3.4,0.8,6.8,1.6,10.2,2.3c3.8-2.2,7.6-4.2,11.5-6.2c6-3.1,12.1-6,18.2-9
					c8.3-4.4,17.1-7.7,26.4-9.7c7.1-2.5,14.2-5.1,21.3-7.6c17.2-6.1,34.4-11.9,51.8-17.4c28.2-8.8,56.9-15.9,86-21.3
					c30.2-5.7,60.6-9.9,91-14.3c-1.8-4.7-5.2-8.2-10.1-10.5c-14.6-10.1-29.5-19.8-44.7-29.1c-15-9.5-30.2-18.7-45.7-27.5
					c-4.2-3.4-8.8-4.9-13.9-4.5c-24.8,4.3-49.5,8.6-74.1,13.8c-18.9,4-37.7,8.4-56.4,13.2c-19.5,5-38.9,10.2-58.4,15.4
					c-13.1,3.5-26.2,6.9-39.4,10.1c-12.8,3.4-25.8,5.9-39,7.7c1.4,0.1,2.7,0.2,4.1,0.4c-1.7-0.3-3.3-0.7-5-1c-2-0.6-4-1.2-5.9-2
					c-1.1-0.4-2.2-0.8-3.4-1.3c-3.1-1.1-6.1-2.6-8.9-4.4c-1.3-0.5-2.6-0.9-3.9-1.4c0.2,1.4,0.5,2.7,0.7,4.1c1.9,3.1,3.9,6.1,5.8,9.1
					c7.7,10.1,15.7,19.9,23.9,29.6c12.5,15,25.1,30,38.2,44.5c3.4,4.4,7.2,8.3,11.5,11.9C121.6,194.3,124.2,195.9,127.5,196.5z"/>
				<path class="st3" d="M121.4,220.7c6.8,7.4,14.4,13.8,22.7,19.2c4.1,3.1,8.9,3.9,14.5,2.6c0.8-0.2,1.5-0.3,2.3-0.5
					c3.1-1.7,6.1-3.4,9.2-5.2c4.7-3.7,9.7-7.1,14.9-10.1c8.9-5.9,18.7-10.2,29.4-12.7c16.9-6.3,34-12.5,51-18.5
					c16.8-5.9,33.7-11.6,50.9-16.1c15.4-4,30.8-7.5,46.4-10.4c33-6.2,66.4-10.6,99.6-15.2c2-0.1,2.9-1.1,2.9-3.1
					c-0.9-3.2-2.7-5.9-5.4-8.1c-4.2-4.4-8.7-8.5-13.3-12.5c-2.3-2.6-5.1-4.2-8.4-4.9c-52.4,7.6-105,14.9-156.1,29.1
					c-28,7.8-55.4,17.6-83.1,26.3c-8.4,2.4-16.6,5.2-24.7,8.5c-6.8,1.7-13.1,4.5-18.8,8.4c-3.6,1.8-6.9,4.1-9.8,6.8
					c-2.8,2.9-6.2,4.9-10.1,5.9c1.8,0.4,3.6,0.7,5.4,1.1c-6.4-3.7-12.9-7.4-19.3-11.1c1.2,0.8,2.3,1.5,3.5,2.3
					c-7.9-7.7-15.9-15.4-23.8-23.1c-1.6-2.4-3.8-3.4-6.4-2.9c-1.3,2.3-1.2,4.6,0.5,7c3.7,6.6,7.8,12.9,12.2,19.1
					C111.9,209,116.5,215,121.4,220.7z"/>
			</g>
		</g>
	</g>
</g>
<g id="Ebene_1_1_">
	<g>
		<g>
			<path class="st4" d="M125.4,114.9c-4,9.1-8.2,18.7-12.7,28.9c-4.5,10.2-6.8,15.4-6.9,15.8h-5.4c-0.2-0.4-2.4-5.3-6.7-14.9
				s-8.7-19.3-13.2-29.3l6.7-3.1l16.1,38.2h0.1l15.7-38.1L125.4,114.9z"/>
			<path class="st4" d="M144.5,104.2h-8.1v-7.9h8.1V104.2z M144.1,159.6h-7.2c0-0.5,0.1-3.5,0.1-9c0.1-5.5,0.1-10.1,0.1-13.7
				c0-3.1,0-6.6,0-10.4c0-3.8-0.1-8.2-0.2-13.3h7.2c-0.1,4.4-0.1,8.5-0.2,12.4s-0.1,7.3-0.1,10.3c0,7.1,0,12.9,0.1,17.2
				C144.1,157.2,144.1,159.5,144.1,159.6z"/>
			<path class="st4" d="M239.6,159.6h-7.2c0-0.4,0.1-4.8,0.1-13.4s0.1-15.7,0.1-21.4c0-3.6,0-8.2,0-13.8c0-5.6-0.1-11.8-0.2-18.7
				h7.2c-0.1,4.7-0.1,10.2-0.1,16.4c0,6.2-0.1,11.4-0.1,15.7c0,9.3,0,17.4,0.1,24.3C239.6,155.6,239.6,159.2,239.6,159.6z"/>
			<path class="st4" d="M292.7,134.7h-33.2c0,3.2,0.7,6.2,2.1,8.9s3.4,4.9,6.2,6.7c1.8,1.1,3.8,2,6.1,2.6c2.3,0.6,5,0.9,8.2,0.9
				c1.7,0,3.3-0.1,4.8-0.1c1.5-0.1,2.4-0.1,2.7-0.2l-0.8,6.1c-0.2,0-1.1,0.1-2.4,0.2s-3,0.1-4.9,0.1c-4.9,0-9.2-0.6-12.8-1.9
				c-3.6-1.3-6.6-3-8.9-5.3c-2-1.9-3.7-4.2-5.1-7.2c-1.4-2.9-2.1-6.1-2.1-9.7c0-3.5,0.5-6.6,1.6-9.5c1-2.8,2.6-5.4,4.7-7.8
				c1.8-2.1,4-3.7,6.7-4.8c2.7-1.1,5.5-1.7,8.3-1.7c2.9,0,5.4,0.4,7.6,1.3s4.1,2.2,5.7,3.9c1.8,2,3.2,4.4,4.1,7.2
				C292.2,127.2,292.7,130.7,292.7,134.7z M285.6,129.5c-0.5-3.8-1.8-6.8-3.9-8.9s-4.9-3.2-8.3-3.2c-3.4,0-6.3,1.1-8.6,3.3
				c-2.3,2.2-3.9,5.2-4.8,8.9L285.6,129.5L285.6,129.5z"/>
			<path class="st4" d="M340.6,134.7h-33.2c0,3.2,0.7,6.2,2.1,8.9c1.4,2.7,3.4,4.9,6.2,6.7c1.8,1.1,3.8,2,6.1,2.6
				c2.3,0.6,5,0.9,8.2,0.9c1.7,0,3.3-0.1,4.8-0.1c1.5-0.1,2.4-0.1,2.7-0.2l-0.8,6.1c-0.2,0-1,0.1-2.4,0.2s-3,0.1-4.9,0.1
				c-4.9,0-9.2-0.6-12.8-1.9c-3.6-1.3-6.6-3-8.9-5.3c-2-1.9-3.7-4.2-5.1-7.2s-2.1-6.1-2.1-9.7c0-3.5,0.5-6.6,1.6-9.5
				c1-2.8,2.6-5.4,4.7-7.8c1.8-2.1,4-3.7,6.7-4.8c2.7-1.1,5.5-1.7,8.3-1.7c2.9,0,5.4,0.4,7.6,1.3s4.1,2.2,5.7,3.9
				c1.8,2,3.2,4.4,4.1,7.2C340.1,127.2,340.6,130.7,340.6,134.7z M333.5,129.5c-0.5-3.8-1.8-6.8-3.9-8.9s-4.9-3.2-8.3-3.2
				c-3.4,0-6.3,1.1-8.6,3.3c-2.3,2.2-3.9,5.2-4.8,8.9L333.5,129.5L333.5,129.5z"/>
			<path class="st4" d="M392.5,134.9c0,4.7-1,8.8-3.2,12.1c-2.1,3.3-5,5.9-8.5,7.9c-3.1,1.6-6.5,2.8-10.3,3.5s-7.3,1-10.6,1
				l0.2,21.1h-7.3c0-0.5,0.1-4.8,0.1-12.7s0.1-15.9,0.1-23.9c0-4,0-8.7,0-14c0-5.3-0.1-11-0.1-17.1c1,0,2-0.1,2.9-0.1s1.7,0,2.2,0
				c6.4,0,11.4,0.3,15,1c3.5,0.7,6.8,1.9,9.7,3.6c3.1,1.8,5.5,4.2,7.3,7.2C391.6,127.6,392.5,131,392.5,134.9z M385.1,135.2
				c0-3-0.7-5.6-2.1-7.9c-1.4-2.3-3.2-4.1-5.5-5.4c-2-1.2-4.4-2-7-2.5c-2.6-0.5-5.5-0.8-8.5-0.8c-0.3,0-0.7,0-1,0s-0.7,0-1,0
				c0,0.5,0,2.3-0.1,5.4c0,3.1-0.1,8.5-0.1,16.1c0,1.6,0,3.8,0,6.7s0,5.2,0,6.9c2.9,0,5.8-0.3,8.6-0.8c2.9-0.5,5.2-1.3,7.1-2.2
				c3.1-1.5,5.5-3.6,7.1-6.1C384.3,142.1,385.1,138.9,385.1,135.2z"/>
		</g>
	</g>
	<g>
		<g>
			<g>
				<path class="st5" d="M224.6,47.2c-7.4,5.8-14.5,12-21.3,18.4c-6.9,6.5-13.6,13.3-20.1,20.3c-4.9,5.3-9.5,10.7-14,16.3
					c-2.3,2.4-4.2,4.9-5.9,7.7c-1.7,2.8-3,5.7-3.6,8.9c-0.7,3.8-0.1,7.2,1.9,10.6c1.8,3.1,4.4,5.4,7.7,6.9
					c5.8,2.8,12.4,4.4,18.8,4.4c5.4,0,10.6-0.6,15.9-1.7c5.3-1.1,10.5-3.2,15.9-4c-0.4-0.1-0.8-0.2-1.2-0.3c0.9,0.4,1.8,0.9,2.7,1.3
					c-2.4-1.7-4.9-3.4-7.3-5.2c2.7,2.2,5.4,4.3,8.1,6.5c-2.3-2.4-4.7-4.7-7-7c-0.1,5.1-0.2,10.1-0.2,15.2c1.4-3.1,2.8-6.2,4.2-9.4
					c-5.7,6.5-11.4,13.1-17.1,19.6c-1.7,1.2-3.4,2.5-5.1,3.7c-3.5,2.4-7.1,4.7-10.5,7.2c-2.4,1.8-4.7,3.7-7,5.7
					c-4.6,3.7-9.1,7.4-13.7,11.2c-11.4,9.4-22.6,18.8-33.9,28.3c0.4,0.3,0.9,0.4,1.4,0.3c1.7,0.1,3.5,0.1,5.2,0.1
					c1.7,0,3.5,0,5.2-0.1c0.5,0.1,1,0,1.4-0.3c11.1-9.8,22.3-19.5,33.5-29.2c8.4-7.3,16.8-14.6,24.9-22.2c3.1-2.9,6.1-5.8,8.9-8.9
					c1.8-1.5,3.2-3.2,4.2-5.2c1.9-3.4,3.9-6.7,5.9-9.9c0.3-0.3-7.9-6.5-9.2-6.6c-1.2,0.2-2.3,0-3.4-0.4c-0.4,0-0.8,0-1.2,0
					c-3.4,0-6.6,0.8-10,1.2c-4,0.5-8,0.5-12,0.3c-2.1-0.1-4.2-0.4-6.2-0.9c-2.8-0.8-5.3-2-7.7-3.6c0.1,0.4,0.1,0.8,0.2,1.2
					c0-0.6,0.3-1.3,0.2-2c-0.3-1.2-1.3-2-1.6-3.3c-0.5-2.9,1.1-6.2,2.6-8.5c0.8-1.2,1.7-2.4,2.6-3.6c3.5-4.1,7-8.3,10.6-12.4
					c7.8-8.8,15.9-17.3,24.5-25.4c3.3-3.3,6.8-6.4,10.4-9.4c5.1-4.5,10.3-8.8,15.8-12.8c-0.4-0.3-0.8-0.5-1.3-0.6
					c-1.8-0.5-3.5-0.9-5.3-1.3c-1.8-0.4-3.6-0.8-5.3-1.1C225.6,47,225.1,47,224.6,47.2z"/>
				<path class="st5" d="M225.4,48.7c-7.4,5.8-14.5,12-21.4,18.4c-6.9,6.5-13.6,13.3-20.1,20.3c-4.9,5.3-9.6,10.7-14,16.3
					c-2.2,2.4-4.2,4.9-6,7.7c-1.7,2.8-3.1,5.7-3.7,8.9c-0.8,3.8-0.2,7.3,1.7,10.7c1.8,3.2,4.4,5.6,7.6,7.2
					c5.9,3.1,12.9,4.6,19.4,4.6c5.5,0,10.8-0.7,16.2-1.9c3.3-0.8,6.6-1.7,9.9-2.6c2-0.8,4-1.3,6.1-1.6c-0.1,0-0.2,0-0.4,0
					c0.4,0.2,0.8,0.3,1.2,0.5c-0.9-0.5-1.8-1-2.6-1.4c1.4,0.8,2.8,1.6,4.1,2.5c-2.8-2.2-5.5-4.3-8.3-6.5c2.7,2.4,5.4,4.9,8.2,7.4
					c-2.4-2.5-4.7-5.1-7-7.6c1.5,4,3.1,8,4.6,12c-0.7-3-1.4-6.1-2-9.1c0.1,2.8,0.2,5.7,0.3,8.5c0-2.4,0-4.8,0-7.2
					c-0.5,2.7-1,5.4-1.5,8.2c0.5-2.3,1-4.7,1.5-7c-1,2.6-2,5.3-3,7.9c1-2.3,2-4.6,3-7c-2.5,3.7-4.9,7.3-7.4,11
					c1.7-1.9,3.4-3.8,5.1-5.6c-3.2,3.4-6.5,6.7-9.7,10.1c0.6-0.6,1.3-1.1,1.9-1.7c-3.9,3.2-7.8,6.3-11.9,9.1
					c-3.4,2.4-6.8,4.7-10.2,7.1c-9.1,7.4-18.2,14.9-27.2,22.4c-9.1,7.6-18.2,15.2-27.3,22.9c0.4,0.2,0.8,0.3,1.2,0.2
					c1.5-0.1,2.9-0.3,4.4-0.4c1.5-0.2,2.9-0.4,4.4-0.6c0.4,0,0.8-0.1,1.1-0.4c18.6-16.2,37.2-32.4,55.8-48.6
					c3.2-2.8,6.4-5.7,9.4-8.7c1.5-1.5,3-3,4.5-4.6c2.5-2.3,4.4-5,5.8-8.2c-2.3,2.5-4.6,4.9-7,7.4c3.7-1.2,7.1-2.9,10.2-5.2
					c1.9-1.1,2.4-2.9,1.5-5.7c-0.1-0.4-0.4-0.8-0.8-1c-1.2-1.1-2.4-2.1-3.7-3.1c-1.2-1-2.5-2-3.8-2.9c-0.3-0.3-0.7-0.5-1.2-0.6
					c-0.9-0.1-1.8-0.1-2.6-0.1c0.1,0,0.2,0,0.4,0c-1.2-0.3-1.4-0.4-2.7-0.3c-4,0.1-7.9,1.4-11.9,1.8c-4.2,0.5-8.5,0.8-12.6,0.3
					c-1.5-0.2-2.9-0.4-4.4-0.7c-3.1-0.8-6.1-2-8.8-3.7c0.1,0.1,0.1,0.2,0.2,0.3c-0.1-0.5,0-1.1-0.1-1.6c-0.3-1.4-1.4-2.4-1.7-3.9
					c-0.6-3.1,0.9-6.5,2.5-9c0.8-1.3,1.7-2.5,2.7-3.7c3.5-4.2,7-8.4,10.6-12.5c7.8-8.9,16-17.3,24.5-25.5c3.3-3.3,6.8-6.5,10.4-9.5
					c5.1-4.6,10.4-8.9,15.9-12.9c-0.3-0.3-0.7-0.4-1.2-0.4c-1.5-0.2-3-0.4-4.5-0.5c-1.5-0.2-3-0.3-4.5-0.4
					C226.1,48.5,225.7,48.5,225.4,48.7z"/>
				<path class="st5" d="M221.6,44.9c-7.1,6.1-14.3,12.1-21.1,18.5c-7,6.5-13.7,13.4-20.1,20.4c-3.2,3.6-6.4,7.2-9.5,10.8
					c-3.1,3.7-6.1,7.5-9.1,11.2c-0.6,0.8-1.1,1.7-1.6,2.5c-2.1,3.5-3.7,7.2-4,11.3c-0.4,4.5,1.3,8.7,3.9,12.3
					c1.8,2.4,3.8,4.4,6.4,5.8c4.3,2.4,9.1,3.6,13.9,4.4c5.9,1,11.8,0.8,17.7-0.2c3.7-0.6,7.3-1.4,10.8-2.4c1.7-0.4,3.4-1,5.1-1.5
					c3.2-1.1,6.5-1.9,9.9-2.2c-0.4-0.3-0.7-0.5-1.1-0.8c0.4,1.1,0.8,2.1,1.2,3.2c0.1,1.5-0.6,2.7-1.8,3.6c-0.6,1.1-1.4,1.8-2.5,2.2
					c-1.2,0.7-2.4,1.2-3.7,1.5c-1.6,0.6-3.1,1.1-4.7,1.6c-0.7,0.2-1.4,0.4-2.1,0.5c-0.2,0.1-0.4,0.2-0.6,0.3
					c-1.7,1.3-3.4,2.6-5.1,3.9c-2.4,2-4.9,3.8-7.6,5.4c-4.3,2.8-8.7,5.4-13,8.2c-3.2,2.1-10.9,8.6-13.9,11.1
					c-13.7,11-27.1,22.3-40.6,33.5c-0.6,0.5,2.2,1.1,2.7,0.8c8.9-7.6,17.8-15.1,26.7-22.6c4.5-3.7,9-7.5,13.5-11.2
					c5-4.7,10.3-9,16-12.7c3.4-2.3,6.7-4.5,10.1-6.8c4.2-2.9,8-5.9,11.9-9.3c-0.2,0.1-0.5,0.3-0.7,0.4c3.9-0.8,7.8-1.9,11.4-3.6
					c2.4-1.2,5.4-3.1,5.4-6.2c0-1.5-0.4-3.1-1.8-4.1c-1.8-1.3-4.1-0.2-5.9,0.4c-10.2,3.4-20.4,6.6-31.4,6.3
					c-5.2-0.1-10.5-1.2-15.4-3c-3.4-1-5.8-3.3-7.2-6.8c-3.3-2.3-5.1-5.3-5.3-9c0-5.2,2.1-9.7,4.8-13.9c4.9-6.5,10-12.8,15.5-18.7
					c4.7-5.4,9.6-10.7,14.7-15.8c9.9-9.9,20.4-19.1,31.1-28.2C225.4,45.8,222.1,44.5,221.6,44.9z"/>
				<path class="st5" d="M221.1,50.8c-7.2,6-14.3,12.2-21.2,18.6c-6.9,6.6-13.6,13.4-20.1,20.5c-4.9,5.3-9.6,10.8-14,16.4
					c-2.3,2.4-4.3,5-6,7.9c-3.2,5.4-5.2,11.9-3.1,18.1c1.4,4.2,4.4,7.7,8,10.2c1.9,1.2,3.9,2.2,6.1,3c4,1.5,8.2,2.4,12.5,2.9
					c5.9,0.4,11.8,0,17.5-1.1c3.6-0.7,7.2-1.6,10.7-2.7c4-1.5,8.2-2.5,12.4-2.9c-0.4-0.3-0.7-0.7-1.1-1c0.2,0.3,0.4,0.5,0.6,0.8
					c-0.1-0.2-0.2-0.5-0.4-0.7c0.4,1.1,0.4,2.2,0,3.3c-1,2.1-2.5,3.6-4.5,4.6c-1.5,0.9-3.1,1.6-4.7,2.2c-1.5,0.7-3,1.3-4.6,1.8
					c-4.7,4.4-9.8,8.3-15.4,11.7c-3.7,2.4-7.4,4.7-11.2,7.1c-9.1,7.3-18.2,14.6-27.3,22.1c-9.1,7.5-18.1,15-27,22.5
					c-0.9,0.7,1.7,0.5,2,0.1c9-7.6,18-15.1,27-22.6c9-7.5,18.1-14.9,27.2-22.2c4.7-3.3,9.6-6.2,14.3-9.4c3.9-2.7,8.5-6.9,13-8.1
					c3.1-0.8,6.2-1.8,9-3.4c2.5-1.4,5.6-4.1,4.3-7.4c-0.4-1-1.1-1.8-1.9-2.7c-0.6-0.7-0.8-1-1.7-1.1c-1.9-0.4-5.6,1.2-6.8,1.7
					c-5,1.6-9.9,3.1-15.1,4c-7.5,1.4-15.2,1.8-22.6-0.2c-3.7-1-7.7-2.1-10.9-4.4c-3.2-2.3-5.5-5.6-6.9-9.2
					c-2.2-5.8,0.1-11.8,2.9-16.7c1.6-2.8,3.6-5.5,5.9-7.8c4.5-5.6,9.1-11.1,14-16.3c6.4-7,13.1-13.8,20-20.4
					c6.9-6.3,13.9-12.5,21-18.6c0.4-0.4-0.5-0.5-0.6-0.5C222.3,50.5,221.5,50.5,221.1,50.8z"/>
				<path class="st5" d="M224.8,49.3c-7.4,5.8-14.5,12-21.4,18.4c-6.9,6.5-13.6,13.3-20.1,20.3c-4.9,5.3-9.6,10.7-14.1,16.3
					c-2.3,2.4-4.2,4.9-6,7.7c-1.8,2.8-3.1,5.7-3.8,9c-0.8,3.8-0.2,7.3,1.7,10.8c1.8,3.3,4.5,5.6,7.9,7.2c5.9,2.9,12.7,4.4,19.3,4.3
					c5.4,0,10.8-0.7,16.1-1.9c3.3-0.8,6.6-1.7,9.8-2.6c2-0.8,4-1.3,6.1-1.6c-0.1,0-0.3-0.1-0.4-0.1c0.9,0.5,1.8,1,2.7,1.5
					c-3.2-3-6.5-5.9-9.7-8.9c3.1,4.7,6.1,9.3,9.2,14c-1.7-4.2-3.4-8.5-5.2-12.7c-1.4,5.9-2.7,11.8-4.1,17.7c2-3.3,3.9-6.6,5.9-9.9
					c-2.4,3.2-4.7,6.5-7.1,9.7c1.8-2.1,3.6-4.3,5.5-6.4c-3.5,3.9-7.1,7.9-10.6,11.8c0.8-0.7,1.6-1.4,2.4-2.1
					c-5.6,4.7-11.4,9.1-17.5,13.2c-4.2,2.7-8.2,5.8-11.9,9.1c-16,13.1-31.9,26.4-47.8,39.8c0.5,0.2,1,0.2,1.5,0.1
					c1.8-0.2,3.6-0.5,5.4-0.8c1.8-0.3,3.6-0.6,5.3-0.9c0.5,0,1-0.2,1.4-0.5c17.8-15.6,35.8-31,53.3-46.8
					c5.8-5.3,11.5-10.6,16.3-16.8c-0.1,0.1-0.2,0.2-0.3,0.3c2-1,4.2-1.9,6-3.2c0.6-0.4,1.1-0.8,1.7-1.2c0.9-1.1,1.3-2.3,1.2-3.7
					c-0.1-0.5-0.3-0.9-0.7-1.3c-1.1-1.4-2.3-2.8-3.5-4.2c-1.2-1.4-2.4-2.8-3.6-4.1c-0.3-0.4-0.7-0.8-1.2-0.9
					c-1.6-0.4-3.1-0.5-4.7-0.4c0.1,0,0.3,0.1,0.4,0.1c-1.1-0.3-1.5-0.4-2.6-0.5c-3.8-0.1-7.6,1.1-11.3,1.4c-3.9,0.4-8,0.6-11.9,0.1
					c-1.4-0.2-2.8-0.5-4.1-0.7c-2.8-0.7-5.3-1.9-7.7-3.4c-0.1,2.3-0.1,4.6-0.1,6.9c0.2-2.5,0.4-4.9,0.6-7.4c0-0.1,0-0.3,0-0.4
					c-0.3-1.2-1.2-2.1-1.4-3.3c-0.4-2.9,1.2-6.1,2.8-8.4c0.8-1.2,1.7-2.5,2.7-3.6c3.5-4.1,7-8.3,10.6-12.4
					c7.8-8.8,16-17.3,24.5-25.4c3.3-3.3,6.8-6.4,10.4-9.4c5.1-4.6,10.4-8.8,16-12.8c-0.4-0.3-0.9-0.4-1.4-0.4
					c-1.8-0.2-3.6-0.3-5.5-0.4c-1.8-0.1-3.6-0.2-5.5-0.2C225.8,49,225.3,49.1,224.8,49.3z"/>
				<path class="st5" d="M225,47.9c-7.4,5.8-14.5,12-21.3,18.4c-6.9,6.5-13.6,13.3-20.1,20.3c-4.9,5.3-9.6,10.7-14,16.3
					c-2.3,2.4-4.2,4.9-6,7.7c-1.7,2.8-3,5.7-3.6,8.9c-0.7,3.8-0.1,7.2,1.8,10.6c1.8,3.2,4.4,5.4,7.7,7c5.8,2.8,12.4,4.4,18.9,4.4
					c5.4,0,10.7-0.6,15.9-1.8c5.3-1.1,10.5-3.2,15.9-4.1c-0.1,0-0.2,0-0.4,0c0.4,0.2,0.8,0.3,1.2,0.5c-0.9-0.5-1.9-1-2.8-1.4
					c1.4,0.8,2.8,1.6,4.3,2.4c-3.2-2.4-6.3-4.8-9.5-7.2c3,4,6.1,8,9.1,12.1c-1.8-3.6-3.5-7.2-5.2-10.8c-0.6,5-1.2,10-1.8,15
					c1.2-3.2,2.5-6.4,3.7-9.6c-1.7,3.2-3.3,6.4-5,9.6c1.7-2.6,3.4-5.2,5.1-7.8c-5.9,8.7-13,15.9-21.6,21.6
					c-3.4,2.4-6.9,4.8-10.3,7.1c-9.2,7.5-18.4,15.1-27.6,22.6c-9.1,7.5-18.1,15.1-27.1,22.7c0.4,0.2,0.9,0.3,1.4,0.2
					c1.8,0,3.5-0.1,5.3-0.2c1.8-0.1,3.5-0.2,5.3-0.3c0.5,0,1-0.1,1.4-0.4c13.4-11.7,26.9-23.3,40.2-35.1
					c6.1-5.4,12.2-10.7,18.1-16.3c3.1-3,5.9-6.1,9-9.2c3.2-3.1,6.4-6.1,9.6-9.1c0.8-1,1.2-2.2,1.1-3.5c-0.1-0.4-0.3-0.8-0.7-1.1
					c-1.1-1.2-2.2-2.4-3.4-3.5c-1.1-1.2-2.3-2.3-3.5-3.4c-0.3-0.4-0.7-0.6-1.1-0.7c-2.1-0.4-2-0.4-4.6-0.4c0.1,0,0.3,0,0.4,0
					c-1.2-0.3-1.5-0.4-2.7-0.4c-3.8,0-7.7,1-11.5,1.3c-3.9,0.3-8,0.5-11.9-0.1c-1.4-0.3-2.7-0.5-4.1-0.8c-2.7-0.8-5.1-1.9-7.4-3.5
					c-0.1,2-0.1,4-0.2,6c0.2-2.1,0.4-4.3,0.6-6.4c0-0.1,0-0.2,0-0.4c-0.3-1.2-1.2-2-1.4-3.2c-0.5-2.8,1.2-6.1,2.7-8.3
					c0.8-1.2,1.7-2.4,2.7-3.6c3.5-4.1,7-8.3,10.6-12.4c7.8-8.8,15.9-17.3,24.5-25.4c3.3-3.3,6.8-6.4,10.4-9.4
					c5.1-4.5,10.4-8.8,15.9-12.8c-0.4-0.3-0.8-0.5-1.4-0.5c-1.8-0.4-3.6-0.7-5.4-1c-1.8-0.3-3.6-0.6-5.4-0.9
					C226,47.7,225.5,47.7,225,47.9z"/>
				<path class="st5" d="M223.1,49.8c-7.4,5.9-14.4,12-21.3,18.4c-7,6.5-13.6,13.3-20.1,20.4c-3.8,4.2-15.3,17.2-18.6,21.9
					c-3.6,5.2-6.7,11.3-5.4,17.8c0.9,4.5,3.5,8.4,7.3,11.2c1.6,1.1,3.3,2,5.1,2.8c4,1.6,8.2,2.7,12.4,3.3c7.4,0.9,15.1-0.2,22.3-1.9
					c3.4-0.9,6.7-1.8,10.1-2.9c1.9-0.8,4-1.4,6.1-1.7c-0.3-0.1-0.5-0.1-0.8-0.2c0.6,0.2,1.1,0.5,1.7,0.7c-0.5-0.3-1.1-0.6-1.6-0.9
					c0.9,0.6,1.8,1.1,2.6,1.7c-1.5-1.3-2.9-2.7-4.4-4c1.7,1.8,3.4,3.7,5.1,5.5c-1.2-1.6-2.4-3.1-3.6-4.7c0.9,1.8,1.9,3.5,2.8,5.3
					c-0.8-1.6-1.5-3.2-2.2-4.8c0.5,2.4-0.5,4.1-1.9,5.9c-3.1,4.4-7.3,7.9-12.4,10.3c-5.1,4.5-10.6,8.6-16.3,12.2
					c-1.9,1.2-3.7,2.5-5.6,3.7c-4.6,3.7-9.1,7.4-13.7,11c-13.7,11.1-27.1,22.4-40.6,33.8c-0.8,0.7,2.2,0.1,1.8,0.1
					c1.1-0.2,2.2-0.4,3.3-0.7c0.6-0.1,1.1-0.3,1.7-0.6c8.9-7.7,17.9-15.3,26.8-22.9c9.8-8.3,19.4-16.9,29.6-24.6
					c6.8-5.1,13.2-10.6,19.9-15.8c-0.9,0.7-1.9,1.3-2.8,2c2.9-1,5.8-2.1,8.6-3.6c0.9-0.2,1.7-0.7,2.3-1.4c0.4-2.5,0.8-5,1-7.6
					c0.1-0.8-1.7-1.6-2.2-2c-1.1-0.8-2.5-2.1-3.8-2.4c-2.1-0.5-4.2,0.2-6.2,0.7c-4.7,1-9.2,2.4-14,2.8c-4.1,0.4-8.2,0.5-12.3,0
					c-5.5-0.6-13.9-2.3-16.8-7.7c-1-1.9-2.1-3.6-2.5-5.8c-0.4-2.2,0.2-5.3,1-7.4c0.4-0.8,0.7-1.6,1-2.3
					c9.8-13.4,20.5-25.9,32.3-37.6c3.4-3.3,6.8-6.6,10.2-9.9c6.8-6.4,13.8-12.3,21.3-17.9c0.8-0.6-1.9-0.5-1.8-0.5
					c-1.1,0-2.3,0-3.4,0C224.2,49.6,223.6,49.7,223.1,49.8z"/>
				<path class="st5" d="M222.4,46.5c-7.2,6-14.2,12.2-21,18.6c-7,6.6-13.7,13.4-20.1,20.4c-6.5,7.1-12.7,14.4-18.6,22
					c-1,1.6-2,3.2-2.9,4.8c-1,2-1.7,3.6-2.2,5.8c-0.5,2.1-0.7,4.2-0.6,6.4c0.2,1.9,0.8,3.7,1.7,5.3c2.1,4.5,5.5,8,10,10.2
					c6.6,3.2,14.3,4.4,21.6,4.2c5.7-0.2,11.3-1.1,16.8-2.5c3.4-0.9,6.9-1.9,10.2-3c2.3-1.4,4.8-1.9,7.3-1.5
					c-0.6-0.4-1.1-0.9-1.7-1.3c0.4,1,0.9,2,1.3,3c-0.1,0.6-0.1,1.3-0.2,1.9c-0.6,2.7-3.6,4.1-5.8,5.2c-1.6,0.7-3.2,1.3-4.8,1.9
					c-1.1,0.4-2.4,0.6-3.4,1.1c-0.1,0.1-0.2,0.2-0.3,0.2c-1.6,1.4-3.3,2.8-4.9,4.2c-3.5,2.4-7,4.7-10.5,7.1
					c-1.7,1.1-3.5,2.2-5.2,3.3c-1.7,1.1-3.4,2.2-5.2,3.3c-6.9,5.5-13.8,11-20.6,16.6c-11.3,9.2-22.6,18.6-33.8,28
					c-0.5,0.4,2.1,0.9,2.6,0.5c15.5-13.2,31.1-26.4,47-39.2c3.7-3.3,7.6-6.3,11.8-8.9c3.4-2.3,6.8-4.6,10.2-6.9
					c2.5-2,5.1-3.9,7.8-5.5c1.6-1.4,3.3-2.3,5.4-2.6c2.7-0.8,5.3-1.7,7.8-3c2.4-1.3,5.5-4.4,4.1-7.5c-0.6-1.4-2-2.9-3.5-3.2
					c-2.2-0.5-5,1-6.8,1.6c-6.7,2.2-13.4,4.2-20.4,5.1c-5.9,0.7-11.5,0.7-17.3-0.7c-6.6-1.6-11.6-3.4-15.4-8.9
					c-2.3-3.4-3.7-7.2-3-11.3c0.6-3.9,2.2-7.4,4.3-10.8c3.1-4.8,6.6-9.3,10.7-13.4c3.2-3.6,6.4-7.2,9.5-10.8
					c12.6-13.9,26.7-26.3,40.8-38.7C225.6,46.9,222.8,46.1,222.4,46.5z"/>
				<path class="st5" d="M224.3,50.4c-7.4,5.8-14.5,12-21.3,18.4c-7,6.5-13.7,13.3-20.1,20.3c-4.9,5.3-9.6,10.7-14.1,16.3
					c-2.3,2.4-4.3,5-6,7.7c-3.8,6.2-5.9,13.3-2.2,20.1c1.8,3.3,4.6,5.8,7.9,7.6c6,3.2,13.4,4.8,20.2,4.7c5.5-0.1,11-0.8,16.4-2.1
					c3.4-0.8,6.7-1.8,10-2.8c2-0.8,4-1.3,6.1-1.6c-0.1,0-0.2,0-0.4,0c0.9,0.5,1.8,1.1,2.7,1.6c-2.6-2.5-5.3-5-8-7.5
					c2.8,3.6,5.6,7.2,8.4,10.8c-1.8-3.2-3.6-6.4-5.4-9.6c1.1,2.9,2.1,5.8,3.2,8.7c-0.9-2.6-1.7-5.2-2.6-7.8c0.3,2.2,0.6,4.4,1,6.7
					c-0.2-1.7-0.4-3.4-0.6-5.1c-0.1,1.3-0.2,2.6-0.3,4c0.1-0.8,0.2-1.6,0.3-2.5c-0.3,1.2-0.7,2.5-1,3.7c0.3-0.8,0.5-1.6,0.8-2.3
					c-0.9,1.9-1.7,3.8-2.6,5.7c0.8-1.5,1.5-3,2.3-4.5c-2.5,3.3-5,6.6-7.6,9.9c1.5-1.6,3-3.2,4.5-4.8c-3.1,3-6.2,6-9.4,9.1
					c1.6-1.4,3.2-2.8,4.8-4.2c-6.4,5.4-13,10.4-19.9,15c-4.5,2.8-8.7,5.9-12.6,9.4c-16,12.9-31.7,26.1-47.4,39.4
					c-1,0.8,2.9-0.2,2.4-0.1c1.5-0.4,3-0.7,4.4-1.1c0.8-0.2,1.5-0.4,2.3-0.8c19.5-16.9,39.1-33.6,58.8-50.3c3.1-2.6,6-5.2,9-7.9
					c1.4-1.2,2.8-2.5,4.1-3.7c1.9-1.7,3.6-3.6,5.1-5.6c-2.1,2.1-4.3,4.3-6.4,6.4c2.7-1,5.4-2.1,8-3.4c1.4-0.7,2.7-1.5,3.9-2.4
					c1-1,1.4-2.3,1.4-3.7c0-0.4-0.2-0.8-0.5-1.1c-0.9-1.2-1.8-2.4-2.8-3.6c-0.9-1.2-1.9-2.4-2.9-3.5c-0.2-0.4-0.6-0.6-1-0.8
					c-2.1-0.6-1.8-0.5-4.5-0.7c0.1,0,0.2,0,0.4,0c-1.2-0.3-1.3-0.4-2.6-0.3c-4.1,0.2-8.1,1.6-12.1,2.2c-4.4,0.6-8.9,1-13.4,0.6
					c-1.6-0.2-3.1-0.4-4.7-0.6c-3.6-0.8-7.1-2.1-10.4-3.8c0.1,0.1,0.1,0.2,0.2,0.3c-0.3-0.6-0.3-1.1-0.5-1.8c-0.2-1-0.7-1.9-1.2-2.7
					c-1.6-2.9-1-6.8,0.4-9.7c1.3-2.9,3.2-5.3,5.2-7.7c7.6-9.1,15.3-18,23.5-26.5c3.2-3.4,6.6-6.8,10-10c8.2-8.1,17-15.6,26.3-22.5
					c-0.3-0.2-0.6-0.3-1-0.3c-1.3,0-2.6,0-3.9,0C228.1,49.9,225.3,49.5,224.3,50.4z"/>
				<path class="st5" d="M224.7,48.6c-7.4,5.8-14.5,12-21.4,18.4c-6.9,6.5-13.6,13.3-20.1,20.3c-4.9,5.3-9.6,10.7-14,16.3
					c-2.3,2.4-4.2,4.9-6,7.7c-1.7,2.8-3.1,5.7-3.7,8.9c-0.7,3.8-0.1,7.3,1.8,10.7c1.9,3.2,4.5,5.5,7.8,7.1
					c5.9,2.8,12.6,4.3,19.1,4.3c5.4,0,10.7-0.7,16-1.9c5.3-1.2,10.5-3.3,15.9-4.1c-0.1,0-0.3,0-0.4-0.1c0.9,0.5,1.8,1,2.7,1.5
					c-3.2-2.7-6.3-5.4-9.5-8c3,4.3,6.1,8.7,9.1,13c-1.7-3.9-3.4-7.8-5.1-11.7c-0.7,5.3-1.4,10.7-2.1,16c1.3-3.4,2.7-6.9,4-10.3
					c-1.8,3.4-3.6,6.8-5.4,10.2c1.8-2.8,3.6-5.6,5.4-8.4c-7.6,10.3-16.6,18.9-27.1,25.7c-4.3,2.8-8.3,5.9-12.1,9.3
					c-16,13.1-31.9,26.3-47.7,39.6c0.5,0.2,0.9,0.3,1.5,0.1c1.8-0.1,3.6-0.3,5.4-0.5c1.8-0.2,3.6-0.4,5.4-0.6c0.5,0,1-0.1,1.4-0.4
					c17.9-15.7,36-31.2,53.6-47.2c3.1-2.8,6.2-5.7,9.1-8.6c3.1-3.1,5.9-6.3,8.6-9.8c-2.4,1.8-4.8,3.7-7.3,5.5
					c6.4-1.5,10.8-4.7,13.2-9.7c0.6-0.8,0.8-1.7,0.7-2.7c-0.1-0.5-0.3-0.9-0.7-1.2c-1.1-1.3-2.2-2.6-3.4-3.9
					c-1.1-1.3-2.3-2.5-3.5-3.8c-0.3-0.4-0.7-0.7-1.1-0.8c-1.5-0.4-3.1-0.5-4.7-0.4c0.1,0,0.3,0,0.4,0.1c-1.1-0.3-1.5-0.4-2.6-0.4
					c-3.8-0.1-7.6,1-11.4,1.4c-3.9,0.3-8,0.5-11.9,0c-1.4-0.2-2.7-0.5-4.1-0.8c-2.7-0.7-5.2-1.9-7.6-3.4c-0.1,2.2-0.2,4.3-0.2,6.5
					c0.2-2.3,0.4-4.6,0.7-6.9c0-0.1,0-0.3,0-0.4c-0.3-1.2-1.2-2-1.4-3.2c-0.4-2.8,1.2-6.1,2.7-8.4c0.8-1.2,1.7-2.4,2.7-3.6
					c3.5-4.1,7-8.3,10.6-12.4c7.8-8.8,16-17.3,24.5-25.4c3.3-3.3,6.8-6.4,10.4-9.4c5.1-4.5,10.4-8.8,15.9-12.8
					c-0.4-0.3-0.9-0.5-1.4-0.5c-1.8-0.3-3.7-0.5-5.5-0.7c-1.9-0.2-3.7-0.4-5.6-0.5C225.7,48.3,225.2,48.4,224.7,48.6z"/>
				<path class="st5" d="M224.6,49.6c-7.3,5.9-14.4,12-21.2,18.4c-6.9,6.5-13.6,13.3-20.1,20.3c-4.9,5.3-9.6,10.7-14.1,16.3
					c-2.3,2.4-4.2,5-6,7.7c-3.8,6.1-5.8,13.2-2.1,20c1.8,3.3,4.5,5.7,7.7,7.5c2.7,1.4,5.5,2.5,8.5,3.2c3.8,1.2,7.8,1.7,11.8,1.6
					c5.6-0.1,11-0.8,16.4-2c3.4-0.8,6.7-1.8,10-2.8c2.2-1.3,4.6-1.6,7-1.1c-0.8-0.4-1.5-0.9-2.3-1.3c1.3,0.8,2.6,1.6,3.8,2.4
					c-2.4-1.9-4.8-3.9-7.1-5.8c2.4,2.3,4.8,4.6,7.1,6.8c-2-2.3-4-4.6-6-6.9c1.6,3.4,3.2,6.8,4.8,10.2c-1.1-2.8-2.1-5.6-3.2-8.4
					c-2,4.5-3.9,9.1-5.9,13.6c1.4-1.9,2.8-3.8,4.1-5.6c-2,2.1-3.9,4.3-5.9,6.4c1.3-1.3,2.7-2.6,4-3.9c-3,2.7-6,5.5-8.9,8.2
					c1.4-1.1,2.8-2.3,4.2-3.5c-6.3,5.2-12.9,10-19.7,14.5c-6.8,4.4-13.1,9.3-19.1,14.8c-13.6,11.2-27.1,22.5-40.6,33.8
					c-0.9,0.7,2.6,0,2.2,0.1c1.3-0.2,2.7-0.5,4-0.8c0.7-0.1,1.4-0.3,2-0.6c8.9-7.7,17.9-15.4,26.8-23.1c9-7.7,18-15.4,27-23
					c6.4-5.2,12.6-10.6,18.8-16.1c-1.8,1.4-3.6,2.9-5.4,4.3c3.5-2.7,7.3-5,11.2-6.9c1.1-0.5,2.1-1,3.1-1.6c2.9-1.9,1.9-1.9,2.6-6.4
					c0.1-1-3.4-3.4-3.8-3.7c-1-0.8-2.9-3-4.3-3.1c-1.7-0.2-3.2-0.6-4.8-0.5c-2.7,0.3-5.3,0.8-7.9,1.5c-2.9,0.6-5.9,1.1-8.8,1.4
					c-4.5,0.4-9.5,0.5-13.9-0.4c-4-0.8-7.6-2.2-11.1-4.4c-0.1-0.5-0.2-0.9-0.4-1.4c-0.5-1.3-1.1-2.5-1.8-3.6c-0.5-1.5-0.6-3-0.4-4.5
					c0.3-2.4,1.1-4.5,2.3-6.6c0.8-1.4,1.7-2.7,2.6-3.9c3.5-4.2,7-8.4,10.6-12.7c6.2-7.1,12.6-14.1,19.4-20.7
					c9.8-9.9,20.2-19,31.3-27.5c-0.2-0.2-0.5-0.4-0.9-0.3c-1.2-0.1-2.3-0.2-3.5-0.2C228,49.3,225.4,48.9,224.6,49.6z"/>
				<path class="st5" d="M220.9,51.2c-10.3,9.5-20.8,18.7-30.6,28.7c-3.3,3.5-6.6,6.9-9.9,10.4c-6.5,7.1-12.7,14.4-18.6,22
					c-3.2,5-6,10.8-5.3,16.9c0.6,5.4,4.3,10.9,8.8,13.9c3.7,2.4,8,3.8,12.3,4.8c7.9,1.8,15.9,1.4,23.7-0.1c3.6-0.7,7.2-1.6,10.7-2.7
					c4-1.5,8.2-2.5,12.5-2.9c-0.5-0.5-1-1.1-1.5-1.6c0.3,0.5,0.7,0.9,1,1.4c-0.1-0.2-0.2-0.5-0.4-0.7c0.2,1.3,0.3,2.2,0,3.5
					c-0.7,2.6-3.7,4.2-5.9,5.3c-2.6,1.3-5.4,2.1-8.1,3.2c-3.3,2.6-6.6,5.3-9.9,7.9c-1.8,1.2-3.7,2.4-5.5,3.7
					c-3.6,2.3-7.2,4.5-10.7,6.9c-6,4-14.5,11.6-20.7,16.7c-11.4,9.3-22.6,18.6-33.8,28.1c-0.3,0.2-0.1,0.5,0.1,0.6
					c0.3,0.1,1.2-0.2,1.4-0.4c16.5-13.9,32.9-27.8,49.9-40.9c4.4-3.8,9.2-7.2,14.2-10.2c3.3-2.1,6.6-4.3,9.7-6.6
					c1.1-0.9,2.4-1.6,3.6-2.3c1.7-1.5,3.6-2.4,5.8-2.7c2.7-0.8,5.3-1.7,7.8-3c2.5-1.3,5.7-4.2,4.4-7.5c-0.4-1-1.2-1.8-1.9-2.7
					c-0.6-0.7-0.8-1-1.7-1.2c-1.9-0.4-5.6,1.3-6.9,1.7c-5,1.6-9.9,3.1-15.1,4c-5.3,1-11.1,1.6-16.5,1.1c-5.4-0.5-11.2-1.9-16-4.6
					c-3.6-2.1-7.2-6.1-8.4-10.2c-0.3-2-0.6-4.1-0.9-6.1c0.2-2,0.6-3.9,1.2-5.8c0.9-2.6,2.4-4.9,3.8-7.2c11.7-15,24.5-29.1,38.4-42.2
					c6.8-6,13.3-12.1,19.8-18.5C222.5,51.2,221.3,50.9,220.9,51.2z"/>
			</g>
		</g>
	</g>
	<g>
		<g>
			<g>
				<path class="st5" d="M-76.4-202.4c-7.5,9-14.7,18-20.9,27.9c-5.3,8.4-10.1,17-14.4,25.8c-2.7,5.4-6.1,11.9-2,17.6
					c1.7,2.4,3.9,4.4,6.6,5.8c2.8,1.4,5.7,2.4,8.7,3.1c3.3,0.8,6.9,1.1,10.2,1.2c3.9,0,7.9,0.1,11.8,0.1c7.7-0.3,15.3-1,22.8-2.1
					c-2.5-2.6-4.9-5.2-7.4-7.8c0.6,1.3,0.8,2.6,0.5,3.9c-0.3,4.3-0.7,8.7-1.1,13c0.5-2.8,0.9-5.6,1.4-8.4c-1.3,3.8-2.7,7.5-4,11.3
					c1.2-2.5,2.3-5,3.5-7.4c-2.2,3.5-4.3,7-6.5,10.5c1.7-2.1,3.4-4.3,5.1-6.4c-3,3.3-5.9,6.6-8.9,9.9c1.3-1.1,2.6-2.3,3.9-3.4
					c-4.6,4.1-9.5,7.8-14.6,11.2c-1.4,0.8-2.6,1.6-3.8,2.7C-94.4-86-103.1-78-111.8-70c-8.7,8-17.3,16.1-25.9,24.2
					c0.4,0.2,0.9,0.3,1.4,0.2c1.7,0,3.4-0.1,5.1-0.2c1.7-0.1,3.4-0.2,5.1-0.3c0.5,0,0.9-0.1,1.3-0.4c12.7-12.5,25.5-24.9,38.2-37.3
					c5.9-5.8,13.4-12.3,18.7-19.2c2.2-2.8,3.9-5.9,5.8-8.8c0.9-1.5,2-2.8,3.3-4c1.9-2.2,3.6-4.6,5.1-7.1c0.4-0.6-3.3-4.2-3.5-4.3
					c-1-1.1-2-2.1-3-3.2c-0.3-0.4-0.6-0.6-1-0.7c-5.2,0.6-10.5,0.9-15.8,1c-5.4,0.3-10.8,0.2-16.2-0.4c-1.5-0.4-2.9-0.9-4.2-1.7
					c-1.2-0.7-2.5-0.8-3.6-1.7c-0.4-0.6-0.9-1.2-1.5-1.6c-0.6-0.4-1-0.9-1.2-1.6c-0.5-2.9,0.9-5.5,2.3-7.9
					c2.5-5.2,5.3-10.3,8.2-15.3c2.8-5.1,5.8-10,9.1-14.8c2.2-3.2,4.4-6.3,6.6-9.5c4.4-6,9.2-11.7,14.3-17.1
					c-0.4-0.3-0.9-0.4-1.4-0.4c-1.8-0.1-3.5-0.2-5.3-0.3c-1.8-0.1-3.5-0.1-5.3-0.2C-75.5-202.7-76-202.6-76.4-202.4z"/>
				<path class="st5" d="M-75.8-200.8c-7.5,9-14.7,18-21,27.9c-5.3,8.4-10.1,17-14.5,25.9c-2.7,5.4-6.2,11.9-2.3,17.8
					c1.7,2.6,3.9,4.6,6.6,6c2.8,1.5,5.8,2.6,8.9,3.4c3.4,0.9,7.2,1.1,10.7,1.3c11.7,0.4,23.3-0.8,34.9-2.2c-2.5-3-5.1-6.1-7.6-9.1
					c0.6,1.6,0.7,3.1,0.5,4.7c-0.3,3.2-0.7,6.4-1,9.6c0.2-1.6,0.5-3.1,0.7-4.7c-1.3,3.8-2.6,7.6-3.9,11.4c1.1-2.7,2.2-5.5,3.3-8.2
					c-2.2,3.7-4.3,7.4-6.5,11.1c1.4-2.2,2.9-4.4,4.3-6.6c-2.5,3.1-5.1,6.2-7.6,9.4c1.9-1.9,3.7-3.8,5.6-5.8
					c-5.1,5.3-10.7,9.9-16.8,14c-3.7,2.3-7.1,5.1-10.1,8.3c-15.4,13.9-30.5,28.2-45.6,42.4c0.4,0.2,0.8,0.2,1.2,0.1
					c1.4-0.2,2.9-0.4,4.3-0.7c1.4-0.2,2.9-0.5,4.3-0.8c0.4,0,0.8-0.2,1.1-0.5c12.6-12.3,25.3-24.7,38-36.9
					c5.9-5.7,11.8-11.3,17.4-17.2c1.4-1.5,2.9-3.1,4.3-4.6c1.7-2,3.6-3.9,5.6-5.7c3.2-3.2,5.8-6.5,8.4-10.2c0.4-0.6-3.4-4.6-3.5-4.8
					c-1-1.2-2-2.4-3.1-3.5c-0.3-0.4-0.6-0.6-1-0.8c-5.3,0.6-10.6,1-15.9,1.2c-5.6,0.3-11.2,0.3-16.7,0c-1.8-0.4-3.4-0.9-5-1.7
					c-1.4-0.7-2.9-1.1-4.2-2.1c-0.5-0.7-1.1-1.3-1.8-1.9c-0.7-0.4-1.1-1.1-1.3-1.9c-0.5-3.1,0.8-5.8,2.3-8.4
					c2.5-5.2,5.2-10.4,8.2-15.4c2.8-5.1,5.8-10,9.1-14.8c2.2-3.2,4.4-6.4,6.6-9.5c4.5-6.1,9.3-11.8,14.4-17.3
					c-0.4-0.2-0.8-0.3-1.2-0.2c-1.5,0.1-3,0.2-4.5,0.3c-1.5,0.1-3,0.3-4.5,0.4C-75.1-201.2-75.5-201.1-75.8-200.8z"/>
				<path class="st5" d="M-79.8-204.1c-4.9,6-9.6,12.1-14.1,18.4c-4.6,6.5-8.8,13.2-12.8,20.1c-2.1,3.5-4,7.1-5.8,10.7
					c-1.7,3.5-3.4,7.1-5.2,10.6c-0.8,2.4-1.5,5.1-1.3,7.6c0.2,3.2,1.6,5.7,3.6,8.1c2.4,2.9,5.1,4.9,8.6,6.4c2.4,1.1,5.9,2.1,8.5,2.6
					c2.6,0.5,5.5,0.7,8.1,0.8c5.2,0,10.3-0.1,15.4-0.2c7.8-0.4,15.6-1.2,23.4-2.5c-0.3-0.3-0.6-0.7-0.8-1c-2.7,4.3-6,7.9-10.1,11
					c-2.5,1.8-4.9,3.5-7.4,5.3c-4.4,2.9-9.2,5.5-13.8,8.2c-1.8,1.1-3.6,2.1-5.4,3.2c-2.3,1.9-4.6,3.9-6.7,6
					C-111-75.1-126-61.2-141-47.1c-0.6,0.5,2.1,1,2.5,0.7c8.5-8.1,17-16.1,25.6-24.2c9.4-9,19.1-17.6,29.2-25.9
					c3.4-2.3,6.9-4.4,10.4-6.6c3.9-2.4,7.9-4.7,11.5-7.6c1.3-1,2.5-2.1,3.6-3.2c2.7-2.3,5-4.8,7-7.7c0.3-0.4-0.3-1.2-0.7-1.1
					c-7.6,1.3-15.3,2.1-23,2.6c-3.8,0.1-7.7,0.2-11.6,0.3c-11.6,1.1-21.4-3.7-29.5-14.2c-0.3-1.3-0.3-2.6-0.1-4
					c1.1-11.9,9.3-22.1,15.5-32.1c3-5.1,6.3-10.1,9.8-14.9c4.6-6.1,9.2-12.2,13.8-18.3C-76.6-204-79.5-204.5-79.8-204.1z"/>
				<path class="st5" d="M-80-198.1c-7.3,9.1-14.4,18.4-20.8,28.2c-3.2,5-6.2,10.1-9,15.4c-2.9,5.2-5.6,10.6-8.1,16
					c-1,3.2-2,7.2-0.7,10.6c2.9,8.1,11.9,12.5,19.9,13.9c3.3,0.6,6.7,0.9,10.1,0.8c4.6,0,9.2-0.1,13.8-0.2
					c7.8-0.4,15.6-1.2,23.4-2.5c-0.5-0.8-1-1.7-1.4-2.5c-1.7,3-3.7,5.7-6.2,8c-2.1,2.3-4.4,4.4-6.9,6.2c-4.1,3.2-8.6,5.9-13,8.6
					c-3.4,2.1-6.9,4.1-10.3,6.3c-8.8,7.8-17.5,15.7-26.1,23.6c-8.6,8-17.2,16-25.8,24c-0.8,0.8,1.7,0.4,2,0
					c8.5-8.1,17.1-16.1,25.7-24.2c9.3-8.8,18.9-17.3,28.8-25.5c3.5-2.2,7.1-4.2,10.7-6.2c2.7-1.6,5.3-3.2,7.9-4.9
					c2.7-1.8,5.2-3.7,7.5-5.8c2.7-2.3,5-4.9,7.1-7.8c0.3-0.4-0.9-2.6-1.4-2.5c-9.6,1.3-19,2.3-28.7,2.5c-4.3,0.1-8.7,0.2-13-0.2
					c-3.3-0.4-6.5-1.2-9.6-2.4c-2.9-1.2-5.9-2.6-8.1-5c-1.6-1.7-2.9-3.6-3.8-5.7c-2-4.9,1.4-10.9,3.3-15c4.3-8.9,9.1-17.6,14.4-25.9
					c6.3-9.8,13.4-19,20.6-28.1c0.4-0.5-0.7-0.4-0.7-0.4C-78.8-198.6-79.7-198.5-80-198.1z"/>
				<path class="st5" d="M-76.4-200.2c-7.5,9-14.7,18.1-21,28c-5.3,8.4-10.1,17-14.5,25.9c-2.7,5.5-6.2,12-2.3,17.8
					c1.7,2.6,3.9,4.6,6.7,6c2.8,1.4,5.9,2.5,9,3.3c3.3,0.8,7.2,1,10.6,1.1c3.9,0,7.9,0,11.8,0c7.7-0.3,15.3-1.1,22.9-2.2
					c-2.7-3.6-5.4-7.2-8-10.8c-0.1,6.6-0.3,13.2-0.4,19.8c0.5-3.6,1-7.1,1.5-10.7c-1.5,4.5-2.9,9-4.4,13.6c1.4-3.4,2.8-6.9,4.2-10.3
					c-2.4,4.4-4.9,8.8-7.3,13.2c1.8-2.8,3.6-5.6,5.4-8.3c-2.9,3.7-5.7,7.4-8.6,11.1c2.3-2.5,4.6-4.9,6.9-7.4
					c-6,6.4-12.7,12.1-19.9,17c-5.5,3.7-10.5,8.1-14.9,13.2c-13.1,12.1-26.1,24.3-39.1,36.5c0.5,0.2,1,0.2,1.5,0
					c1.8-0.3,3.5-0.7,5.3-1.1c1.8-0.4,3.5-0.8,5.2-1.2c0.5,0,1-0.2,1.3-0.6c14.8-14.5,29.7-29,44.4-43.6c3.8-3.7,7.3-7.2,10.7-11.2
					c2.5-2.9,4.4-6.1,6.5-9.3c-2.5,2.7-5,5.5-7.5,8.2c4.2-3.2,8.2-6.8,11.8-10.6c2-2.3,3.8-4.7,5.4-7.3c0-0.5-0.2-1-0.6-1.3
					c-1-1.5-2.1-3-3.1-4.5c-1.1-1.5-2.2-2.9-3.3-4.4c-0.3-0.5-0.6-0.8-1.1-1c-5.2,0.6-10.4,0.9-15.7,1c-5.4,0.3-10.8,0.2-16.3-0.2
					c-1.5-0.4-2.9-0.8-4.2-1.6c-1.2-0.7-2.4-0.8-3.5-1.7c-0.3-0.6-0.8-1.2-1.4-1.6c-0.6-0.4-0.9-0.9-1.1-1.6
					c-0.3-2.9,1.1-5.5,2.5-7.9c2.5-5.2,5.3-10.3,8.2-15.3c2.8-5.1,5.9-10,9.1-14.8c2.2-3.2,4.4-6.3,6.6-9.5
					c4.5-6,9.3-11.8,14.5-17.2c-0.5-0.2-1-0.2-1.5-0.1c-1.8,0.2-3.7,0.4-5.5,0.6c-1.8,0.2-3.7,0.5-5.5,0.8
					C-75.5-200.7-76-200.5-76.4-200.2z"/>
				<path class="st5" d="M-76-201.7c-7.5,9-14.7,18-21,27.9c-5.3,8.4-10.1,16.9-14.4,25.8c-2.7,5.4-6.2,11.9-2.1,17.6
					c1.7,2.5,3.9,4.4,6.6,5.8c2.8,1.4,5.7,2.4,8.7,3.2c3.3,0.8,6.9,1.1,10.3,1.2c3.9,0,7.9,0.1,11.8,0.1c7.7-0.3,15.3-1,22.9-2.1
					c-2.7-3-5.3-6-8-9c0.6,1.3,0.9,2.6,0.7,4c-0.1,4.7-0.4,9.3-0.8,14c0.4-3.1,0.8-6.3,1.2-9.4c-1.3,4.1-2.6,8.2-3.9,12.2
					c1.1-2.8,2.3-5.5,3.4-8.3c-2.1,3.8-4.3,7.5-6.4,11.3c1.7-2.4,3.4-4.8,5.1-7.2c-2.9,3.6-5.9,7.2-8.8,10.8c2-1.9,3.9-3.8,5.9-5.7
					c-5.1,5-10.6,9.5-16.5,13.5c-3.8,2.4-7.2,5.2-10.2,8.5c-15.3,13.9-30.5,28.1-45.6,42.3c0.4,0.2,0.9,0.3,1.4,0.2
					c1.7-0.1,3.5-0.3,5.2-0.5c1.7-0.2,3.4-0.4,5.2-0.6c0.5,0,1-0.1,1.3-0.4c10.6-10.4,21.2-20.8,31.8-31.2
					c4.3-4.1,8.6-8.3,12.8-12.5c3.2-2.9,6.3-6.1,9.1-9.4c1-1.1,2.1-2.3,3-3.5c1.8-2.4,3.4-5.3,5-7.9c-0.7,0.7-1.3,1.4-1.9,2
					c2.1-1.9,4.1-3.9,6-6.1c2-2.2,3.7-4.6,5.2-7.2c0.4-0.7-3.6-4.8-3.8-4.9c-1.1-1.2-2.2-2.4-3.3-3.6c-0.3-0.4-0.6-0.7-1.1-0.8
					c-5.2,0.6-10.5,0.9-15.7,1c-5.4,0.3-10.7,0.2-16.1-0.4c-1.4-0.4-2.8-0.9-4.1-1.7c-1.1-0.7-2.4-0.8-3.4-1.6
					c-0.3-0.6-0.8-1.1-1.4-1.5c-0.6-0.3-1-0.9-1.1-1.6c-0.4-2.9,1-5.5,2.4-7.8c2.5-5.2,5.3-10.3,8.2-15.3c2.8-5.1,5.9-10,9.1-14.8
					c2.2-3.2,4.4-6.3,6.6-9.5c4.4-6,9.2-11.7,14.4-17.1c-0.4-0.3-0.9-0.4-1.4-0.3c-1.8-0.1-3.6-0.1-5.4,0c-1.8,0-3.6,0.1-5.4,0.1
					C-75.1-202.1-75.6-202-76-201.7z"/>
				<path class="st5" d="M-78.1-199.5c-5.5,6.7-9.4,11.3-14.5,18.4c-4.5,6.4-8.8,13.2-12.7,19.9c-3,5.1-5.8,10.4-8.3,15.8
					c-1.4,2.4-2.6,4.9-3.3,7.5c-0.7,2.4-1.1,5.2-0.3,7.7c2.5,7.5,10.6,11.8,17.9,13.3c3.2,0.7,6.4,1,9.6,1.1
					c12.5,0.5,24.8-0.9,37.1-2.6c-1.4-1.9-2.8-3.8-4.2-5.7c-0.1,1.2-0.2,2.4-0.4,3.6c-0.8,3.3-2.4,6.1-4.8,8.5
					c-2.9,5.2-7.2,9.2-12.7,12c-3.9,3.3-8.1,6.3-12.4,9c-0.2,0.1-0.3,0.2-0.4,0.3c-4.4,3.9-8.8,7.8-13.1,11.8
					c-13.1,11.8-25.9,24-38.8,36c-0.8,0.7,2.2,0,1.8,0c1.1-0.3,2.2-0.6,3.2-0.9c0.6-0.1,1.1-0.3,1.6-0.6
					C-118-58.6-103.2-72.9-88-86.8c2.9-3,6-5.7,9.3-8.2c2-1.6,4-3.1,5.9-4.7c-1.1,0.8-2.2,1.6-3.3,2.4c4.3-2.8,8.7-5.6,12.7-9
					c1.8-1.5,3.5-3.1,5.1-4.8c2.1-2.2,3.9-4.6,5.5-7.2c0.4-0.6-1.6-2.9-1.8-3.2c-0.3-0.4-1.6-2.9-2.4-2.8c-5.5,0.8-11,1.3-16.5,1.5
					c-3.9,0.3-7.9,0.4-11.8,0.4c-3.1,0.4-6.1,0.3-9.2-0.3c-1-0.2-2-0.4-3-0.7c-2.4-0.7-4.8-1.6-6.9-2.9c-1.7-1.1-3.8-2.7-4.9-4.3
					c-1.8-2.8-1.9-6.3-0.8-9.3c0.3-0.9,0.7-1.9,1.2-2.8c1.8-3.5,3.5-7,5.3-10.5c1.9-3.4,3.8-6.8,5.7-10.2c7.6-13.4,16.6-25.8,27-37
					c0.7-0.8-2.1-0.2-1.9-0.2c-1.2,0.2-2.4,0.4-3.5,0.6C-77-199.9-77.6-199.7-78.1-199.5z"/>
				<path class="st5" d="M-79-202.5c-7.2,9.2-14.3,18.4-20.6,28.2c-3.2,5-6.2,10.2-9,15.4c-2.9,5.2-5.6,10.6-8.1,16.1
					c-1.5,4.8-2.2,9.7,0.8,14.1c4.2,6,11.1,9.4,18.3,10.6c3.3,0.6,6.6,0.8,9.9,0.8c4.6,0,9.1-0.1,13.7-0.2
					c7.8-0.4,15.6-1.2,23.4-2.5c-0.4-0.6-0.8-1.2-1.2-1.8c-1.7,3.1-3.8,5.8-6.3,8.3c-1.1,1.1-2.2,2.2-3.3,3.2
					c-4.5,4.1-9.9,7.1-15.1,10.3c-2.6,1.6-5.2,3.2-7.9,4.7c-3.9,2-7.3,4.7-10.2,8.1c-15.3,13.8-30.4,27.8-45.4,41.8
					c-0.5,0.5,2,0.8,2.4,0.4c8.5-8.1,17-16.2,25.6-24.2c8.5-7.9,17.1-15.8,25.8-23.7c3.3-2.2,6.7-4.3,10.2-6.4
					c3.8-2.3,7.6-4.5,11.2-7c2.7-1.8,5.1-3.8,7.5-5.9c2.6-2.3,5-4.9,7-7.8c0.3-0.4-0.8-1.9-1.2-1.8c-9.6,1.3-19,2.5-28.6,2.7
					c-4.4,0.1-8.8,0.4-13.2,0c-3.4-0.3-6.6-1.1-9.8-2.3c-1.9-0.6-3.6-1.5-5.1-2.9c-2.3-1.1-4.1-2.8-5.3-5.1c-0.5-1.1-1-2.1-1.5-3.2
					c-0.1-0.9-0.2-1.8-0.2-2.7c-0.1-4.2,2-7.7,3.7-11.5c4.3-9.4,9.3-18.4,14.9-27.1c6.2-9.7,13.4-18.8,20.3-28
					C-75.9-202.7-78.6-202.9-79-202.5z"/>
				<path class="st5" d="M-76.9-199c-7.5,9-14.7,18.1-20.9,28c-5.3,8.4-10.1,17-14.5,25.9c-2.7,5.6-6.2,12.1-2.4,18.1
					c3.6,5.6,9.8,8.3,16,9.9c3.5,0.9,7.5,1.1,11.1,1.2c4,0,8.1-0.1,12.1-0.1c7.7-0.3,15.4-1.1,23-2.3c-2.2-3-4.3-6-6.5-9
					c0.5,1.6,0.5,3.2,0.2,4.8c-0.5,4.5-1.9,8.8-4.3,12.8c0.7-1.4,1.3-2.8,2-4.2c-3.1,4-6.3,8-9.4,12c1.4-1.5,2.7-2.9,4.1-4.4
					c-2.9,2.7-5.8,5.4-8.6,8.1c1.9-1.6,3.8-3.3,5.7-4.9c-5.2,4.3-10.6,8.4-16.3,12.1c-2.7,1.8-5.1,3.9-7.2,6.3
					C-108-71-123-56.8-138-42.7c-0.9,0.9,2.9-0.3,2.4-0.2c1.5-0.4,2.9-0.9,4.4-1.4c0.8-0.2,1.5-0.5,2.2-0.9
					c12.7-12.3,25.4-24.7,38.3-36.9c4.8-4.6,9.6-9.1,14.5-13.6c1.6-1.4,3.1-2.8,4.7-4.2c3.4-2.7,7.1-5.1,10.3-8.1
					c3.4-3.2,6.1-6.5,8.8-10.3c0.5-0.7-2.8-4.6-3-4.9c-0.8-1.2-1.7-2.4-2.7-3.6c-0.2-0.4-0.5-0.7-0.9-0.8
					c-5.4,0.7-10.7,1.2-16.1,1.3c-5.8,0.3-11.7,0.5-17.5,0.3c-2.1-0.3-4.1-0.8-6-1.7c-1.8-0.7-3.6-1.4-5.1-2.6
					c-0.7-0.8-1.4-1.5-2.1-2.2c-0.7-0.6-1.2-1.3-1.4-2.3c-0.6-3.3,0.5-6.1,2-9c2.5-5.3,5.2-10.4,8.2-15.4c2.8-5.1,5.8-10.1,9.1-14.9
					c2.2-3.2,4.4-6.4,6.6-9.6c4.4-6.1,9.2-11.9,14.4-17.4c-0.3-0.2-0.7-0.2-1.1-0.1c-1.3,0.2-2.7,0.5-4,0.8
					C-73.1-200.2-76.1-200.1-76.9-199z"/>
				<path class="st5" d="M-76.4-201c-7.5,9-14.7,18-21,28c-5.3,8.4-10.1,17-14.5,25.9c-2.7,5.4-6.2,11.9-2.2,17.7
					c1.7,2.5,3.9,4.5,6.7,5.9c2.8,1.4,5.8,2.4,8.8,3.2c3.3,0.8,7.1,1,10.4,1.1c3.9,0,7.9,0,11.8,0.1c7.7-0.3,15.3-1,22.9-2.2
					c-2.6-3.3-5.3-6.6-7.9-9.9c1.4,6.3,1.3,12.6-0.3,18.9c0.5-3.4,1-6.7,1.5-10.1c-1.4,4.3-2.8,8.6-4.2,12.9c1.2-3,2.5-5.9,3.7-8.9
					c-2.2,3.9-4.5,7.9-6.7,11.8c1.8-2.6,3.6-5.2,5.4-7.8c-2.9,3.6-5.7,7.1-8.6,10.7c2.3-2.3,4.7-4.5,7-6.8
					c-6.2,6.1-12.9,11.6-20,16.5c-5.6,3.8-10.7,8.2-15.2,13.4c-13.1,12-26,24.1-38.8,36.2c0.5,0.2,0.9,0.2,1.5,0.1
					c1.8-0.2,3.6-0.5,5.3-0.8c1.8-0.3,3.6-0.6,5.3-0.9c0.5,0,1-0.2,1.4-0.5c10.6-10.4,21.2-20.8,31.8-31.2
					c4.2-4.1,8.4-8.2,12.6-12.4c2.2-2.1,4.4-4.3,6.5-6.5c1.9-2.1,3.9-4.2,5.7-6.5c1.8-2.4,3.4-5.2,5-7.8c-2.5,2.5-5.1,5.1-7.6,7.6
					c4.2-3.3,8-6.9,11.6-10.9c2-2.2,3.7-4.7,5.2-7.2c0.5-0.7-3.5-5.2-3.7-5.4c-1-1.4-2.1-2.7-3.2-4c-0.3-0.4-0.6-0.7-1.1-0.9
					c-5.2,0.6-10.4,0.9-15.7,1c-5.4,0.3-10.8,0.2-16.2-0.3c-1.5-0.4-2.8-0.9-4.1-1.6c-1.1-0.7-2.4-0.8-3.4-1.6
					c-0.3-0.6-0.8-1.2-1.4-1.6c-0.6-0.3-1-0.9-1.1-1.6c-0.3-2.9,1-5.5,2.5-7.9c2.5-5.2,5.3-10.3,8.2-15.3c2.8-5.1,5.9-10,9.1-14.8
					c2.2-3.2,4.4-6.3,6.6-9.5c4.5-6,9.3-11.8,14.4-17.2c-0.5-0.2-1-0.3-1.5-0.2c-1.9,0.1-3.7,0.2-5.6,0.3c-1.9,0.1-3.7,0.3-5.6,0.4
					C-75.5-201.4-76-201.3-76.4-201z"/>
				<path class="st5" d="M-76.6-199.8c-7.4,9-14.6,18.1-20.8,27.9c-5.3,8.4-10.1,17-14.5,25.9c-2.7,5.5-6.2,12-2.3,18
					c3.6,5.6,9.7,8.2,15.9,9.9c3.5,0.9,7.6,1.2,11.1,1.3c11.8,0.4,23.5-0.9,35.2-2.4c-2.1-2.7-4.3-5.4-6.4-8.1
					c0.5,1.7,0.5,3.4,0.1,5.2c-0.5,3.7-1.7,7.1-3.6,10.4c0.3-0.6,0.7-1.2,1-1.8c-3,3.7-6.1,7.4-9.1,11.1c1.2-1.2,2.4-2.4,3.6-3.7
					c-2.7,2.4-5.4,4.8-8.1,7.2c1.3-1.1,2.6-2.2,3.9-3.3c-4.3,3.3-8.6,6.5-13.1,9.4c-5.6,3.6-10.7,8-15.1,13.2
					c-13,11.9-25.9,24-38.7,36.1c-0.8,0.8,2.6-0.1,2.2,0c1.3-0.3,2.6-0.7,3.9-1c0.7-0.2,1.4-0.4,2-0.7
					c12.7-12.3,25.4-24.6,38.3-36.8c6.5-6.2,13.1-12.3,19.8-18.2c3-2.6,6.3-4.7,9.3-7.4c1.6-1.4,3.1-2.9,4.6-4.4
					c2.1-2.2,3.9-4.6,5.6-7.2c0.4-0.6-2.8-4.1-2.9-4.3c-0.3-0.4-2.5-3.9-3.5-3.8c-5.4,0.7-10.8,1.2-16.2,1.4
					c-5.8,0.4-11.7,0.5-17.6,0.4c-2.2-0.3-4.2-0.8-6.3-1.6c-1.9-0.7-3.8-1.4-5.4-2.7c-1.2-0.9-3.4-3.1-3.8-4.7
					c-0.7-3.4,0.4-6.3,1.9-9.2c5.4-10.4,10.7-20.7,17.2-30.4c2.2-3.2,4.4-6.4,6.6-9.6c4.4-6.1,9.2-11.9,14.3-17.4
					c-0.3-0.2-0.6-0.2-1-0.1c-1.2,0.1-2.4,0.3-3.6,0.5C-73.1-200.7-75.9-200.7-76.6-199.8z"/>
				<path class="st5" d="M-80.2-197.5c-6.8,9.3-13.8,18.5-20,28.1c-3.2,5-6.2,10.1-9,15.4c-2.9,5.2-5.6,10.6-8.1,16
					c-1.1,3.4-1.8,7.1-0.7,10.6c0.6,1.1,1.1,2.2,1.7,3.4c1.6,2.3,3.5,4.3,5.8,5.9c3.7,2.3,8.1,4,12.4,4.8c3.3,0.6,6.7,0.8,10.1,0.8
					c4.6,0,9.2-0.1,13.8-0.3c7.8-0.4,15.6-1.2,23.3-2.5c-0.5-0.8-1-1.7-1.5-2.5c-1.7,3-3.8,5.7-6.2,8.1c-2.1,2.3-4.4,4.4-7,6.2
					c-4.8,3.6-10,6.7-15.1,9.8c-2.7,1.6-5.5,3.2-8.1,5c-8.8,7.8-17.4,15.7-26.1,23.6c-8.6,8-17.2,16-25.8,24c-0.3,0.2,0,0.5,0.2,0.6
					c0.3,0.1,1.2-0.3,1.4-0.5c12.8-12.1,25.5-24.3,38.7-36c6.8-7.2,14.5-13.1,23.1-17.7c2-1.1,3.9-2.3,5.9-3.4
					c2.7-1.6,5.3-3.3,7.8-5.1c2-1.3,3.9-2.8,5.6-4.5c2.7-2.3,5-4.9,7.1-7.8c0.3-0.4-0.9-2.6-1.5-2.5c-9.6,1.3-19,2.4-28.7,2.5
					c-4.3,0.1-8.7,0.3-13-0.1c-3.3-0.3-6.5-1.1-9.7-2.3c-3.1-1.2-6-2.6-8.3-5c-0.8-0.9-1.5-1.9-2.3-2.8c-0.7-2.7-1.3-5.4-1.9-8.1
					c0.1-3.5,2.2-7.1,3.6-10c4.3-8.9,9.1-17.6,14.4-25.9c2.2-3.3,4.4-6.5,6.5-9.8c4.4-5.8,8.7-11.7,12.7-17.8
					C-78.4-198-79.9-197.9-80.2-197.5z"/>
			</g>
		</g>
	</g>
</g>
</svg>
