<?xml version="1.0" encoding="utf-8"?>
<!-- Generator: Adobe Illustrator 24.3.0, SVG Export Plug-In . SVG Version: 6.00 Build 0)  -->
<svg version="1.1" id="Ebene_1" xmlns="http://www.w3.org/2000/svg" xmlns:xlink="http://www.w3.org/1999/xlink" x="0px" y="0px"
	 viewBox="0 0 516 525" style="enable-background:new 0 0 516 525;" xml:space="preserve">
<style type="text/css">
	.st0{fill:#FFFFFF;stroke:#000000;stroke-miterlimit:10;}
</style>
<path d="M258,3C118,3,4,119.7,4,263s114,260,254,260s254-116.7,254-260S398,3,258,3z M186.9,238.7c1.5,13.3,145.1,10.1,145.5,0.7
	c0.1-1.7-4.4-1.8-9.7-7.9c-8.1-9.2-8.1-20.6-8.1-21.9c0.1-10.3,5.1-17.3,6.7-19.4c8.2-11.1,20.4-13.4,22.9-13.8
	c2.9-0.5,14.4-2.1,24.9,5.2c10.6,7.3,16.3,20.9,13.8,34.1c-2.2,11.3-10,20.2-19,24.3c-12.1,5.4-22.7,0.3-31.5-0.7
	c-15-1.6-38.2,7.5-72.1,59.7c12.9,0.5,34,3.2,55.7,15.7c48.4,27.8,59.3,80.8,61,89.8c-10.5,3.1-21,6.1-31.5,9.2
	c-6.8-47-47.9-80.5-91.8-78c-38.3,2.1-72,31.3-80.6,71.5c-10.7-4.6-21.4-9.2-32.1-13.8c1.2-4.9,3.2-11.8,6.6-19.7
	c3.9-9.1,15.5-35.2,43.9-54.4c28.8-19.5,57.9-20.5,68.8-20.3c42.7-27.5,48.8-40.8,46.5-47.9C301,232.8,227.7,221.7,186.9,238.7
	c-4.2,1.8-16.2,7.2-28.8,3.3c-9.2-2.8-18.7-10.6-22.3-22.3c-5.6-18,6.8-32.3,7.9-33.4c2-2.2,9.1-9.8,21-11.1
	c13.6-1.5,23.3,6.6,25.6,8.5c2.5,2.1,9.4,8,11.7,18.5c0.3,1.5,2.3,10.9-2.3,20.9C194.7,234,186.6,235.5,186.9,238.7z"/>
<path class="st0" d="M148.9,70.9"/>
</svg>
