<?xml version="1.0" encoding="utf-8"?>
<!-- Generator: Adobe Illustrator 24.3.0, SVG Export Plug-In . SVG Version: 6.00 Build 0)  -->
<svg version="1.1" id="Ebene_1" xmlns="http://www.w3.org/2000/svg" xmlns:xlink="http://www.w3.org/1999/xlink" x="0px" y="0px"
	 viewBox="0 0 516 525" style="enable-background:new 0 0 516 525;" xml:space="preserve">
<style type="text/css">
	.st0{fill:#FFFFFF;stroke:#000000;stroke-width:34.0157;stroke-miterlimit:10;}
</style>
<path d="M258,3C118,3,4,119.7,4,263s114,260,254,260s254-116.7,254-260S398,3,258,3z M264.2,332.1c33-1,79.3-4.3,136-14.8
	c25.9-8.9,27.8-18.8,28.1-21.4c1.6-15.2-27.9-33.7-52.2-40.9c-15.9-4.7-24.2-3-37.6-11.8c-5.9-3.8-17.3-11.5-20.7-25.7
	c-0.7-2.8-3.4-13.9,2.9-24.5c4.8-8.2,12.3-11.5,15.3-12.8c1.9-0.8,20.5-8.5,34.4,2.9c10.8,8.9,10.9,22.7,10.9,25.9
	c0,2.9-0.1,13-7.1,21.8c-12.4,15.8-34.7,12.5-35.6,12.3c5.3,2.6,62.8,31.4,61.7,74.1c-0.1,6.1-1.5,16.4-15.6,36.8
	c-16.9,24.4-57.8,83.3-121.3,82.2c-35.8-0.7-62.4-20.1-79.3-32.5c-10.3-7.5-31.5-24.8-47.8-53.5c-7.2-12.8-12.2-21.5-13.4-33.4
	c-3.7-37.2,33.5-66.6,40.1-71.6c-2.1-0.5-18.4-4.4-25.8-20.1c-1.5-3.2-5.6-13.2-1.9-24.8c3.9-12.2,14.9-20.8,26.7-22.9
	c10.4-1.9,23.8,0.7,31.5,10.5c6,7.6,6.1,16.3,6.1,21.2c0,5,0.2,18-10,27.6c-10.6,10.1-24.5,8.8-26.7,8.6
	c-4.3,1.3-22.3,7.3-33.7,26.1c-12.5,20.8-7.5,41.7-6.5,45.5c18.1,4.9,42.8,10.3,72.6,13.4C208.8,331.5,229.7,333.1,264.2,332.1z"/>
<path class="st0" d="M343.8,318.1"/>
<path class="st0" d="M242.7,410.5"/>
<path d="M336.4,290.8c13.7,7.2,27.5,14.5,41.2,21.7"/>
</svg>
