<?xml version="1.0" encoding="utf-8"?>
<!-- Generator: Adobe Illustrator 24.3.0, SVG Export Plug-In . SVG Version: 6.00 Build 0)  -->
<svg version="1.1" id="Ebene_1" xmlns="http://www.w3.org/2000/svg" xmlns:xlink="http://www.w3.org/1999/xlink" x="0px" y="0px"
	 viewBox="0 0 516 525" style="enable-background:new 0 0 516 525;" xml:space="preserve">
<style type="text/css">
	.st0{fill:#FFFFFF;stroke:#000000;stroke-width:34.0157;stroke-miterlimit:10;}
	.st1{fill:#FF7DFF;}
</style>
<path class="st0" d="M352.7,386.2c-5.1-10-30.3-57.1-78.4-66.7c-5.9-1.2-18.3-3.5-33.3,0c-44.3,10.3-62.1,59.6-64.3,65.9
	c21.3-5.6,49.9-11,83.8-11.2C298.4,373.9,330,380,352.7,386.2z"/>
<path d="M258,3C118,3,4,119.7,4,263s114,260,254,260s254-116.7,254-260S398,3,258,3z M258,55c112.5,0,203.2,92.8,203.2,208
	S370.5,471,258,471S54.8,378.2,54.8,263S145.5,55,258,55z M199.6,209c0,17.8-14.3,32.2-31.9,32.2s-31.9-14.4-31.9-32.2
	s14.3-32.2,31.9-32.2S199.6,191.2,199.6,209z M381.1,209c0,17.8-14.3,32.2-31.9,32.2s-31.9-14.4-31.9-32.2s14.3-32.2,31.9-32.2
	C366.8,176.7,381.1,191.2,381.1,209z"/>
<path class="st0" d="M180.4,416.8"/>
<path class="st0" d="M281.5,324.4"/>
<path class="st0" d="M259.5,333.2c7.5,2.1,7.7,4.9,24.7,13.5c25.8,13,45.2,16.7,44.9,18c-0.4,1.7-33.1-11.1-74.1-9
	c-43.8,2.3-67.3,20.1-69.6,15.7C182,365.2,225.8,323.6,259.5,333.2z"/>
<path class="st0" d="M663.4,588.6"/>
<path class="st1" d="M398.7,367.4"/>
</svg>
