<?xml version="1.0" encoding="utf-8"?>
<!-- Generator: Adobe Illustrator 24.3.0, SVG Export Plug-In . SVG Version: 6.00 Build 0)  -->
<svg version="1.1" id="Ebene_1" xmlns="http://www.w3.org/2000/svg" xmlns:xlink="http://www.w3.org/1999/xlink" x="0px" y="0px"
	 viewBox="0 0 1728 864" style="enable-background:new 0 0 1728 864;" xml:space="preserve">
<style type="text/css">
	.st0{fill:#FFFFFF;stroke:#000000;stroke-width:34.0157;stroke-miterlimit:10;}
	.st1{display:none;}
	.st2{fill:none;}
</style>
<path d="M788,139.5c-140,0-254,116.7-254,260s114,260,254,260s254-116.7,254-260S928,139.5,788,139.5z M722,445c4.5,2,8.5-0.4,16-3
	c35-12.1,43.6-1,65-10c29.6-12.4,51.3-49.6,46-71c-0.7-2.9-2.5-7.8-2-15c0.2-3.1,1.1-16.9,12-26c10-8.3,26-10.9,39-3
	c14.2,8.7,18.8,26.4,14,40c-4.5,12.7-15.8,18-18,19c-13.2,5.9-25.3,1.1-28,0c-1.9-0.7-5.9-2.4-10-6c-5.6-4.9-6.2-9-8-10
	c-4.3-2.4-19.3,11.1-64,76c4.2-0.5,10.5-0.8,18,0c0,0,16,1.8,33,11c18,9.8,51,46.2,81,103c-28-10-72.6-22-128-21
	c-45.8,0.8-83.3,10.3-109,19l0,0l0,0c43-68.9,55.9-90,83-102c9.8-4.3,22.5-8,22-11c-0.9-5.6-43.9,6-59-12c-12.3-14.7-3.1-42.6,6-63
	c-1.4,2-13.3,18-33,18c-3,0-14.8,0-24-9c-9.7-9.5-11.5-24.4-7-36c0.8-2,6.3-15.6,21-20c12.2-3.6,22.4,1.6,25,3
	c11.9,6.4,15.8,17.6,17,21c1.1,3.1,4.3,12.6,1,23c-2.6,8.1-7.5,11.9-11,16C702.7,396.3,707.6,438.8,722,445z M795,415 M747,431
	 M757,361"/>
<path class="st0" d="M710.4,553.3"/>
<path class="st0" d="M811.6,460.9"/>
<path class="st0" d="M1193.4,725.1"/>
<path class="st1" d="M1395.1,153.3c-140,0-254,116.7-254,260s114,260,254,260s254-116.7,254-260S1535.1,153.3,1395.1,153.3z
	 M1395.1,205.3c-0.8,1.2,203.2,87.1,203.2,208c0,120.9-204,206.8-203.2,208c0.8,1.1,213.1-41.2,212.9-208.3
	C1607.8,246.2,1395.9,204.1,1395.1,205.3z M2100,323"/>
<path class="st2" d="M1330,302c-14.7-10.6-37.7-7.7-50,7c-8.5,10.1-11.2,24.9-6,37c8.7,20.4,38.1,29.7,56,17
	C1348.9,349.6,1349.4,316,1330,302z"/>
<path d="M953,258c-98.3,20.5-196.7,41-295,61.6c-24.7,5.1-49.3,10.3-74,15.4c12.5-76.2,58.7-140.1,123-162c76.4-26,151,16.8,181,34
	C917.6,224,938.9,243.3,953,258z"/>
<path d="M699,459"/>
</svg>
