<?xml version="1.0" encoding="utf-8"?>
<!-- Generator: Adobe Illustrator 24.3.0, SVG Export Plug-In . SVG Version: 6.00 Build 0)  -->
<svg version="1.1" id="Ebene_1" xmlns="http://www.w3.org/2000/svg" xmlns:xlink="http://www.w3.org/1999/xlink" x="0px" y="0px"
	 viewBox="0 0 516 525" style="enable-background:new 0 0 516 525;" xml:space="preserve">
<style type="text/css">
	.st0{fill:#FFFFFF;stroke:#000000;stroke-width:34.0157;stroke-miterlimit:10;}
</style>
<path d="M258,3C118,3,4,119.7,4,263s114,260,254,260s254-116.7,254-260S398,3,258,3z M258,55c112.5,0,203.2,92.8,203.2,208
	S370.5,471,258,471S54.8,378.2,54.8,263S145.5,55,258,55z M199.6,209c0,17.8-14.3,32.2-31.9,32.2s-31.9-14.4-31.9-32.2
	s14.3-32.2,31.9-32.2S199.6,191.2,199.6,209z M381.1,209c0,17.8-14.3,32.2-31.9,32.2s-31.9-14.4-31.9-32.2s14.3-32.2,31.9-32.2
	C366.8,176.7,381.1,191.2,381.1,209z"/>
<path class="st0" d="M362.7,363.9c-71.6-0.5-143.3-1-214.9-1.4"/>
</svg>
