<?xml version="1.0" encoding="utf-8"?>
<!-- Generator: Adobe Illustrator 24.3.0, SVG Export Plug-In . SVG Version: 6.00 Build 0)  -->
<svg version="1.1" id="Ebene_1" xmlns="http://www.w3.org/2000/svg" xmlns:xlink="http://www.w3.org/1999/xlink" x="0px" y="0px"
	 viewBox="0 0 516 525" style="enable-background:new 0 0 516 525;" xml:space="preserve">
<path d="M258,3C118,3,4,119.7,4,263s114,260,254,260s254-116.7,254-260S398,3,258,3z M262.3,391.4c27.5-1.1,45.7-16.8,53.3-23.5
	c18.8-16.3,26.1-35.2,30.6-46.9c12.5-33.1,9.2-63.1,6.1-79.2c-2.8,0.3-12.6,1-21.7-5.4c-13.2-9.3-13.2-25.3-13.2-27.4
	c0.1-3.2,0.7-14.9,10.4-23.8c1.3-1.2,10.8-9.7,24.9-8.5c1.8,0.2,16.6,1.7,24.2,14.2c5.1,8.4,4.1,17,3.6,21.3
	c-0.4,3.1-1.4,12-7.8,19.2c-7,7.8-15.1,7.7-20.2,10.4c-9.2,4.9-15.9,22.8-6.1,79.2c10.7,3.6,21.3,7.1,32,10.7
	c-19.8,57.6-69.7,95.5-120.9,94.6c-54.3-1-90.6-45.4-94.6-50.5c-15.2-19.3-21.8-38.9-24.9-51.2c11.4-2.8,22.8-5.7,34.1-8.5
	c8.3-50.1,1.5-66.3-7.1-71.1c-4.9-2.7-11.2-2.3-18.4-8.8c-9.2-8.5-10.6-20.2-10.8-22.5c-1.2-12.4,4.5-21.4,6.4-24.2
	c1.8-2.6,6.2-8.8,14.2-12.1c10.8-4.5,24.3-2.2,33.4,5.7c13,11.2,13.9,30.6,7.1,42.7c-4.9,8.7-13.6,13.2-15.6,14.2
	c-8.6,4.4-12.3,2.3-16.4,5c-12.9,8.6-1.8,48.5,7.1,71.1c9.1,23.1,16.1,41.1,35.6,56.2C214.6,377.7,234.3,392.5,262.3,391.4z"/>
</svg>
